<svg xmlns="http://www.w3.org/2000/svg" viewBox="0 0 96.85 96.85"><defs><style>.cls-1{fill:#5c3b8f;}.cls-2{fill:#d8c5e1;}.cls-3{opacity:0.15;}.cls-4{fill:#fff;}.cls-5{fill:#e4c7e1;}</style></defs><g id="Layer_2" data-name="Layer 2"><g id="Layer_1-2" data-name="Layer 1"><rect class="cls-1" x="2.5" y="2.5" width="91.85" height="91.85"/><path class="cls-2" d="M96.85,96.85H0V0H96.85ZM5,91.85H91.85V5H5Z"/><g class="cls-3"><rect class="cls-4" x="5" y="5" width="40.45" height="86.85"/></g><path class="cls-5" d="M26.8,55.74,22.74,68H17.52L30.8,28.94h6.09L50.23,68h-5.4L40.66,55.74Zm12.81-4L35.78,40.54c-.87-2.55-1.45-4.87-2-7.13h-.11c-.58,2.32-1.22,4.7-2,7.07L27.84,51.79Z"/><path class="cls-5" d="M57.94,54.93c.12,6.9,4.53,9.74,9.63,9.74a18.48,18.48,0,0,0,7.77-1.45l.87,3.65a22.61,22.61,0,0,1-9.34,1.74c-8.64,0-13.8-5.68-13.8-14.15s5-15.14,13.16-15.14c9.17,0,11.6,8.07,11.6,13.23a19.25,19.25,0,0,1-.17,2.38Zm15-3.66C73,48,71.57,43,65.83,43c-5.16,0-7.42,4.75-7.83,8.29Z"/></g></g></svg>