<svg xmlns="http://www.w3.org/2000/svg" viewBox="0 0 96.85 96.85"><defs><style>.cls-1{fill:#cc6e27;}.cls-2{fill:#f5d0b0;}.cls-3{opacity:0.15;}.cls-4{fill:#fff;}.cls-5{fill:#f5d1b0;}</style></defs><g id="Layer_2" data-name="Layer 2"><g id="Layer_1-2" data-name="Layer 1"><rect class="cls-1" x="2.5" y="2.5" width="91.85" height="91.85"/><path class="cls-2" d="M96.85,96.85H0V0H96.85ZM5,91.85H91.85V5H5Z"/><g class="cls-3"><rect class="cls-4" x="5" y="5" width="40.45" height="86.85"/></g><path class="cls-5" d="M34.18,55.88,30.33,67.54H25.38L38,30.47h5.78L56.4,67.54H51.28l-4-11.66Zm12.15-3.74L42.7,41.47c-.82-2.42-1.37-4.62-1.92-6.76h-.11c-.55,2.2-1.16,4.45-1.87,6.7L35.17,52.14Z"/><path class="cls-5" d="M66.9,33.44a3,3,0,0,1-6,0,2.94,2.94,0,0,1,3-3A2.87,2.87,0,0,1,66.9,33.44Zm-5.39,34.1V40.92h4.84V67.54Z"/></g></g></svg>