<?xml version="1.0" encoding="utf-8"?>
<!-- Generator: Adobe Illustrator 24.1.0, SVG Export Plug-In . SVG Version: 6.00 Build 0)  -->
<svg version="1.1" id="Layer_1" xmlns="http://www.w3.org/2000/svg" xmlns:xlink="http://www.w3.org/1999/xlink" x="0px" y="0px"
	 viewBox="0 0 841.9 1190.6" style="enable-background:new 0 0 841.9 1190.6;" xml:space="preserve">
<style type="text/css">
	.st0{fill:#F9EFF7;}
	.st1{fill:#56B038;}
	.st2{fill:#6F91CB;}
	.st3{fill:#294899;}
	.st4{fill:#F59D17;}
	.st5{fill:#010202;}
	.st6{fill:#C4C4C4;}
</style>
<rect x="-17.7" y="-14.8" class="st0" width="877.3" height="1220.1"/>
<g>
	<path class="st1" d="M527.1,829c1.5-19.1,24-29.8,28.1-31.8c12.6-5.9,24.5-6.4,30.4-6.6c9.1-0.3,35.7-1.1,42.8,10.9
		c5.8,9.8-4,23.7-16.1,30.3c-9,4.8-18.6,5.1-23.1,5c4.8,0.8,13.4,2.8,21.7,8.2c2,1.3,21.3,14.2,17,25.9
		c-3.6,9.8-21.3,12.1-23.8,12.4c-19.5,2.5-36.1-7.6-43.9-12.4C550,864.6,525.6,849.8,527.1,829z"/>
	<path class="st1" d="M473.4,859c13.6-13.6,37.7-7,42.1-5.8c13.4,3.7,22.8,11.1,27.4,14.8c7.1,5.7,27.8,22.4,25.4,36.2
		c-2,11.2-18.5,15.5-32,12.5c-10-2.2-17.4-8.2-20.8-11.2c3.2,3.8,8.4,10.8,11.1,20.4c0.7,2.3,6.9,24.7-4.1,30.8
		c-9.2,5.1-24-4.7-26.1-6.1c-16.4-10.9-22.4-29.3-25.2-38.1C467.4,901,458.6,873.8,473.4,859z"/>
	<path class="st2" d="M604.6,736.9c0,1.6,0,3.2-0.1,4.8c-0.2,7.1-0.9,14-2,20.9v0c-1.1,6.9-2.6,13.7-4.6,20.3
		c-2.5,8.5-5.7,16.7-9.5,24.5c-4.1,8.5-9,16.7-14.6,24.3c-29.3,40.4-76.9,66.6-130.6,66.6c-89.1,0-161.4-72.2-161.4-161.4
		c0-89.1,72.2-161.4,161.4-161.4c60.7,0,113.6,33.5,141.1,83c2.6,4.7,5,9.5,7.1,14.5c2.3,5.4,4.4,11,6.2,16.8
		c1.6,5.2,2.9,10.4,3.9,15.8c1.2,6,2,12.2,2.5,18.5C604.5,728.3,604.6,732.6,604.6,736.9z"/>
	<path class="st2" d="M549.4,494c0,38.5-20.4,72.3-51,91.1c-0.1,0.1-0.3,0.2-0.4,0.2c-15.5,9.5-33.7,15.1-53.1,15.6
		c-0.8,0-1.7,0-2.5,0c-20.2,0-39.1-5.6-55.3-15.4c0,0-0.1,0-0.1,0c-8.3-5.1-15.9-11.2-22.6-18.3c-0.9-1-1.8-2-2.7-3
		c-1.3-1.5-2.6-3-3.8-4.6c-0.8-1-1.6-2.1-2.4-3.2c-1.2-1.7-2.4-3.5-3.6-5.2c-0.7-1.1-1.4-2.2-2.1-3.4c-1-1.8-2-3.6-3-5.4
		c-0.6-1.2-1.2-2.4-1.7-3.6c-0.9-1.9-1.7-3.9-2.5-5.9c-0.5-1.3-1-2.5-1.4-3.8c-0.7-2-1.3-4-1.9-6.1c-0.4-1.3-0.7-2.7-1-4
		c-0.5-2.2-1-4.4-1.4-6.6c-0.2-1.4-0.5-2.8-0.7-4.3c-0.3-2.3-0.5-4.6-0.7-6.9v0c-0.1-1.5-0.2-3-0.2-4.6c0-0.9,0-1.8,0-2.6
		c0-1.7,0-3.3,0.1-4.9V489c1.4-30.8,15.9-58.1,37.9-76.7c4.5-3.8,9.3-7.2,14.4-10.3c5.7-3.4,11.8-6.3,18.2-8.6l0,0
		c9-3.2,18.5-5.3,28.4-6c2.6-0.2,5.3-0.3,7.9-0.3c3.5,0,7,0.2,10.5,0.5c11.9,1.2,23.1,4.2,33.5,8.9c29.8,13.5,52.3,40.2,60,72.6
		C548.3,477.1,549.4,485.5,549.4,494z"/>
	<path class="st3" d="M445,600.1c-8.3,0.1-19.8-0.6-32.8-4.3c-10.2-2.9-18.6-6.8-24.9-10.3c-21.5,8.4-52.2,23.8-78.8,53.2
		c-18.7,20.7-23.7,35.5-41.8,61.9c-14.5,21.1-38,50.5-75.3,81.1c3.8,8.7,10.6,20.9,22.6,31.8c13.9,12.6,27.4,16.7,57.7,25.9
		c48.5,14.7,72.7,22.1,75.4,23.7c24.2,14.1,33.4,27.9,62.5,37c10,3.1,18.7,3.9,24.2,4.1c-0.5-44.1-0.1-89.9,1.4-137.3
		C437.1,708.9,440.5,653.2,445,600.1z"/>
	<path class="st4" d="M510,463.6c12.7-0.3,32,1.4,51.3,12c55.2,30.4,56.4,103.6,56.4,107.5c-13.2,0.8-30.4,0.6-50.1-3
		c-17.8-3.2-32.6-8.3-44-13.2c9.1,6.1,24.1,14.5,44.3,19.1c18.1,4.1,33.5,3.6,43.8,2.4c-6,7-15.2,15.2-28.1,20
		c-27.7,10.2-61.2,0.3-87-24.3c-1.3-17.5-1.4-38.9,1.4-63C500.7,498.9,505.2,479.5,510,463.6z"/>
	<g>
		<polygon class="st3" points="331.3,487.2 331.2,487.2 331.2,487.1 		"/>
		<path class="st3" d="M351.7,498.3l-15.3,9.8c-0.3-2.3-0.5-4.6-0.7-6.9v0c-0.1-1.5-0.2-3-0.2-4.6l6.1-3.9L351.7,498.3z"/>
		<path class="st3" d="M372.1,509.5l-30.7,19.7c-0.7-2-1.3-4-1.9-6.1c-0.4-1.3-0.7-2.7-1-4l23.5-15.1l6.7,3.7L372.1,509.5z"/>
		<path class="st3" d="M392.4,520.7L350,547.9c-1-1.8-2-3.6-3-5.4c-0.6-1.2-1.2-2.4-1.7-3.6l37-23.7L392.4,520.7z"/>
		<path class="st3" d="M412.6,531.8l-40.5,25.9l-10.3,6.6c-1.3-1.5-2.6-3-3.8-4.6c-0.8-1-1.6-2.1-2.4-3.2l47.1-30.2L412.6,531.8z"/>
	</g>
	<g>
		<polygon class="st3" points="469.7,442.5 475.8,438.6 476.4,446.1 		"/>
		<polygon class="st3" points="449.3,431.4 474.2,415.4 475,426.9 459.5,436.9 		"/>
		<polygon class="st3" points="428.9,420.2 472.6,392.2 472.8,396.1 473.4,403.7 439.1,425.7 432.3,422.1 		"/>
		<polygon class="st3" points="408.5,409 470.9,369 471.7,380.5 418.7,414.6 		"/>
		<path class="st3" d="M443.7,374.3l-23.6,15.2l-6.2,4l-15.6,10l-2.6-1.4l-4-2.2l-3.4-1.9l40.5-26l5-3.2c0.8,1.9,1.5,3.7,2.1,5.4
			c0.3,0.8,0.6,1.5,0.8,2.2c0.6-1.1,1.2-2.4,1.8-3.9c0.7-1.8,1.5-3.8,2.2-6C441.8,369.3,442.8,371.9,443.7,374.3z"/>
		<path class="st3" d="M470.1,357.3l-23.8,15.3c1.6-3.9,3.3-8.8,4.3-14.6l17.1-11c0.6,1.1,1.3,2.1,1.9,3.1L470.1,357.3z"/>
	</g>
	<path class="st1" d="M487.3,404.9c-4.3-0.8-9-1.6-14.1-2.2c-2.5-0.3-5.1-0.6-7.8-0.8c-2.4-0.2-4.8-0.3-7.3-0.4
		c-2.5-0.1-5-0.1-7.6-0.1c-3.9,0-7.9,0.2-12,0.5c-3.1,0.2-6.2,0.6-9.3,1c-5.1,0.7-10.2,1.6-15.5,2.9c-4.1,1-8.2,2.2-12.4,3.6
		c-4.4,1.5-8.7,3.2-13.1,5.2c-5.8,2.6-11.1,5.4-16,8.4c0.5-3.6,1-7.2,1.3-10.7c2.9-28.3,0.5-50.5-2.5-66.3
		c-4.3-22.8-10.1-33.7-10-54.1c0.2-25.2,9.3-45.8,17.1-59.4c-2.9,18.6-0.6,32.9,2.6,43.3c7,22.6,19.8,31.3,36.4,59.5
		c6.4,10.9,11.3,21,14.9,29.7c0.6,1.4,1.1,2.7,1.6,4c0.8,1.9,1.5,3.7,2.1,5.4c0.3,0.8,0.6,1.5,0.8,2.2c0.6-1.1,1.2-2.4,1.8-3.9
		c0.7-1.8,1.5-3.8,2.2-6c0.8-2.6,1.6-5.5,2.1-8.6c0.3-1.6,0.5-3.2,0.7-4.9c1.2-12.3-2.5-18.4-2.7-30.8c-0.1-7,0.7-17.4,5.8-30.3
		c4,17.4,9.2,30.8,13.2,39.9c2.8,6.2,5.4,10.9,7.9,15.2c0.6,1.1,1.3,2.1,1.9,3.1c3.4,5.7,6.6,11.2,9.8,19.2c4,10.2,6,19.6,7.1,27.1
		C486.9,399.7,487.2,402.4,487.3,404.9z"/>
	<path class="st3" d="M591.5,673c-20.4,9.9-46.5,19.9-77.7,26.1c-51.8,10.3-94.2,5.5-115.3,2c-23.3-3.9-42.5-9.8-56.6-14.9
		c1.3-5.3,2.6-10.6,4-15.9c13.6,4.8,32.6,10.3,55.7,13.9c18.6,2.9,58.7,7.4,108.3-2c29.6-5.6,54.7-14.6,74.6-23.7
		C587,663.2,589.3,668.1,591.5,673z"/>
	<path class="st3" d="M604.5,741.7c-21.8,11.8-52.4,25.2-90.8,32.8c-51.8,10.3-94.2,5.5-115.3,2c-23.3-3.9-42.5-9.8-56.6-14.9
		c1.3-5.3,2.6-10.6,4-15.9c13.6,4.8,32.6,10.3,55.7,13.9c18.6,2.9,58.7,7.4,108.3-2c40.5-7.6,72.4-21.7,94.3-33.5L604.5,741.7z"/>
	<path class="st3" d="M601.6,705.6c-21.6,11.4-51.2,23.9-87.8,31.2c-51.8,10.3-94.2,5.5-115.3,2c-23.3-3.9-42.5-9.8-56.6-14.9
		c1.3-5.3,2.6-10.6,4-15.9c13.6,4.8,32.6,10.3,55.7,13.9c18.6,2.9,58.7,7.4,108.3-2c36.6-6.9,66.3-19.1,87.9-30.1
		C599.2,695,600.5,700.2,601.6,705.6z"/>
	<path class="st3" d="M602.6,762.6c-1.1,6.9-2.6,13.7-4.6,20.3c-21.2,10.9-49.6,22.4-84.2,29.4c-51.8,10.3-94.2,5.5-115.3,2
		c-23.3-3.9-42.5-9.8-56.6-14.9c1.3-5.3,2.6-10.6,4-15.9c13.6,4.8,32.6,10.3,55.7,13.9c18.6,2.9,58.7,7.4,108.3-2
		C549.3,787.8,580.7,774.3,602.6,762.6z"/>
	<path class="st3" d="M588.5,807.4c-4.1,8.5-9,16.7-14.6,24.3c-17.1,7.1-37.3,13.7-60.1,18.2c-51.8,10.3-94.2,5.5-115.3,2
		c-23.3-3.9-42.5-9.8-56.6-14.9c1.3-5.3,2.6-10.6,4-15.9c13.6,4.8,32.6,10.3,55.7,13.9c18.6,2.9,58.7,7.4,108.3-2
		C541.5,827,567.9,817.1,588.5,807.4z"/>
	<circle class="st0" cx="440.1" cy="487.1" r="39.1"/>
	<circle class="st5" cx="449.3" cy="482" r="22"/>
</g>
<path class="st6" d="M822.7,1135.9c-0.1,0-0.2,0-0.3,0c-0.2,0-0.4,0.1-0.5,0.3c-0.3,0.3-0.4,0.4-0.8,0.8c-0.2,0.2-0.3,0.3-0.4,0.3
	c-0.4,0.4-0.8,0.6-1,0.7c-1.6,1.1-1.7,1.2-2.4,1.6c-2.8,1.7-5.4,2.3-5.9,2.4c-0.6,0.1-1,0.2-1.3,0.3c0.5-0.2,1.2-0.7,1.9-1.6
	c0.3-0.4,1-1.4,1.1-3c0-0.4,0.1-2-1.1-3.2c-1-1.1-2.4-1.3-3.2-1.3c-0.3,0-2.1-0.2-4,0.8c-2.4,1.2-3.3,3.4-3.5,4c0-2.7,0-5.4,0-8.1
	c0-0.1,0-0.2,0-0.3c0-0.1,0-0.2,0-0.3c0-0.3,0-0.5,0-0.8c0-0.5,0-0.5,0-0.5c-0.1-0.4-0.5-0.8-1.1-0.8c-0.6,0-1.1,0.6-1.1,0.8
	c0,0,0,0,0,0.3c0,0,0,0.2,0,0.3c0,3,0,5.9,0,8.9c-1.5,0.9-2.6,1.5-3.8,2.2c-0.7,0.4-1.4,0.8-2.4,1.1c-1.1,0.3-1.8,0.3-2.2,0.3
	c-0.5,0-1.2-0.1-1.9-0.5c-0.1-0.1-0.4-0.3-0.8-0.8c-0.5-0.7-0.7-1.2-1.1-2.2c-0.3-0.7-0.7-1.7-1.3-2.7c-0.3-0.4-0.7-1-1.3-1.1
	c-0.2,0-0.7-0.1-1.9,1.1c-1.1,1-1.9,2.1-3,3.5c0,0-0.3,0.3-0.8,0.8c-0.4,0.4-0.6,0.6-0.8,0.5c-0.3,0-0.5-0.4-0.8-1.9
	c-0.3-1.4-0.4-2.1-0.8-3.2c-0.1-0.4-0.3-0.9-0.8-1.3c-0.2-0.2-0.5-0.5-0.8-0.5c-1-0.3-2.1,1-3.8,3c-0.8,0.9-0.9,1.1-1.6,1.9
	c-0.4,0.4-1.3,1.3-1.6,1.6c-0.1,0-0.2,0.2-0.3,0.3c-0.1,0.1-0.1,0.1-0.2,0.2c-0.2,0.2-0.2,0.3-0.3,0.3c-0.2,0,0-0.9,0-1.9
	c0,0,0,0,0-3.5c0-0.7,0-1.1,0-1.1c0,0,0-0.1,0-0.3c0,0,0-0.3-0.3-0.5c-0.4-0.5-1.4-0.3-1.9,0c-0.1,0.1-0.2,0.1-0.3,0.3
	c-0.1,0.2,0,0.3,0,0.8c0,0,0,0,0,0.3c0,0.4,0,0.7,0,1.1c0,1,0,2,0,3c0,1.5,0,3.1,0,4.6c0,0.1,0,0.2,0,0.3c0,0.1,0,0.2,0,0.3
	s0,0.2,0,0.3c0,0.1,0.1,0.3,0.3,0.5c0,0,0.2,0.2,0.5,0.3c0.3,0.1,0.8,0,2.2-1.3c0.5-0.5,0.8-0.8,0.8-0.8c0,0,0,0,0,0
	c1.3-1,4.3-4.9,4.3-4.9c0,0,0.2-0.3,0.5-0.5c0.1-0.1,0.1-0.1,0.1-0.1s0.1-0.1,0.2-0.2c0.1-0.1,0.4-0.3,0.5-0.3
	c0.3,0,0.5,0.7,0.5,0.8c0.4,1.3,0.6,2,0.8,3c0.4,1.6,0.6,2.1,1.1,2.4c0.1,0.1,0.3,0.2,0.5,0.3c1,0.3,2-0.5,2.7-1.1
	c1.1-0.9,1.9-2.1,2.2-2.4c0.2-0.3,0.5-0.6,1.1-1.3c0.4-0.5,0.7-0.8,1.1-0.8c0.2,0,0.4,0.1,0.5,0.3c0.3,0.2,0.5,0.6,0.8,1.3
	c0.3,0.9,0.2,0.9,0.5,1.6c0.3,0.6,0.5,1,0.6,1.1c0.1,0.1,0.3,0.4,0.8,0.8c0.2,0.1,0.9,0.7,1.9,1.1c1.5,0.5,3,0.2,3.8,0
	c1.7-0.4,3-1.3,4-1.9c0.8-0.4,1.4-0.8,1.9-1.1c0.2-0.1,0.4-0.2,0.5-0.3v26.7c0,0.4,0,0.7,0,1.1c0,0,0,0.1,0,0.3c0,0,0,0.3,0.3,0.5
	c0.4,0.4,1.2,0.4,1.6,0c0.2-0.2,0.3-0.5,0.3-0.5c0.1-0.3,0-0.5,0-0.5c0,0,0,0,0-5.1v-19.1c0.6,0.2,1.4,0.4,2.4,0.5
	c1.4,0.3,2.9,0.5,4.6,0.5c0.7,0,3.1,0,5.9-1.1c2-0.8,3.6-1.8,4.6-2.4c0.6-0.4,0.7-0.5,1.6-1.1c0.9-0.6,1.1-0.8,1.4-1.1
	c0.4-0.4,0.5-0.5,0.8-0.8c0.3-0.3,0.3-0.3,0.5-0.5c0.2-0.2,0.3-0.5,0.3-0.8C823.2,1136.2,823,1135.9,822.7,1135.9z M808.9,1140.7
	c-2,1.5-4.4,1.2-4.9,1.1c-1-0.2-1.7-0.5-2.2-0.8c0.5-1,1-1.8,1.3-2.4c1-1.6,1.4-2,1.6-2.2c0.4-0.3,1.1-0.9,2.2-1.1
	c0.5-0.1,1.7-0.3,2.7,0.5c0.1,0.1,1.1,0.9,1.1,2.2C810.8,1139.4,809.7,1140.2,808.9,1140.7z"/>
</svg>
