<svg xmlns="http://www.w3.org/2000/svg" viewBox="0 0 96.85 96.85"><defs><style>.cls-1{fill:#ad4995;}.cls-2{fill:#f6deed;}.cls-3{opacity:0.15;}.cls-4{fill:#fff;}</style></defs><g id="Layer_2" data-name="Layer 2"><g id="Layer_1-2" data-name="Layer 1"><rect class="cls-1" x="2.5" y="2.5" width="91.85" height="91.85"/><path class="cls-2" d="M96.85,96.85H0V0H96.85ZM5,91.85H91.85V5H5Z"/><g class="cls-3"><rect class="cls-4" x="5" y="5" width="40.45" height="86.85"/></g><path class="cls-2" d="M37.78,30.47V67.54H33V30.47Z"/><path class="cls-2" d="M69,28.49V60.66c0,2.37.05,5.06.22,6.88H64.83l-.22-4.62H64.5a9.84,9.84,0,0,1-9.07,5.22c-6.43,0-11.38-5.44-11.38-13.53C44,45.76,49.49,40.31,56,40.31c4.07,0,6.82,1.93,8,4.07h.11V28.49ZM64.12,51.75a8.77,8.77,0,0,0-.22-2,7.12,7.12,0,0,0-7-5.61c-5,0-8,4.4-8,10.28,0,5.39,2.64,9.85,7.86,9.85a7.28,7.28,0,0,0,7.1-5.78,8.65,8.65,0,0,0,.22-2.09Z"/></g></g></svg>