<svg xmlns="http://www.w3.org/2000/svg" viewBox="0 0 877.25 1220.14"><defs><style>.cls-1{fill:#eaf6fc;}.cls-2{fill:#99723e;}.cls-3{fill:#ae895a;}.cls-4{fill:#c5c5c4;}</style></defs><g id="Layer_2" data-name="Layer 2"><g id="Layer_1-2" data-name="Layer 1"><rect class="cls-1" width="877.25" height="1220.14"/><path class="cls-2" d="M590.62,455.25V889.06h-304v-558H464l-.18.08a25.45,25.45,0,0,0-8.3,5.75,19.54,19.54,0,0,0-4.34,14.43,20.18,20.18,0,0,0,1.19,5.21,21,21,0,0,0,19.16,13.25,19.76,19.76,0,1,0,20.45,33.77,19.68,19.68,0,0,0-4.28,18.69,19.27,19.27,0,0,0,4.8,8.21,19.67,19.67,0,0,0,26.76,1A22.93,22.93,0,0,0,520.84,445c3,6.71,9.08,11.35,15.5,11.77,7.69.49,15.7-5.05,19-13.81-1.66,7.57,1,15.17,6.66,19.35a16.25,16.25,0,0,0,8.7,3.09,23.56,23.56,0,0,0,10.19-1.86A21.23,21.23,0,0,0,590.62,455.25Z"/><rect class="cls-3" x="303.95" y="351.34" width="49.9" height="70.91"/><rect class="cls-3" x="376.12" y="351.34" width="49.9" height="70.91"/><path class="cls-3" d="M487.66,422.26H448.3V351.34h2.84a20.18,20.18,0,0,0,1.19,5.21,21,21,0,0,0,19.16,13.25,19.76,19.76,0,1,0,20.45,33.77A19.68,19.68,0,0,0,487.66,422.26Z"/><rect class="cls-3" x="304.32" y="441.1" width="49.9" height="70.91"/><rect class="cls-3" x="376.49" y="441.1" width="49.9" height="70.91"/><rect class="cls-3" x="448.67" y="441.1" width="49.9" height="70.91"/><path class="cls-3" d="M570.74,465.38V512h-49.9V445c3,6.71,9.08,11.35,15.5,11.77,7.69.49,15.7-5.05,19-13.81-1.66,7.57,1,15.17,6.66,19.35A16.25,16.25,0,0,0,570.74,465.38Z"/><rect class="cls-3" x="304.69" y="530.86" width="49.9" height="70.91"/><rect class="cls-3" x="376.87" y="530.86" width="49.9" height="70.91"/><rect class="cls-3" x="449.04" y="530.86" width="49.9" height="70.91"/><rect class="cls-3" x="521.21" y="530.86" width="49.9" height="70.91"/><rect class="cls-3" x="305.07" y="620.62" width="49.9" height="70.91"/><rect class="cls-3" x="377.24" y="620.62" width="49.9" height="70.91"/><rect class="cls-3" x="449.41" y="620.62" width="49.9" height="70.91"/><rect class="cls-3" x="521.58" y="620.62" width="49.9" height="70.91"/><rect class="cls-3" x="305.44" y="710.38" width="49.9" height="70.91"/><rect class="cls-3" x="377.61" y="710.38" width="49.9" height="70.91"/><rect class="cls-3" x="449.78" y="710.38" width="49.9" height="70.91"/><rect class="cls-3" x="521.95" y="710.38" width="49.9" height="70.91"/><rect class="cls-3" x="305.81" y="800.14" width="49.9" height="70.91"/><rect class="cls-3" x="377.98" y="800.14" width="49.9" height="70.91"/><rect class="cls-3" x="450.15" y="800.14" width="49.9" height="70.91"/><rect class="cls-3" x="522.32" y="800.14" width="49.9" height="70.91"/><path class="cls-4" d="M840.38,1151.64a.81.81,0,0,0-.27,0,1.07,1.07,0,0,0-.54.27c-.33.27-.43.44-.81.81-.15.15-.28.26-.37.34a10,10,0,0,1-1,.74c-1.6,1.06-1.67,1.16-2.43,1.62a22.06,22.06,0,0,1-5.94,2.42c-.56.14-1,.22-1.34.27a5.57,5.57,0,0,0,1.88-1.62,5.1,5.1,0,0,0,1.08-3,4.48,4.48,0,0,0-1.08-3.24,4.8,4.8,0,0,0-3.23-1.35,7.17,7.17,0,0,0-4.05.81,7.7,7.7,0,0,0-3.5,4v-10a1.16,1.16,0,0,0-1.08-.81,1.13,1.13,0,0,0-1.08.81v9.44l-3.78,2.16a9.88,9.88,0,0,1-2.43,1.07,6,6,0,0,1-2.15.27,3.45,3.45,0,0,1-1.89-.54,3.19,3.19,0,0,1-.79-.77,7.85,7.85,0,0,1-1.1-2.19,15.69,15.69,0,0,0-1.35-2.7,2.12,2.12,0,0,0-1.35-1.08c-.15,0-.66-.06-1.88,1.08a33.22,33.22,0,0,0-3,3.51,9.57,9.57,0,0,1-.81.81c-.42.37-.63.56-.81.54s-.45-.4-.81-1.89a28.87,28.87,0,0,0-.81-3.24,3.2,3.2,0,0,0-.81-1.35,1.92,1.92,0,0,0-.81-.54c-1-.25-2.11,1-3.77,3-.75.87-.89,1.12-1.62,1.89-.35.37-1.3,1.33-1.62,1.62l-.35.33c0,.06-.12.12-.19.21s-.22.28-.27.27,0-.9,0-1.89v-4.59a.77.77,0,0,0,0-.27,1.07,1.07,0,0,0-.27-.54,1.64,1.64,0,0,0-1.88,0,.64.64,0,0,0-.27.27c-.09.18,0,.33,0,.81v9.17a1.12,1.12,0,0,0,0,.27,1,1,0,0,0,0,.27.92.92,0,0,0,.27.54,1.11,1.11,0,0,0,.53.27c.31,0,.78,0,2.16-1.35.51-.48.81-.8.81-.81h0A41.41,41.41,0,0,0,790,1153a4.21,4.21,0,0,1,.49-.54l.11-.11.21-.16a1,1,0,0,1,.54-.27c.29,0,.49.65.53.81.4,1.33.6,2,.81,3,.35,1.55.6,2.07,1.08,2.42a1.66,1.66,0,0,0,.54.27c1,.29,2-.53,2.7-1.08a12.2,12.2,0,0,0,2.16-2.42c.19-.28.48-.64,1.08-1.35.42-.51.7-.83,1.07-.81a.88.88,0,0,1,.54.27,2.74,2.74,0,0,1,.81,1.35c.31.87.19.94.48,1.63a4.85,4.85,0,0,0,.6,1.06,4.66,4.66,0,0,0,.81.81,5.82,5.82,0,0,0,5.67,1.08,15.88,15.88,0,0,0,4-1.89c.79-.43,1.44-.81,1.89-1.08l.54-.26v26.7a9.73,9.73,0,0,1,0,1.08.77.77,0,0,0,0,.27,1,1,0,0,0,.27.53,1.22,1.22,0,0,0,1.62,0,1.22,1.22,0,0,0,.27-1.07v-24.28c.59.16,1.42.35,2.42.54a23.78,23.78,0,0,0,4.59.54,17.48,17.48,0,0,0,5.93-1.08,21.49,21.49,0,0,0,4.59-2.43c.59-.38.66-.45,1.55-1.07a10.68,10.68,0,0,0,1.41-1.08c.39-.37.54-.54.81-.81l.54-.54a.8.8,0,0,0,.27-.81A.76.76,0,0,0,840.38,1151.64Zm-13.75,4.85a6.42,6.42,0,0,1-4.86,1.08,6.23,6.23,0,0,1-2.15-.81c.5-1,1-1.83,1.34-2.42a9.07,9.07,0,0,1,1.62-2.16,4.4,4.4,0,0,1,2.16-1.08,3.3,3.3,0,0,1,2.7.54,3,3,0,0,1,1.08,2.16C828.5,1155.13,827.33,1156,826.63,1156.49Z"/></g></g></svg>