<svg xmlns="http://www.w3.org/2000/svg" viewBox="0 0 874.3 1219.95"><defs><style>.cls-1{fill:#ebf7fd;}.cls-2{fill:#fce014;}.cls-3{fill:#fcef87;}.cls-4{fill:#45a934;}.cls-5{fill:#83bf61;}.cls-6{fill:#558c31;}.cls-7{fill:#c5c5c4;}</style></defs><g id="Layer_2" data-name="Layer 2"><g id="Layer_1-2" data-name="Layer 1"><rect class="cls-1" width="874.3" height="1219.95"/><path class="cls-2" d="M582.4,486.77c-6.22-5.39-17.87-2.29-23.89-.69-12.91,3.44-15.47,9.19-26,12.21-12.06,3.44-22.48-.12-28.81-1.92-27.56-7.85-68.61-7.12-86.41-5.76-65.36,5-118.64,65.23-126.75,74.89C230.39,637.14,232.3,729.27,236.73,746c1,3.65,4.59,13.28,1.92,25-1.69,7.42-4.66,10.15-5.76,19.2-.62,5.17-1.36,11.25,1.58,17.77a27.59,27.59,0,0,0,17.63,14.88c8.43,2.25,12-1.84,23-1.92,12-.09,20.57,4,25,5.76,21.2,8.45,70.12,13.21,99.86,11.52,65.67-3.72,113.27-43.2,125.58-53.68,14.78-12.6,46.18-40,62.79-86.42,14.32-40,14.72-86,7-119.3-5.13-22-13.17-35.59-11-61.3C585.38,505,589.13,492.61,582.4,486.77Z"/><path class="cls-3" d="M335.42,546.08a181.43,181.43,0,0,1,18.09-12c14.28-8.26,26.77-15.49,44.82-20.68,21.48-6.19,39-6.1,51.72-6,5.79,0,12.28.39,25.16,2,4.63.6,11.69,1.28,19.66,4.85,7.44,3.33,8.93,6,9.48,7.76a11,11,0,0,1-2.59,10.34c-5.35,5.66-16.27,2.89-23.27,1.72-19.74-3.29-36,1.49-54.3,6.9-1.57.46-26.93,8.31-48.27,25-2.69,2.11-7.39,5.52-16.8,12.33-9.95,7.22-14.72,10.52-22,12.67-5.08,1.51-10,2.88-15.33.66-.54-.22-7.36-3.18-9.58-10.19-2.45-7.75,2.44-15,5.7-19.76C319.49,559.41,322.57,555.37,335.42,546.08Z"/><path class="cls-4" d="M596.29,468.94c0,.19,0,.38,0,.56-13.55,4.5-39.86,10.95-71,3.81-7.33-1.67-58.18-13.33-76.54-52.68-8.28-17.74-11.4-44.2-12.3-51.8s-1.29-14.1-1.45-18.68a2.77,2.77,0,0,0,0-.41c8,1.1,19.26,2.92,32.6,6,31,7.09,56.86,13,82.5,31,13.28,9.32,35.62,25,43.68,53.59A80.52,80.52,0,0,1,596.29,468.94Z"/><path class="cls-5" d="M596.3,468.94a497.52,497.52,0,0,0-47.18-36.28c-17.88-12.09-25.61-15.59-57.72-37.27-21.1-14.24-33.6-23.43-47.32-36.28-3.3-3.08-6.35-6.09-9.16-9a2.77,2.77,0,0,0,0-.41c8,1.1,19.25,2.92,32.6,6,31,7.1,56.86,13,82.5,31,13.28,9.33,35.62,25,43.67,53.6A80.33,80.33,0,0,1,596.3,468.94Z"/><path class="cls-6" d="M570.44,488.51l10.43,6.7a96,96,0,0,1,8.2-8.94,106.41,106.41,0,0,1,21.61-15.65A118.52,118.52,0,0,1,642,458.7a30.2,30.2,0,0,1-20.12-23.1Q596.16,462.06,570.44,488.51Z"/><path class="cls-7" d="M838.91,1150.58a.6.6,0,0,0-.27,0,1,1,0,0,0-.54.27,8.8,8.8,0,0,0-.81.81l-.37.34a11.76,11.76,0,0,1-1,.74c-1.6,1.06-1.66,1.16-2.43,1.61a21.74,21.74,0,0,1-5.93,2.43c-.57.13-1,.22-1.35.27a5.68,5.68,0,0,0,1.89-1.62,5.18,5.18,0,0,0,1.08-3,4.57,4.57,0,0,0-1.08-3.24,4.8,4.8,0,0,0-3.24-1.35,7.14,7.14,0,0,0-4,.81,7.73,7.73,0,0,0-3.51,4v-10a1.15,1.15,0,0,0-1.08-.81,1.13,1.13,0,0,0-1.08.81v9.44l-3.77,2.15a10.22,10.22,0,0,1-2.43,1.08,6.34,6.34,0,0,1-2.16.27,3.59,3.59,0,0,1-1.89-.54,3.64,3.64,0,0,1-.79-.77,7.84,7.84,0,0,1-1.09-2.19,16.08,16.08,0,0,0-1.35-2.7,2.17,2.17,0,0,0-1.35-1.08c-.16,0-.67-.06-1.89,1.08a35.79,35.79,0,0,0-3,3.51,7.41,7.41,0,0,1-.81.8c-.42.38-.63.57-.8.54s-.46-.4-.81-1.88a30.59,30.59,0,0,0-.81-3.24,3.42,3.42,0,0,0-.81-1.35,2.06,2.06,0,0,0-.81-.54c-1-.25-2.12,1.05-3.78,3-.75.87-.89,1.12-1.62,1.89-.35.36-1.29,1.33-1.61,1.61a4.57,4.57,0,0,0-.35.34l-.19.2c-.18.21-.23.28-.27.27s0-.89,0-1.88v-4.59a1.16,1.16,0,0,0,0-.27,1.18,1.18,0,0,0-.27-.54,1.64,1.64,0,0,0-1.89,0,.64.64,0,0,0-.27.27c-.08.18,0,.33,0,.81v9.17a1.83,1.83,0,0,0,0,.54,1,1,0,0,0,.27.54,1.11,1.11,0,0,0,.54.27c.31,0,.78,0,2.16-1.35.5-.48.8-.8.81-.81h0a41.09,41.09,0,0,0,4.31-4.85,5.38,5.38,0,0,1,.5-.55l.11-.1.2-.16a1.1,1.1,0,0,1,.54-.27c.3,0,.49.65.54.81.39,1.33.59,2,.81,3,.35,1.56.59,2.08,1.08,2.43a1.47,1.47,0,0,0,.54.27c1,.29,2-.53,2.69-1.08a11.84,11.84,0,0,0,2.16-2.43c.19-.27.49-.63,1.08-1.34.42-.51.71-.83,1.08-.81a.88.88,0,0,1,.54.27,2.82,2.82,0,0,1,.81,1.34c.31.87.18,1,.48,1.64a4.31,4.31,0,0,0,.6,1.06,5.07,5.07,0,0,0,.81.81,6.81,6.81,0,0,0,1.88,1.08,6.52,6.52,0,0,0,3.78,0,16.13,16.13,0,0,0,4-1.89c.78-.43,1.43-.81,1.88-1.08l.54-.27v26.7a7.79,7.79,0,0,1,0,1.08,1.17,1.17,0,0,0,0,.27,1.13,1.13,0,0,0,.27.54,1.22,1.22,0,0,0,1.62,0,1,1,0,0,0,.27-.54,1.27,1.27,0,0,0,0-.54v-24.27c.59.15,1.42.35,2.43.54a24.58,24.58,0,0,0,4.58.54,17.52,17.52,0,0,0,5.94-1.08,21.37,21.37,0,0,0,4.58-2.43c.59-.39.66-.45,1.55-1.08a10.9,10.9,0,0,0,1.42-1.08c.38-.36.54-.53.81-.8l.54-.54a.82.82,0,0,0,.27-.81A.74.74,0,0,0,838.91,1150.58Zm-13.76,4.85a6.39,6.39,0,0,1-4.85,1.08,6.3,6.3,0,0,1-2.16-.81c.5-1,1-1.83,1.35-2.43a8.28,8.28,0,0,1,1.62-2.15,4.31,4.31,0,0,1,2.15-1.08,3.3,3.3,0,0,1,2.7.54,2.91,2.91,0,0,1,1.08,2.16C827,1154.07,825.86,1154.9,825.15,1155.43Z"/></g></g></svg>