<svg xmlns="http://www.w3.org/2000/svg" xmlns:xlink="http://www.w3.org/1999/xlink" viewBox="0 0 419.53 595.28"><defs><style>.cls-1,.cls-3,.cls-37{fill:none;}.cls-2{fill:#f8f6df;}.cls-3{stroke:#f3dfc1;stroke-width:2px;}.cls-4{font-size:11px;font-family:MinionPro-Regular, Minion Pro;}.cls-5{letter-spacing:0em;}.cls-6{letter-spacing:0em;}.cls-7{letter-spacing:0em;}.cls-8{letter-spacing:0em;}.cls-9{letter-spacing:0em;}.cls-10{letter-spacing:-0.01em;}.cls-11{letter-spacing:-0.01em;}.cls-12{letter-spacing:0em;}.cls-13{letter-spacing:-0.01em;}.cls-14{letter-spacing:0em;}.cls-15{letter-spacing:-0.01em;}.cls-16{letter-spacing:-0.01em;}.cls-17{letter-spacing:0em;}.cls-18{letter-spacing:-0.02em;}.cls-19{letter-spacing:0.01em;}.cls-20{letter-spacing:-0.01em;}.cls-21{letter-spacing:-0.02em;}.cls-22{letter-spacing:0em;}.cls-23{letter-spacing:-0.01em;}.cls-24{letter-spacing:-0.01em;}.cls-25{letter-spacing:0.01em;}.cls-26{letter-spacing:-0.01em;}.cls-27{letter-spacing:0.01em;}.cls-28{letter-spacing:-0.01em;}.cls-29{letter-spacing:0.01em;}.cls-30{letter-spacing:-0.02em;}.cls-31{letter-spacing:-0.01em;}.cls-32{letter-spacing:0.03em;}.cls-33{letter-spacing:-0.02em;}.cls-34{letter-spacing:0em;}.cls-35{letter-spacing:0em;}.cls-36{clip-path:url(#clip-path);}.cls-37{stroke:#020203;stroke-width:0.5px;}.cls-38{letter-spacing:0em;}.cls-39{letter-spacing:-0.06em;}.cls-40{letter-spacing:0em;}.cls-41{letter-spacing:-0.01em;}.cls-42{letter-spacing:-0.01em;}.cls-43{letter-spacing:0em;}.cls-44{letter-spacing:0.01em;}.cls-45{letter-spacing:-0.01em;}.cls-46{letter-spacing:0em;}.cls-47{letter-spacing:0.01em;}.cls-48{letter-spacing:0em;}.cls-49{letter-spacing:-0.01em;}.cls-50{letter-spacing:0em;}.cls-51{letter-spacing:0.01em;}.cls-52{letter-spacing:0em;}.cls-53{letter-spacing:-0.01em;}.cls-54{letter-spacing:0em;}.cls-55{letter-spacing:-0.06em;}.cls-56{letter-spacing:0.01em;}.cls-57{letter-spacing:-0.01em;}.cls-58{letter-spacing:-0.01em;}.cls-59{letter-spacing:0em;}.cls-60{letter-spacing:-0.06em;}.cls-61{letter-spacing:-0.02em;}.cls-62{letter-spacing:-0.01em;}.cls-63{letter-spacing:-0.01em;}.cls-64{letter-spacing:-0.02em;}.cls-65{letter-spacing:0em;}.cls-66{letter-spacing:-0.01em;}.cls-67{letter-spacing:0em;}.cls-68{letter-spacing:0em;}.cls-69{letter-spacing:0.01em;}.cls-70{letter-spacing:-0.06em;}.cls-71{letter-spacing:0em;}.cls-72{letter-spacing:0.01em;}.cls-73{letter-spacing:0em;}.cls-74{letter-spacing:-0.01em;}.cls-75{letter-spacing:-0.01em;}.cls-76{letter-spacing:-0.01em;}.cls-77{letter-spacing:-0.06em;}.cls-78{letter-spacing:-0.01em;}.cls-79{letter-spacing:0em;}.cls-80{letter-spacing:0.01em;}.cls-81{letter-spacing:-0.01em;}.cls-82{letter-spacing:-0.01em;}.cls-83{letter-spacing:-0.02em;}.cls-84{letter-spacing:0em;}.cls-85{letter-spacing:-0.01em;}.cls-86{letter-spacing:-0.02em;}.cls-87{letter-spacing:-0.02em;}.cls-88{letter-spacing:0.01em;}.cls-89{letter-spacing:0.01em;}.cls-90{letter-spacing:0.03em;}.cls-91{letter-spacing:0.01em;}.cls-92{fill:#c79c6f;}.cls-93{fill:#9a7151;}.cls-94{fill:#020203;}.cls-95{fill:#fff;}.cls-96{fill:#de583e;}.cls-97{fill:#775432;}.cls-98{fill:#69472b;}.cls-99{font-size:40px;font-family:BrushScriptMT, Brush Script MT;}.cls-100{letter-spacing:-0.01em;}</style><clipPath id="clip-path" transform="translate(0 0)"><rect class="cls-1" width="419.53" height="595.28"/></clipPath></defs><g id="Layer_2" data-name="Layer 2"><g id="Layer_1-2" data-name="Layer 1"><rect class="cls-2" width="419.53" height="595.28"/><rect class="cls-3" x="20.55" y="23.62" width="375.59" height="549.92"/><path d="M58.16,102.77v-.48c1-.09,1.1-.17,1.1-1.26v-5c0-1.09-.13-1.2-1.1-1.28v-.48h4v.48c-1,.1-1.1.19-1.1,1.28v5c0,1.08.12,1.16,1.1,1.26v.48Zm8.27,0v-.44c.54-.08.58-.13.58-1V99.08c0-.92-.45-1.21-.91-1.21a1.57,1.57,0,0,0-1,.39v3.15c0,.79.05.84.58.92v.44h-3v-.44c.68-.12.76-.13.76-1V98.65c0-.78-.11-.82-.68-.93V97.3a13.77,13.77,0,0,0,2.38-.49c0,.18,0,.63,0,.93.26-.18.53-.37.83-.56a1.78,1.78,0,0,1,1-.33c1,0,1.72.76,1.72,2.09v2.46c0,.8.08.84.7.93v.44Zm6.16-1.89a3.64,3.64,0,0,1-.68-.07.66.66,0,0,0-.18.38c0,.21.25.48.74.48h1.47c.79,0,2,.32,2,1.6,0,1.47-1.79,2.64-3.52,2.64s-2.47-.84-2.47-1.55a.8.8,0,0,1,.39-.72l1-.65a1.84,1.84,0,0,1-1-.72,1.1,1.1,0,0,1-.21-.72,4.43,4.43,0,0,0,1.34-.87,1.86,1.86,0,0,1-1.28-1.77,2.29,2.29,0,0,1,2.53-2.06,3.19,3.19,0,0,1,1.46.33,9.73,9.73,0,0,0,1.8-.18l.06.11a1.55,1.55,0,0,1-.48.8c-.22,0-.58,0-.76-.06a1.61,1.61,0,0,1,.31,1.06C75.06,100.21,73.86,100.88,72.59,100.88Zm.15,2.15a1.79,1.79,0,0,0-1.18.25.94.94,0,0,0-.36.72c0,.68.65,1.22,1.76,1.22s1.63-.47,1.63-1.17a.9.9,0,0,0-.72-.9A4.16,4.16,0,0,0,72.74,103Zm-.14-5.69c-.4,0-.81.48-.81,1.43s.3,1.61.91,1.61.8-.53.8-1.47S73.22,97.34,72.6,97.34Zm7.24,5.43H76.41v-.44c.69-.08.75-.14.75-.92V98.56c0-.65,0-.71-.66-.84v-.41a12.19,12.19,0,0,0,2.34-.49v1.4c.59-.89,1-1.37,1.59-1.37a.78.78,0,0,1,.84.78,1.25,1.25,0,0,1-.66,1.1.36.36,0,0,1-.4-.06c-.23-.19-.39-.39-.62-.39s-.52.16-.75.66v2.47c0,.78.09.82,1,.92Zm7-1.27a3,3,0,0,1-2.38,1.43,2.65,2.65,0,0,1-2.73-2.83,3.4,3.4,0,0,1,1-2.34,2.88,2.88,0,0,1,2-.91A2.13,2.13,0,0,1,86.86,99c0,.23,0,.45-.17.49s-2.08.15-3.34.2c.05,1.38.82,2.08,1.76,2.08a2.26,2.26,0,0,0,1.48-.58Zm-2.36-4.12c-.52,0-1,.61-1,1.64L85,99c.18,0,.26,0,.26-.26C85.26,98.07,85,97.38,84.46,97.38Zm10,5.06a20.1,20.1,0,0,0-2.55.5v-.75c-.24.15-.56.35-.79.51a1.27,1.27,0,0,1-.65.23A2.8,2.8,0,0,1,87.8,100a3.38,3.38,0,0,1,3.6-3.19,3.81,3.81,0,0,1,.52,0V95.39c0-.69-.07-.75-.87-.86V94.1a18.07,18.07,0,0,0,2.56-.44v7.48c0,.7.08.76.57.83l.29,0Zm-2.55-4.36a1,1,0,0,0-1-.65c-.4,0-1.27.27-1.27,2.16,0,1.7,1,2.33,1.53,2.34a1.22,1.22,0,0,0,.72-.22Zm3,4.69v-.44c.71-.09.78-.14.78-1.06V98.73c0-.87-.06-.92-.67-1V97.3a13.77,13.77,0,0,0,2.35-.47v4.44c0,.88,0,1,.81,1.06v.44ZM96.49,96a1,1,0,0,1-.93-.92.93.93,0,0,1,1-.93.91.91,0,0,1,.93.93A.93.93,0,0,1,96.49,96ZM104,101.5a3,3,0,0,1-2.37,1.43,2.65,2.65,0,0,1-2.73-2.83,3.39,3.39,0,0,1,1-2.34,2.9,2.9,0,0,1,2-.91A2.12,2.12,0,0,1,104.07,99c0,.23,0,.45-.17.49s-2.08.15-3.34.2c.06,1.38.82,2.08,1.76,2.08a2.24,2.24,0,0,0,1.48-.58Zm-2.36-4.12c-.52,0-1,.61-1,1.64l1.57,0c.18,0,.26,0,.26-.26C102.47,98.07,102.18,97.38,101.67,97.38Zm6.91,5.39v-.44c.55-.08.59-.13.59-1V99.08c0-.92-.46-1.21-.91-1.21a1.62,1.62,0,0,0-1,.39v3.15c0,.79.06.84.59.92v.44h-3v-.44c.68-.12.76-.13.76-1V98.65c0-.78-.11-.82-.68-.93V97.3a13.77,13.77,0,0,0,2.38-.49c0,.18,0,.63,0,.93.26-.18.54-.37.84-.56a1.78,1.78,0,0,1,1-.33c1.05,0,1.72.76,1.72,2.09v2.46c0,.8.07.84.7.93v.44Zm7.25-4.08c-.34-.91-.78-1.32-1.4-1.32a.66.66,0,0,0-.68.68c0,.46.32.71,1,1,1,.46,1.76.91,1.76,1.93a2.13,2.13,0,0,1-2.36,1.94,4.27,4.27,0,0,1-1.65-.39c0-.3-.17-1.2-.21-1.65l.43-.08c.27.82.8,1.59,1.65,1.59a.66.66,0,0,0,.74-.68c0-.4-.19-.7-1-1.09s-1.69-.87-1.69-1.95.84-1.83,2.22-1.83a6.35,6.35,0,0,1,1.41.19c0,.35.15,1.18.2,1.53Zm6.66,2.81a3,3,0,0,1-2.38,1.43,2.65,2.65,0,0,1-2.73-2.83,3.4,3.4,0,0,1,1-2.34,2.88,2.88,0,0,1,2-.91A2.12,2.12,0,0,1,122.53,99c0,.23,0,.45-.17.49s-2.08.15-3.34.2c0,1.38.82,2.08,1.76,2.08a2.26,2.26,0,0,0,1.48-.58Zm-2.36-4.12c-.52,0-1,.61-1,1.64l1.57,0c.18,0,.26,0,.26-.26C120.93,98.07,120.63,97.38,120.13,97.38Zm6.61,5.39h-3.43v-.44c.69-.08.76-.14.76-.92V98.56c0-.65-.06-.71-.67-.84v-.41a12,12,0,0,0,2.34-.49v1.4c.59-.89,1.06-1.37,1.59-1.37a.78.78,0,0,1,.84.78,1.25,1.25,0,0,1-.66,1.1.36.36,0,0,1-.4-.06c-.22-.19-.39-.39-.61-.39s-.52.16-.76.66v2.47c0,.78.09.82,1,.92Z" transform="translate(0 0)"/><text class="cls-4" transform="translate(57.64 124.45)">350 g <tspan class="cls-5" x="25.98" y="0">m</tspan><tspan class="cls-6" x="34.95" y="0">e</tspan><tspan x="39.59" y="0">l</tspan></text><text class="cls-4" transform="translate(57.64 139.46)">1 t<tspan class="cls-7" x="11.13" y="0">s</tspan><tspan class="cls-8" x="15.14" y="0">k </tspan><tspan class="cls-9" x="23.09" y="0">b</tspan><tspan class="cls-10" x="28.72" y="0">a</tspan><tspan class="cls-11" x="33.49" y="0">g</tspan><tspan class="cls-12" x="38.56" y="0">e</tspan><tspan class="cls-13" x="43.24" y="0">p</tspan><tspan class="cls-14" x="48.89" y="0">u</tspan><tspan class="cls-15" x="54.79" y="0">l</tspan><tspan class="cls-16" x="57.51" y="0">v</tspan><tspan x="62.51" y="0">er</tspan></text><text class="cls-4" transform="translate(57.64 154.46)">1 t<tspan class="cls-7" x="11.13" y="0">s</tspan><tspan class="cls-8" x="15.14" y="0">k </tspan><tspan class="cls-17" x="23.09" y="0">n</tspan><tspan class="cls-18" x="29.08" y="0">a</tspan><tspan class="cls-19" x="33.7" y="0">t</tspan><tspan class="cls-20" x="37.11" y="0">ro</tspan><tspan x="46.54" y="0">n</tspan></text><text class="cls-4" transform="translate(57.64 169.46)">2 t<tspan class="cls-7" x="11.13" y="0">s</tspan><tspan class="cls-8" x="15.14" y="0">k </tspan><tspan class="cls-6" x="23.09" y="0">m</tspan><tspan class="cls-21" x="32.06" y="0">a</tspan><tspan x="36.7" y="0">j</tspan><tspan class="cls-22" x="39.51" y="0">ss</tspan><tspan class="cls-14" x="47.5" y="0">t</tspan><tspan class="cls-23" x="50.91" y="0">i</tspan><tspan class="cls-24" x="53.79" y="0">v</tspan><tspan class="cls-6" x="58.8" y="0">e</tspan><tspan class="cls-17" x="63.45" y="0">l</tspan><tspan class="cls-25" x="66.21" y="0">s</tspan><tspan x="70.33" y="0">e</tspan></text><path d="M58.84,184.47v-.3c1-.07,1-.16,1-.95V179c0-.57,0-.63-.52-.65l-.53,0v-.25a9.3,9.3,0,0,0,2-.58v5.74c0,.79.06.88,1.06.95v.3Zm9.11,0a1.12,1.12,0,0,1-.47.14c-.69,0-1.08-.44-1.08-1.31v-3.2h-.75L65.6,180l.3-.32h.5v-.8l.72-.73.15,0v1.5h1.25a.32.32,0,0,1-.07.43H67.27v2.83c0,.89.37,1.05.64,1.05a1.63,1.63,0,0,0,.68-.18l.1.28Zm4-3.5c-.2-.65-.59-1.09-1.13-1.09a.71.71,0,0,0-.71.76c0,.5.44.75.93,1,.83.34,1.39.73,1.39,1.49a1.66,1.66,0,0,1-1.82,1.52,2.21,2.21,0,0,1-1.26-.37,5.05,5.05,0,0,1-.18-1.3l.29-.06c.19.73.69,1.37,1.35,1.37a.77.77,0,0,0,.78-.77c0-.49-.32-.75-.87-1S69.4,181.8,69.4,181a1.52,1.52,0,0,1,1.67-1.42,2.52,2.52,0,0,1,1,.19,7.58,7.58,0,0,1,.24,1.17Zm4.9,3.53c-.51-.56-1.2-1.44-1.8-2.18-.15-.18-.25-.24-.35-.24l-.17,0v1.23c0,.72.1.79.8.85v.29H72.92v-.29c.73-.06.8-.15.8-.85v-5.21c0-.72-.06-.78-.73-.85V177a8.05,8.05,0,0,0,1.59-.38v5.18a1.19,1.19,0,0,0,.69-.39,9.31,9.31,0,0,0,.78-1c.22-.35.19-.43-.33-.49v-.28l2.25-.1v.27a2.13,2.13,0,0,0-1.42.65c-.28.28-.48.5-1,1,.22.33,1.33,1.62,1.71,2a1.49,1.49,0,0,0,1.1.6v.29Zm7.17,0v-.29c.62-.05.69-.12.69-.81v-2.7c0-.49,0-.58-.56-.58H82.7v3.28c0,.68.07.75.77.81v.29H81.06v-.29c.68-.07.78-.13.78-.81v-3.28h-.79L81,180l.31-.31h.54v-.26a2.6,2.6,0,0,1,.12-.85,2.81,2.81,0,0,1,2.27-1.91,1.47,1.47,0,0,1,1.16.52.43.43,0,0,1,.06.4,1,1,0,0,1-.25.28c-.13.07-.23.07-.31,0a1.57,1.57,0,0,0-1.15-.63.8.8,0,0,0-.68.38,3.1,3.1,0,0,0-.36,1.73v.37h.87a10.76,10.76,0,0,0,2.06-.14v3.85c0,.69.07.75.77.81v.29Zm6,0v-.29c.65-.06.72-.15.72-.91v-1.84c0-.76-.26-1.25-1-1.25a2,2,0,0,0-1.2.56v2.59c0,.74.07.79.72.85v.29H86.92v-.29c.75-.07.8-.13.8-.85v-2.28c0-.71-.06-.74-.66-.85V180a6.58,6.58,0,0,0,1.53-.45v.88c.22-.17.46-.33.74-.52a1.66,1.66,0,0,1,.91-.33c.87,0,1.42.62,1.42,1.67v2.13c0,.74.06.79.69.85v.29Zm4.87,0a1.09,1.09,0,0,1-.46.14c-.7,0-1.08-.44-1.08-1.31v-3.2h-.76l0-.11.3-.32h.51v-.8l.71-.73.16,0v1.5h1.24a.31.31,0,0,1-.07.43H94.27v2.83c0,.89.36,1.05.64,1.05a1.72,1.72,0,0,0,.68-.18l.1.28Zm6.64,0v-.29c.64-.06.73-.13.73-.84v-1.83c0-.9-.34-1.35-1.08-1.35a1.53,1.53,0,0,0-1.14.56v2.62c0,.7,0,.78.7.84v.29H98.46v-.29c.66-.05.76-.12.76-.84v-5.25c0-.69,0-.75-.75-.82V177a12.9,12.9,0,0,0,1.62-.38v3.69a2.42,2.42,0,0,1,1.57-.8c.89,0,1.52.56,1.52,1.88v1.93c0,.72.07.79.72.84v.29Zm6.35.13a.89.89,0,0,1-.52-.21,1.11,1.11,0,0,1-.26-.49,3.56,3.56,0,0,1-1.3.7,1.33,1.33,0,0,1-1.32-1.34,1.1,1.1,0,0,1,.89-1.09,8.63,8.63,0,0,0,1.71-.71v-.2c0-.79-.38-1.25-.93-1.25a.62.62,0,0,0-.49.22,1.51,1.51,0,0,0-.33.73.31.31,0,0,1-.32.25.54.54,0,0,1-.49-.47c0-.16.15-.29.36-.44a4.79,4.79,0,0,1,1.65-.77,1.42,1.42,0,0,1,.9.3,1.61,1.61,0,0,1,.49,1.34v2.05c0,.49.2.66.39.66a.79.79,0,0,0,.39-.13l.11.29Zm-.8-2.77c-.23.12-.76.35-1,.46-.43.2-.68.41-.68.8a.8.8,0,0,0,.79.85,1.64,1.64,0,0,0,.88-.39Zm6.85-1.89c-.57.07-.67.17-1,.83-.36.83-.94,2.18-1.55,3.82h-.3c-.49-1.32-1-2.57-1.52-3.85-.25-.64-.34-.71-.93-.8v-.28H111v.28c-.59.07-.61.16-.44.64.29.77.73,1.92,1,2.71.39-.91.74-1.91,1-2.63.16-.52.1-.65-.53-.72v-.28h2Zm3.08,1c-.21-.65-.6-1.09-1.13-1.09a.72.72,0,0,0-.72.76c0,.5.44.75.94,1,.82.34,1.38.73,1.38,1.49a1.65,1.65,0,0,1-1.81,1.52,2.28,2.28,0,0,1-1.27-.37,5.12,5.12,0,0,1-.17-1.3l.28-.06c.2.73.69,1.37,1.35,1.37a.77.77,0,0,0,.79-.77c0-.49-.32-.75-.87-1s-1.38-.67-1.38-1.52a1.52,1.52,0,0,1,1.67-1.42,2.48,2.48,0,0,1,1,.19,9,9,0,0,1,.25,1.17Zm4.7,3.64a.89.89,0,0,1-.52-.21,1.11,1.11,0,0,1-.26-.49,3.56,3.56,0,0,1-1.3.7,1.33,1.33,0,0,1-1.32-1.34,1.09,1.09,0,0,1,.89-1.09,8.24,8.24,0,0,0,1.7-.71v-.2c0-.79-.37-1.25-.92-1.25a.64.64,0,0,0-.5.22,1.72,1.72,0,0,0-.33.73.3.3,0,0,1-.32.25.54.54,0,0,1-.48-.47c0-.16.14-.29.35-.44a5,5,0,0,1,1.65-.77,1.46,1.46,0,0,1,.91.3,1.61,1.61,0,0,1,.49,1.34v2.05c0,.49.2.66.39.66a.79.79,0,0,0,.39-.13l.11.29Zm-.81-2.77c-.23.12-.76.35-1,.46-.43.2-.67.41-.67.8a.8.8,0,0,0,.78.85,1.6,1.6,0,0,0,.88-.39Zm2,2.64v-.29c.69-.06.79-.13.79-.85v-5.21c0-.75-.07-.78-.76-.83V177a8.36,8.36,0,0,0,1.63-.38v6.69c0,.72.09.79.79.85v.29Zm5,0a1.05,1.05,0,0,1-.46.14c-.69,0-1.08-.44-1.08-1.31v-3.2h-.76l0-.11.3-.32h.5v-.8l.72-.73.15,0v1.5h1.25a.33.33,0,0,1-.07.43h-1.18v2.83c0,.89.36,1.05.64,1.05a1.63,1.63,0,0,0,.68-.18l.1.28Z" transform="translate(0 0)"/><text class="cls-4" transform="translate(57.64 199.47)">250 g <tspan class="cls-26" x="25.98" y="0">b</tspan><tspan class="cls-27" x="31.44" y="0">r</tspan><tspan x="35.62" y="0">un f</tspan><tspan class="cls-28" x="53.23" y="0">a</tspan><tspan class="cls-29" x="57.97" y="0">r</tspan><tspan x="62.12" y="0">in</tspan></text><path d="M64.18,228.15a3.65,3.65,0,0,0-.57-1.22c-.28-.29-.45-.34-1.07-.34h-1c-.44,0-.49,0-.49.47v2.83h1.39c.77,0,.87-.19,1.07-1.1H64v2.88h-.5c-.14-.88-.33-1.1-1-1.1H61.07v2c0,1.19.08,1.28,1.25,1.36v.48H58.16V234c1-.09,1.1-.17,1.1-1.36v-4.79c0-1.15-.11-1.26-1.1-1.34V226h4.4c1.12,0,1.77,0,2,0,0,.22.08,1.34.14,2.1Zm4.25,6.29H65V234c.68-.08.75-.14.75-.92v-2.85c0-.65,0-.71-.66-.84V229a12.35,12.35,0,0,0,2.34-.49v1.4c.58-.89,1-1.38,1.58-1.38a.8.8,0,0,1,.85.78,1.26,1.26,0,0,1-.67,1.11.35.35,0,0,1-.4-.07c-.22-.18-.39-.39-.61-.39s-.52.17-.75.67v2.47c0,.78.09.82,1,.92Zm7-1.27A3,3,0,0,1,73,234.6a2.66,2.66,0,0,1-2.73-2.84,3.45,3.45,0,0,1,1-2.34,3,3,0,0,1,2-.91,2.14,2.14,0,0,1,2.15,2.12c0,.22,0,.45-.17.48s-2.08.16-3.34.21c0,1.38.82,2.08,1.75,2.08a2.22,2.22,0,0,0,1.48-.58ZM73,229.05c-.52,0-1,.61-1,1.64l1.58,0c.18,0,.26,0,.26-.26C73.85,229.74,73.55,229.05,73,229.05Zm10.35,5.39V234c.52-.08.61-.13.61-.92v-2.25c0-1.08-.5-1.28-.91-1.28a1.46,1.46,0,0,0-1,.41c0,.15,0,.35,0,.54v2.63c0,.73,0,.79.63.87v.44H79.87V234c.57-.08.62-.12.62-.87v-2.37c0-.92-.36-1.22-.84-1.22a1.63,1.63,0,0,0-1,.39v3.2c0,.73.07.79.55.87v.44h-3V234c.71-.09.75-.14.75-.92v-2.76c0-.73,0-.84-.62-.93V229a14.3,14.3,0,0,0,2.29-.49v1c.28-.19.52-.36.79-.53a2,2,0,0,1,1.1-.41,1.5,1.5,0,0,1,1.46,1c.31-.23.57-.41.9-.63a1.91,1.91,0,0,1,1-.36c1.13,0,1.73.77,1.73,2.1v2.52c0,.71.06.77.7.87v.44Zm6.16-1.9a3.66,3.66,0,0,1-.68-.06.73.73,0,0,0-.18.38c0,.2.25.48.75.48H90.9c.8,0,2,.32,2,1.6,0,1.47-1.8,2.64-3.53,2.64s-2.47-.84-2.47-1.55a.82.82,0,0,1,.39-.72l1-.65a1.87,1.87,0,0,1-1-.72,1.23,1.23,0,0,1-.21-.72,4.31,4.31,0,0,0,1.34-.87,1.85,1.85,0,0,1-1.27-1.77,2.29,2.29,0,0,1,2.52-2.07,3.21,3.21,0,0,1,1.47.34,9.53,9.53,0,0,0,1.79-.18l.07.1a1.68,1.68,0,0,1-.48.81c-.22,0-.59-.05-.77-.06a1.56,1.56,0,0,1,.31,1.06C92,231.88,90.83,232.54,89.55,232.54Zm.16,2.16a1.77,1.77,0,0,0-1.18.25.92.92,0,0,0-.37.71c0,.69.65,1.23,1.77,1.23s1.62-.47,1.62-1.17a.9.9,0,0,0-.71-.9A4.16,4.16,0,0,0,89.71,234.7ZM89.57,229c-.41,0-.81.48-.81,1.43s.3,1.61.91,1.61.79-.53.79-1.47S90.19,229,89.57,229Zm8,5.59a1.24,1.24,0,0,1-.81-.27,1.41,1.41,0,0,1-.34-.49,4.66,4.66,0,0,1-1.38.76,1.71,1.71,0,0,1-1.76-1.68c0-.69.31-1,1-1.27a11.34,11.34,0,0,0,2.09-.86v-.57c0-.68-.25-1.06-.81-1.06a.66.66,0,0,0-.52.26,2.8,2.8,0,0,0-.31.86.51.51,0,0,1-.56.44.79.79,0,0,1-.76-.67c0-.24.15-.4.45-.61a6.53,6.53,0,0,1,2.08-.93,2.29,2.29,0,0,1,1.34.38,1.77,1.77,0,0,1,.72,1.6v2.25c0,.62.2.78.41.78a1,1,0,0,0,.4-.1l.15.44Zm-1.2-3.28-.73.41a.93.93,0,0,0-.63.88.88.88,0,0,0,.79,1,.75.75,0,0,0,.57-.21Zm6.76,3.12V234c.55-.08.59-.13.59-1v-2.22c0-.92-.46-1.21-.91-1.21a1.6,1.6,0,0,0-1,.39v3.15c0,.79.05.84.59.92v.44h-3V234c.68-.12.75-.13.75-1v-2.71c0-.78-.1-.82-.67-.93V229a14,14,0,0,0,2.38-.49c0,.18,0,.63,0,.93.26-.18.53-.38.83-.56a1.83,1.83,0,0,1,1-.34c1,0,1.71.77,1.71,2.1v2.45c0,.81.08.85.7.94v.44Zm6.16-1.9a3.66,3.66,0,0,1-.68-.06.73.73,0,0,0-.18.38c0,.2.25.48.74.48h1.47c.8,0,2,.32,2,1.6,0,1.47-1.79,2.64-3.52,2.64s-2.47-.84-2.47-1.55a.82.82,0,0,1,.39-.72l1-.65a1.87,1.87,0,0,1-1-.72,1.16,1.16,0,0,1-.21-.72,4.31,4.31,0,0,0,1.34-.87,1.85,1.85,0,0,1-1.27-1.77,2.29,2.29,0,0,1,2.52-2.07,3.21,3.21,0,0,1,1.47.34,9.62,9.62,0,0,0,1.79-.18l.07.1a1.68,1.68,0,0,1-.48.81c-.22,0-.59-.05-.77-.06a1.61,1.61,0,0,1,.31,1.06C111.78,231.88,110.59,232.54,109.31,232.54Zm.16,2.16a1.8,1.8,0,0,0-1.19.25.94.94,0,0,0-.36.71c0,.69.65,1.23,1.77,1.23s1.62-.47,1.62-1.17a.9.9,0,0,0-.71-.9A4.16,4.16,0,0,0,109.47,234.7Zm-.15-5.69c-.4,0-.8.48-.8,1.43s.3,1.61.91,1.61.79-.53.79-1.47S110,229,109.32,229Zm7.34,1.35c-.34-.91-.78-1.33-1.39-1.33a.67.67,0,0,0-.69.69c0,.46.32.71,1,1,1,.47,1.77.91,1.77,1.94A2.14,2.14,0,0,1,115,234.6a4.27,4.27,0,0,1-1.65-.39c0-.3-.17-1.2-.21-1.65l.43-.08c.27.82.81,1.59,1.65,1.59a.66.66,0,0,0,.74-.68c0-.4-.19-.7-1-1.09s-1.69-.87-1.69-2a2,2,0,0,1,2.22-1.84,5.71,5.71,0,0,1,1.41.2c0,.35.15,1.18.21,1.53Zm8.62,4.08V234c.52-.08.61-.13.61-.92v-2.25c0-1.08-.51-1.28-.91-1.28a1.5,1.5,0,0,0-1,.41,4.39,4.39,0,0,1,0,.54v2.63c0,.73,0,.79.64.87v.44h-2.93V234c.57-.08.63-.12.63-.87v-2.37c0-.92-.37-1.22-.85-1.22a1.65,1.65,0,0,0-1,.39v3.2c0,.73.08.79.56.87v.44h-3V234c.72-.09.76-.14.76-.92v-2.76c0-.73,0-.84-.63-.93V229a14.3,14.3,0,0,0,2.29-.49v1c.29-.19.52-.36.79-.53a2.08,2.08,0,0,1,1.11-.41,1.48,1.48,0,0,1,1.45,1l.9-.63a1.94,1.94,0,0,1,1-.36c1.13,0,1.73.77,1.73,2.1v2.52c0,.71.07.77.7.87v.44Zm7.89.16a1.24,1.24,0,0,1-.81-.27,1.41,1.41,0,0,1-.34-.49,4.66,4.66,0,0,1-1.38.76,1.71,1.71,0,0,1-1.76-1.68c0-.69.31-1,1-1.27a11.34,11.34,0,0,0,2.09-.86v-.57c0-.68-.25-1.06-.81-1.06a.66.66,0,0,0-.52.26,2.8,2.8,0,0,0-.31.86.51.51,0,0,1-.56.44.79.79,0,0,1-.76-.67c0-.24.15-.4.45-.61a6.53,6.53,0,0,1,2.08-.93,2.29,2.29,0,0,1,1.34.38,1.77,1.77,0,0,1,.72,1.6v2.25c0,.62.2.78.41.78a1,1,0,0,0,.4-.1l.15.44Zm-1.75-6.67a1.2,1.2,0,0,1-1.23-1.22,1.22,1.22,0,0,1,1.26-1.2,1.17,1.17,0,0,1,1.22,1.2A1.19,1.19,0,0,1,131.42,227.93Zm.55,3.39-.73.41a.93.93,0,0,0-.63.88.88.88,0,0,0,.79,1,.75.75,0,0,0,.57-.21Zm-.52-3.88c.35,0,.57-.28.57-.73s-.22-.69-.58-.69-.6.26-.6.7A.64.64,0,0,0,131.45,227.44Zm10.23,6.66a23.29,23.29,0,0,0-2.55.51v-.75l-.79.5a1.19,1.19,0,0,1-.65.24,2.81,2.81,0,0,1-2.68-2.89,3.39,3.39,0,0,1,3.6-3.2,2.81,2.81,0,0,1,.52,0v-1.49c0-.69-.06-.76-.87-.86v-.43a18.07,18.07,0,0,0,2.56-.44v7.47c0,.71.08.77.58.84l.28,0Zm-2.55-4.35a1,1,0,0,0-1-.65c-.4,0-1.28.27-1.28,2.16,0,1.7,1,2.32,1.54,2.34a1.19,1.19,0,0,0,.71-.22Zm8.28,3.42A3,3,0,0,1,145,234.6a2.65,2.65,0,0,1-2.73-2.84,3.41,3.41,0,0,1,1-2.34,2.94,2.94,0,0,1,2-.91,2.13,2.13,0,0,1,2.14,2.12c0,.22,0,.45-.17.48s-2.08.16-3.34.21c.06,1.38.82,2.08,1.76,2.08a2.24,2.24,0,0,0,1.48-.58Zm-2.36-4.12c-.52,0-1,.61-1,1.64l1.57,0c.18,0,.26,0,.26-.26C145.85,229.74,145.56,229.05,145.05,229.05Z" transform="translate(0 0)"/><text class="cls-4" transform="translate(57.64 255.18)"><tspan class="cls-30">F</tspan><tspan class="cls-31" x="5.62" y="0">o</tspan><tspan class="cls-32" x="11.11" y="0">r</tspan><tspan x="15.51" y="0">v</tspan><tspan class="cls-16" x="20.6" y="0">a</tspan><tspan class="cls-29" x="25.34" y="0">r</tspan><tspan x="29.49" y="0">m </tspan><tspan class="cls-33" x="41" y="0">o</tspan><tspan class="cls-34" x="46.43" y="0">v</tspan><tspan class="cls-6" x="51.54" y="0">n</tspan><tspan x="57.53" y="0">en </tspan><tspan class="cls-9" x="70.72" y="0">t</tspan><tspan class="cls-19" x="74.12" y="0">i</tspan><tspan x="77.12" y="0">l 175 C </tspan><tspan class="cls-9" x="110.55" y="0">a</tspan><tspan x="115.42" y="0">lmi</tspan><tspan class="cls-7" x="130.16" y="0">n</tspan><tspan x="136.14" y="0">d</tspan><tspan class="cls-7" x="141.95" y="0">e</tspan><tspan class="cls-12" x="146.59" y="0">lig </tspan><tspan class="cls-33" x="159.97" y="0">o</tspan><tspan class="cls-35" x="165.4" y="0">v</tspan><tspan x="170.53" y="0">n</tspan></text><g class="cls-36"><path class="cls-37" d="M157.31,249.84a.92.92,0,1,0-.92-.92A.92.92,0,0,0,157.31,249.84Z" transform="translate(0 0)"/></g><text class="cls-4" transform="translate(57.64 277.85)"><tspan class="cls-38">B</tspan><tspan class="cls-35" x="6.41" y="0">l</tspan><tspan class="cls-28" x="9.23" y="0">a</tspan><tspan class="cls-7" x="13.97" y="0">n</tspan><tspan x="19.95" y="0">d </tspan><tspan class="cls-7" x="28.26" y="0">me</tspan><tspan class="cls-23" x="41.88" y="0">l</tspan><tspan x="44.59" y="0">, </tspan><tspan class="cls-19" x="49.6" y="0">b</tspan><tspan class="cls-10" x="55.24" y="0">a</tspan><tspan class="cls-11" x="60.02" y="0">g</tspan><tspan x="65.09" y="0">e</tspan><tspan class="cls-13" x="69.76" y="0">p</tspan><tspan class="cls-19" x="75.41" y="0">u</tspan><tspan class="cls-23" x="81.31" y="0">l</tspan><tspan class="cls-24" x="84.03" y="0">v</tspan><tspan x="89.04" y="0">e</tspan><tspan class="cls-39" x="93.72" y="0">r</tspan><tspan x="97.12" y="0">, </tspan><tspan class="cls-40" x="102.12" y="0">n</tspan><tspan class="cls-30" x="108.12" y="0">a</tspan><tspan class="cls-9" x="112.75" y="0">t</tspan><tspan class="cls-41" x="116.15" y="0">r</tspan><tspan class="cls-42" x="120.08" y="0">o</tspan><tspan class="cls-8" x="125.57" y="0">n, </tspan><tspan class="cls-6" x="136.6" y="0">m</tspan><tspan class="cls-21" x="145.57" y="0">a</tspan><tspan x="150.2" y="0">j</tspan><tspan class="cls-43" x="153.02" y="0">ss</tspan><tspan class="cls-44" x="161" y="0">t</tspan><tspan class="cls-45" x="164.41" y="0">i</tspan><tspan class="cls-11" x="167.3" y="0">v</tspan><tspan class="cls-7" x="172.31" y="0">e</tspan><tspan class="cls-46" x="176.95" y="0">l</tspan><tspan class="cls-47" x="179.71" y="0">s</tspan><tspan class="cls-48" x="183.84" y="0">e og </tspan><tspan class="cls-14" x="204.27" y="0">s</tspan><tspan class="cls-9" x="208.36" y="0">a</tspan><tspan class="cls-31" x="213.23" y="0">l</tspan><tspan x="215.89" y="0">t i en </tspan><tspan class="cls-5" x="240.38" y="0">m</tspan><tspan class="cls-7" x="249.34" y="0">e</tspan><tspan class="cls-14" x="253.98" y="0">l</tspan><tspan x="256.82" y="0">le</tspan><tspan class="cls-11" x="264.28" y="0">m</tspan><tspan class="cls-5" x="273.21" y="0">s</tspan><tspan class="cls-38" x="277.21" y="0">t</tspan><tspan class="cls-49" x="280.5" y="0">o</tspan><tspan x="285.98" y="0">r </tspan></text><text class="cls-4" transform="translate(57.64 291.05)"><tspan class="cls-7">s</tspan><tspan x="4" y="0">k</tspan><tspan class="cls-50" x="9.46" y="0">å</tspan><tspan class="cls-12" x="14.33" y="0">l</tspan></text><text class="cls-4" transform="translate(57.64 314.28)">En en <tspan class="cls-28" x="27.95" y="0">a</tspan><tspan class="cls-5" x="32.69" y="0">n</tspan><tspan x="38.66" y="0">den </tspan><tspan class="cls-22" x="57.66" y="0">s</tspan><tspan x="61.65" y="0">k</tspan><tspan class="cls-9" x="67.11" y="0">å</tspan><tspan x="71.98" y="0">l (</tspan><tspan class="cls-51" x="81.07" y="0">e</tspan><tspan x="85.83" y="0">vt </tspan><tspan class="cls-41" x="96.78" y="0">r</tspan><tspan class="cls-31" x="100.71" y="0">ø</tspan><tspan class="cls-20" x="106.24" y="0">r</tspan><tspan x="110.18" y="0">e</tspan><tspan class="cls-17" x="114.86" y="0">m</tspan><tspan class="cls-6" x="123.85" y="0">as</tspan><tspan class="cls-50" x="132.65" y="0">k</tspan><tspan class="cls-12" x="138.15" y="0">i</tspan><tspan class="cls-7" x="141.09" y="0">n</tspan><tspan class="cls-8" x="147.08" y="0">e) </tspan><tspan class="cls-45" x="158.06" y="0">b</tspan><tspan class="cls-52" x="163.58" y="0">l</tspan><tspan class="cls-53" x="166.38" y="0">a</tspan><tspan class="cls-54" x="171.12" y="0">n</tspan><tspan x="177.1" y="0">des s</tspan><tspan class="cls-5" x="198.15" y="0">m</tspan><tspan class="cls-31" x="207.12" y="0">ø</tspan><tspan class="cls-55" x="212.64" y="0">r</tspan><tspan x="216.04" y="0">, c</tspan><tspan class="cls-49" x="225.69" y="0">r</tspan><tspan class="cls-44" x="229.64" y="0">e</tspan><tspan class="cls-16" x="234.37" y="0">a</tspan><tspan x="239.11" y="0">m </tspan><tspan class="cls-38" x="250.62" y="0">c</tspan><tspan class="cls-7" x="255.22" y="0">h</tspan><tspan class="cls-14" x="261.06" y="0">e</tspan><tspan x="265.79" y="0">e</tspan><tspan class="cls-25" x="270.46" y="0">s</tspan><tspan class="cls-38" x="274.59" y="0">e</tspan><tspan x="279.21" y="0">, </tspan></text><text class="cls-4" transform="translate(57.64 327.48)"><tspan class="cls-31">b</tspan><tspan class="cls-56" x="5.47" y="0">r</tspan><tspan x="9.66" y="0">un f</tspan><tspan class="cls-28" x="27.27" y="0">a</tspan><tspan class="cls-14" x="32.01" y="0">r</tspan><tspan class="cls-12" x="36.15" y="0">in og </tspan><tspan class="cls-14" x="60.86" y="0">a</tspan><tspan x="65.75" y="0">lm. </tspan><tspan class="cls-10" x="82.54" y="0">s</tspan><tspan class="cls-19" x="86.52" y="0">u</tspan><tspan class="cls-27" x="92.42" y="0">k</tspan><tspan class="cls-16" x="97.97" y="0">k</tspan><tspan x="103.34" y="0">er i</tspan><tspan class="cls-5" x="117.54" y="0">n</tspan><tspan class="cls-26" x="123.52" y="0">d</tspan><tspan class="cls-14" x="129.19" y="0">ti</tspan><tspan x="135.6" y="0">l </tspan><tspan class="cls-23" x="140.88" y="0">b</tspan><tspan class="cls-35" x="146.41" y="0">l</tspan><tspan class="cls-57" x="149.22" y="0">a</tspan><tspan class="cls-7" x="153.96" y="0">n</tspan><tspan class="cls-48" x="159.95" y="0">di</tspan><tspan class="cls-58" x="168.7" y="0">n</tspan><tspan class="cls-11" x="174.63" y="0">g</tspan><tspan x="179.7" y="0">en er </tspan><tspan class="cls-11" x="204.14" y="0">l</tspan><tspan x="206.85" y="0">ys og c</tspan><tspan class="cls-26" x="236.34" y="0">r</tspan><tspan x="240.29" y="0">e</tspan><tspan class="cls-5" x="244.96" y="0">m</tspan><tspan x="253.93" y="0">et - ci</tspan><tspan class="cls-5" x="278.47" y="0">r</tspan><tspan class="cls-59" x="282.51" y="0">ka </tspan></text><text class="cls-4" transform="translate(57.64 340.68)">2 mi<tspan class="cls-30" x="19.73" y="0">n</tspan><tspan class="cls-31" x="25.55" y="0">u</tspan><tspan class="cls-13" x="31.27" y="0">t</tspan><tspan class="cls-45" x="34.52" y="0">t</tspan><tspan x="37.81" y="0">e</tspan><tspan class="cls-60" x="42.48" y="0">r</tspan><tspan x="45.87" y="0">. </tspan><tspan class="cls-61" x="50.87" y="0">T</tspan><tspan class="cls-19" x="57.5" y="0">i</tspan><tspan class="cls-12" x="60.5" y="0">l</tspan><tspan class="cls-28" x="63.28" y="0">f</tspan><tspan class="cls-13" x="66.45" y="0">ø</tspan><tspan x="71.98" y="0">j v</tspan><tspan class="cls-28" x="82.39" y="0">a</tspan><tspan x="87.13" y="0">n</tspan><tspan class="cls-19" x="93.15" y="0">i</tspan><tspan class="cls-31" x="96.15" y="0">l</tspan><tspan class="cls-19" x="98.81" y="0">j</tspan><tspan x="101.68" y="0">e og æ</tspan><tspan class="cls-14" x="129.49" y="0">g</tspan><tspan class="cls-11" x="134.69" y="0">g</tspan><tspan x="139.76" y="0">e</tspan><tspan class="cls-7" x="144.44" y="0">n</tspan><tspan class="cls-12" x="150.42" y="0">e ét ad g</tspan><tspan class="cls-62" x="186.4" y="0">a</tspan><tspan class="cls-11" x="191.13" y="0">ng</tspan><tspan x="202.14" y="0">en - der </tspan><tspan class="cls-26" x="238.8" y="0">p</tspan><tspan class="cls-40" x="244.44" y="0">i</tspan><tspan class="cls-7" x="247.36" y="0">s</tspan><tspan class="cls-16" x="251.37" y="0">k</tspan><tspan x="256.73" y="0">es </tspan><tspan class="cls-63" x="267.94" y="0">g</tspan><tspan class="cls-27" x="273.01" y="0">o</tspan><tspan class="cls-26" x="278.72" y="0">d</tspan><tspan x="284.4" y="0">t </tspan></text><text class="cls-4" transform="translate(57.64 353.88)"><tspan class="cls-6">me</tspan><tspan class="cls-19" x="13.62" y="0">l</tspan><tspan x="16.46" y="0">lem </tspan><tspan class="cls-64" x="35.42" y="0">h</tspan><tspan class="cls-24" x="41.04" y="0">v</tspan><tspan x="46.06" y="0">e</tspan><tspan class="cls-56" x="50.73" y="0">r</tspan><tspan x="54.92" y="0">t </tspan><tspan class="cls-19" x="60.77" y="0">t</tspan><tspan class="cls-9" x="64.18" y="0">i</tspan><tspan class="cls-12" x="67.18" y="0">l</tspan><tspan class="cls-28" x="69.96" y="0">f</tspan><tspan class="cls-13" x="73.13" y="0">ø</tspan><tspan class="cls-14" x="78.66" y="0">j</tspan><tspan x="81.53" y="0">et æg</tspan></text><text class="cls-4" transform="translate(57.64 376.63)"><tspan class="cls-16">G</tspan><tspan x="7.78" y="0">ra</tspan><tspan class="cls-24" x="16.69" y="0">d</tspan><tspan class="cls-35" x="22.42" y="0">v</tspan><tspan class="cls-17" x="27.54" y="0">i</tspan><tspan class="cls-22" x="30.47" y="0">s</tspan><tspan x="34.46" y="0">t </tspan><tspan class="cls-14" x="40.31" y="0">t</tspan><tspan class="cls-65" x="43.72" y="0">i</tspan><tspan x="46.72" y="0">l</tspan><tspan class="cls-16" x="49.5" y="0">f</tspan><tspan class="cls-66" x="52.67" y="0">ø</tspan><tspan class="cls-19" x="58.2" y="0">j</tspan><tspan x="61.07" y="0">es </tspan><tspan class="cls-6" x="72.28" y="0">m</tspan><tspan class="cls-5" x="81.26" y="0">e</tspan><tspan x="85.89" y="0">l-</tspan><tspan class="cls-11" x="92.58" y="0">b</tspan><tspan class="cls-35" x="98.1" y="0">l</tspan><tspan class="cls-16" x="100.91" y="0">a</tspan><tspan class="cls-7" x="105.65" y="0">n</tspan><tspan class="cls-8" x="111.64" y="0">di</tspan><tspan class="cls-28" x="120.39" y="0">n</tspan><tspan class="cls-11" x="126.32" y="0">g</tspan><tspan class="cls-12" x="131.39" y="0">en og </tspan><tspan class="cls-9" x="157.84" y="0">t</tspan><tspan class="cls-14" x="161.23" y="0">i</tspan><tspan x="164.24" y="0">l si</tspan><tspan class="cls-67" x="176.5" y="0">d</tspan><tspan class="cls-43" x="182.28" y="0">s</tspan><tspan class="cls-48" x="186.27" y="0">t </tspan><tspan class="cls-45" x="192.12" y="0">b</tspan><tspan class="cls-68" x="197.64" y="0">l</tspan><tspan class="cls-16" x="200.45" y="0">a</tspan><tspan class="cls-5" x="205.19" y="0">n</tspan><tspan class="cls-48" x="211.16" y="0">des det </tspan><tspan class="cls-7" x="244.51" y="0">h</tspan><tspan class="cls-9" x="250.35" y="0">a</tspan><tspan class="cls-27" x="255.23" y="0">k</tspan><tspan class="cls-16" x="260.78" y="0">k</tspan><tspan class="cls-9" x="266.15" y="0">e</tspan><tspan class="cls-48" x="270.87" y="0">de </tspan></text><text class="cls-4" transform="translate(57.64 389.83)"><tspan class="cls-10">c</tspan><tspan class="cls-6" x="4.6" y="0">h</tspan><tspan class="cls-11" x="10.44" y="0">o</tspan><tspan class="cls-16" x="15.97" y="0">k</tspan><tspan class="cls-11" x="21.34" y="0">o</tspan><tspan class="cls-35" x="26.87" y="0">l</tspan><tspan x="29.69" y="0">ade i</tspan></text><text class="cls-4" transform="translate(57.64 413.06)"><tspan class="cls-64">K</tspan><tspan class="cls-45" x="7.15" y="0">ø</tspan><tspan class="cls-12" x="12.73" y="0">l </tspan><tspan class="cls-11" x="18.01" y="0">g</tspan><tspan class="cls-12" x="23.08" y="0">e</tspan><tspan class="cls-14" x="27.75" y="0">r</tspan><tspan class="cls-7" x="31.89" y="0">n</tspan><tspan x="37.87" y="0">e de</tspan><tspan class="cls-9" x="55.53" y="0">j</tspan><tspan x="58.39" y="0">en i 2 </tspan><tspan class="cls-9" x="84.8" y="0">t</tspan><tspan x="88.2" y="0">i</tspan><tspan class="cls-6" x="91.14" y="0">m</tspan><tspan x="100.12" y="0">er (</tspan><tspan class="cls-7" x="115.18" y="0">m</tspan><tspan x="124.15" y="0">ax. 72 </tspan><tspan class="cls-44" x="152.24" y="0">t</tspan><tspan class="cls-59" x="155.65" y="0">i</tspan><tspan class="cls-67" x="158.59" y="0">m</tspan><tspan x="167.57" y="0">er) i</tspan><tspan class="cls-54" x="185.58" y="0">n</tspan><tspan x="191.55" y="0">den den i</tspan><tspan class="cls-16" x="232.49" y="0">g</tspan><tspan x="237.55" y="0">en </tspan><tspan class="cls-69" x="250.74" y="0">t</tspan><tspan class="cls-5" x="254.16" y="0">a</tspan><tspan class="cls-11" x="258.95" y="0">g</tspan><tspan class="cls-48" x="264.02" y="0">es ud </tspan></text><text class="cls-4" transform="translate(57.64 426.26)">og <tspan class="cls-28" x="13.25" y="0">f</tspan><tspan class="cls-42" x="16.42" y="0">o</tspan><tspan class="cls-29" x="21.91" y="0">r</tspan><tspan class="cls-7" x="26.06" y="0">m</tspan><tspan x="35.03" y="0">es </tspan><tspan class="cls-9" x="46.24" y="0">t</tspan><tspan class="cls-19" x="49.64" y="0">i</tspan><tspan class="cls-12" x="52.64" y="0">l </tspan><tspan class="cls-52" x="57.92" y="0">‘</tspan><tspan class="cls-25" x="60.41" y="0">b</tspan><tspan class="cls-23" x="66.09" y="0">o</tspan><tspan x="71.63" y="0">ld</tspan><tspan class="cls-70" x="80.22" y="0">e</tspan><tspan x="84.27" y="0">’ </tspan><tspan class="cls-19" x="89.22" y="0">p</tspan><tspan x="95.04" y="0">å ci</tspan><tspan class="cls-22" x="109.96" y="0">r</tspan><tspan x="114" y="0">ka 2 </tspan><tspan class="cls-5" x="134.56" y="0">s</tspan><tspan class="cls-31" x="138.55" y="0">p</tspan><tspan class="cls-46" x="144.2" y="0">i</tspan><tspan class="cls-25" x="147.12" y="0">s</tspan><tspan x="151.25" y="0">e</tspan><tspan class="cls-5" x="155.92" y="0">s</tspan><tspan class="cls-16" x="159.91" y="0">k</tspan><tspan class="cls-14" x="165.28" y="0">e</tspan><tspan x="170.01" y="0">e</tspan><tspan class="cls-38" x="174.69" y="0">r</tspan><tspan class="cls-59" x="178.71" y="0">s </tspan><tspan class="cls-5" x="185.25" y="0">s</tspan><tspan class="cls-38" x="189.24" y="0">t</tspan><tspan class="cls-31" x="192.54" y="0">ø</tspan><tspan class="cls-14" x="198.06" y="0">r</tspan><tspan class="cls-26" x="202.2" y="0">r</tspan><tspan class="cls-7" x="206.15" y="0">e</tspan><tspan class="cls-40" x="210.79" y="0">l</tspan><tspan class="cls-25" x="213.55" y="0">s</tspan><tspan x="217.67" y="0">e - </tspan><tspan class="cls-71" x="231.26" y="0">l</tspan><tspan x="234.07" y="0">ad </tspan><tspan class="cls-58" x="247.21" y="0">g</tspan><tspan x="252.27" y="0">e</tspan><tspan class="cls-72" x="256.94" y="0">r</tspan><tspan class="cls-5" x="261.09" y="0">n</tspan><tspan class="cls-48" x="267.06" y="0">e de</tspan><tspan class="cls-73" x="284.72" y="0">j</tspan><tspan x="287.58" y="0">en </tspan></text><text class="cls-4" transform="translate(57.64 439.46)"><tspan class="cls-22">s</tspan><tspan class="cls-19" x="3.99" y="0">t</tspan><tspan x="7.4" y="0">å en </tspan><tspan class="cls-17" x="27.92" y="0">h</tspan><tspan class="cls-50" x="33.77" y="0">a</tspan><tspan class="cls-15" x="38.64" y="0">l</tspan><tspan x="41.36" y="0">v </tspan><tspan class="cls-14" x="48.95" y="0">t</tspan><tspan x="52.36" y="0">i</tspan><tspan class="cls-6" x="55.31" y="0">m</tspan><tspan x="64.28" y="0">e ude </tspan><tspan class="cls-74" x="90.27" y="0">a</tspan><tspan x="95" y="0">f </tspan><tspan class="cls-28" x="100.76" y="0">k</tspan><tspan class="cls-23" x="106.13" y="0">ø</tspan><tspan x="111.7" y="0">le</tspan><tspan class="cls-7" x="119.16" y="0">s</tspan><tspan x="123.16" y="0">k</tspan><tspan class="cls-11" x="128.62" y="0">a</tspan><tspan class="cls-25" x="133.37" y="0">b</tspan><tspan x="139.05" y="0">et, </tspan><tspan class="cls-75" x="152.08" y="0">f</tspan><tspan class="cls-76" x="155.24" y="0">ø</tspan><tspan class="cls-59" x="160.76" y="0">r </tspan><tspan class="cls-76" x="167.34" y="0">d</tspan><tspan x="173.03" y="0">u </tspan><tspan class="cls-53" x="181.36" y="0">f</tspan><tspan class="cls-31" x="184.53" y="0">o</tspan><tspan class="cls-72" x="190.02" y="0">r</tspan><tspan class="cls-67" x="194.17" y="0">m</tspan><tspan x="203.14" y="0">er di</tspan><tspan class="cls-54" x="223.15" y="0">n</tspan><tspan x="229.13" y="0">e c</tspan><tspan class="cls-27" x="240.95" y="0">o</tspan><tspan class="cls-11" x="246.66" y="0">o</tspan><tspan class="cls-71" x="252.19" y="0">k</tspan><tspan x="257.68" y="0">ies </tspan></text><text class="cls-4" transform="translate(191.62 124.44)">100 g <tspan class="cls-73" x="25.98" y="0">a</tspan><tspan x="30.85" y="0">lm. </tspan><tspan class="cls-5" x="47.65" y="0">s</tspan><tspan class="cls-14" x="51.64" y="0">u</tspan><tspan class="cls-27" x="57.54" y="0">k</tspan><tspan class="cls-62" x="63.09" y="0">k</tspan><tspan x="68.45" y="0">er</tspan></text><text class="cls-4" transform="translate(191.62 139.44)">145 g <tspan class="cls-40" x="25.98" y="0">u</tspan><tspan class="cls-14" x="31.8" y="0">s</tspan><tspan class="cls-9" x="35.89" y="0">a</tspan><tspan class="cls-31" x="40.77" y="0">l</tspan><tspan class="cls-38" x="43.43" y="0">t</tspan><tspan x="46.73" y="0">et s</tspan><tspan class="cls-7" x="61.29" y="0">m</tspan><tspan class="cls-26" x="70.27" y="0">ø</tspan><tspan class="cls-77" x="75.78" y="0">r</tspan><tspan x="79.18" y="0">, </tspan><tspan class="cls-78" x="84.18" y="0">s</tspan><tspan class="cls-62" x="88.16" y="0">t</tspan><tspan x="91.42" y="0">ue</tspan><tspan class="cls-79" x="101.93" y="0">t</tspan><tspan x="105.23" y="0">e</tspan><tspan class="cls-21" x="109.91" y="0">m</tspan><tspan class="cls-80" x="118.72" y="0">p</tspan><tspan x="124.58" y="0">e</tspan><tspan class="cls-49" x="129.26" y="0">r</tspan><tspan x="133.21" y="0">e</tspan><tspan class="cls-81" x="137.88" y="0">r</tspan><tspan x="141.82" y="0">et </tspan></text><text class="cls-4" transform="translate(191.62 154.45)">50 g c<tspan class="cls-81" x="25.35" y="0">r</tspan><tspan class="cls-72" x="29.29" y="0">e</tspan><tspan class="cls-62" x="34.03" y="0">a</tspan><tspan x="38.76" y="0">m </tspan><tspan class="cls-78" x="50.27" y="0">c</tspan><tspan class="cls-5" x="54.87" y="0">h</tspan><tspan class="cls-14" x="60.7" y="0">e</tspan><tspan x="65.43" y="0">e</tspan><tspan class="cls-25" x="70.1" y="0">s</tspan><tspan class="cls-15" x="74.23" y="0">e</tspan><tspan x="78.84" y="0">, </tspan><tspan class="cls-43" x="83.84" y="0">s</tspan><tspan class="cls-82" x="87.83" y="0">t</tspan><tspan x="91.08" y="0">ue</tspan><tspan class="cls-38" x="101.59" y="0">t</tspan><tspan x="104.89" y="0">e</tspan><tspan class="cls-83" x="109.57" y="0">m</tspan><tspan class="cls-25" x="118.38" y="0">p</tspan><tspan x="124.23" y="0">e</tspan><tspan class="cls-26" x="128.91" y="0">r</tspan><tspan x="132.85" y="0">e</tspan><tspan class="cls-49" x="137.53" y="0">r</tspan><tspan class="cls-48" x="141.48" y="0">et</tspan></text><text class="cls-4" transform="translate(191.62 169.45)">2 <tspan class="cls-22" x="7.78" y="0">s</tspan><tspan class="cls-38" x="11.77" y="0">t</tspan><tspan class="cls-20" x="15.07" y="0">or</tspan><tspan x="24.5" y="0">e æ</tspan><tspan class="cls-52" x="39.05" y="0">g</tspan><tspan x="44.22" y="0">, </tspan><tspan class="cls-43" x="49.22" y="0">s</tspan><tspan class="cls-82" x="53.22" y="0">t</tspan><tspan x="56.46" y="0">ue</tspan><tspan class="cls-15" x="66.98" y="0">t</tspan><tspan x="70.27" y="0">e</tspan><tspan class="cls-83" x="74.94" y="0">m</tspan><tspan class="cls-25" x="83.75" y="0">p</tspan><tspan x="89.6" y="0">e</tspan><tspan class="cls-26" x="94.28" y="0">r</tspan><tspan x="98.23" y="0">e</tspan><tspan class="cls-49" x="102.9" y="0">r</tspan><tspan x="106.85" y="0">et</tspan></text><text class="cls-4" transform="translate(191.62 184.45)">1,5 t<tspan class="cls-7" x="18.92" y="0">s</tspan><tspan x="22.92" y="0">k v</tspan><tspan class="cls-62" x="35.97" y="0">a</tspan><tspan x="40.7" y="0">n</tspan><tspan class="cls-14" x="46.72" y="0">i</tspan><tspan class="cls-31" x="49.72" y="0">l</tspan><tspan class="cls-84" x="52.38" y="0">je</tspan><tspan class="cls-7" x="59.98" y="0">e</tspan><tspan x="64.62" y="0">k</tspan><tspan class="cls-5" x="70.08" y="0">s</tspan><tspan class="cls-9" x="74.07" y="0">t</tspan><tspan x="77.47" y="0">r</tspan><tspan class="cls-9" x="81.55" y="0">a</tspan><tspan class="cls-49" x="86.43" y="0">k</tspan><tspan class="cls-48" x="91.75" y="0">t</tspan></text><text class="cls-4" transform="translate(191.62 199.46)">350 g <tspan class="cls-45" x="25.98" y="0">c</tspan><tspan class="cls-43" x="30.57" y="0">h</tspan><tspan class="cls-45" x="36.4" y="0">o</tspan><tspan class="cls-16" x="41.94" y="0">k</tspan><tspan class="cls-45" x="47.31" y="0">o</tspan><tspan class="cls-35" x="52.85" y="0">l</tspan><tspan class="cls-59" x="55.67" y="0">ad</tspan><tspan class="cls-38" x="66.31" y="0">e</tspan><tspan x="70.93" y="0">, </tspan><tspan class="cls-15" x="75.93" y="0">b</tspan><tspan class="cls-71" x="81.45" y="0">l</tspan><tspan class="cls-16" x="84.27" y="0">a</tspan><tspan class="cls-54" x="89.01" y="0">n</tspan><tspan x="94.98" y="0">det </tspan><tspan class="cls-7" x="111.32" y="0">m</tspan><tspan class="cls-85" x="120.29" y="0">ø</tspan><tspan class="cls-7" x="125.81" y="0">r</tspan><tspan class="cls-59" x="129.85" y="0">k og </tspan><tspan class="cls-45" x="151.06" y="0">l</tspan><tspan x="153.78" y="0">ys</tspan></text><text class="cls-4" transform="translate(57.64 461.11)"><tspan class="cls-5">P</tspan><tspan class="cls-35" x="6.15" y="0">l</tspan><tspan x="8.96" y="0">acér 6 c</tspan><tspan class="cls-25" x="42.13" y="0">o</tspan><tspan class="cls-24" x="47.83" y="0">o</tspan><tspan class="cls-9" x="53.36" y="0">k</tspan><tspan x="58.86" y="0">ies </tspan><tspan class="cls-65" x="73.02" y="0">p</tspan><tspan class="cls-8" x="78.82" y="0">å en </tspan><tspan class="cls-19" x="99.34" y="0">b</tspan><tspan class="cls-10" x="104.98" y="0">a</tspan><tspan class="cls-11" x="109.76" y="0">g</tspan><tspan x="114.83" y="0">e</tspan><tspan class="cls-24" x="119.5" y="0">p</tspan><tspan class="cls-35" x="125.19" y="0">l</tspan><tspan x="128" y="0">ade og </tspan><tspan class="cls-9" x="159.07" y="0">b</tspan><tspan class="cls-5" x="164.7" y="0">a</tspan><tspan x="169.48" y="0">g i ci</tspan><tspan class="cls-43" x="190.17" y="0">r</tspan><tspan x="194.21" y="0">ka 10-11 mi</tspan><tspan class="cls-86" x="246.48" y="0">n</tspan><tspan class="cls-31" x="252.29" y="0">u</tspan><tspan class="cls-82" x="258.01" y="0">t</tspan><tspan class="cls-38" x="261.25" y="0">t</tspan><tspan x="264.55" y="0">e</tspan><tspan class="cls-77" x="269.23" y="0">r</tspan><tspan x="272.63" y="0">. </tspan><tspan class="cls-87" x="277.63" y="0">P</tspan><tspan class="cls-40" x="283.6" y="0">a</tspan><tspan x="288.4" y="0">s </tspan></text><text class="cls-4" transform="translate(57.64 474.32)"><tspan class="cls-19">p</tspan><tspan x="5.82" y="0">å </tspan><tspan class="cls-30" x="13.14" y="0">a</tspan><tspan class="cls-8" x="17.78" y="0">t de </tspan><tspan class="cls-9" x="36.61" y="0">i</tspan><tspan class="cls-27" x="39.6" y="0">k</tspan><tspan class="cls-16" x="45.15" y="0">k</tspan><tspan x="50.52" y="0">e f</tspan><tspan class="cls-74" x="60.95" y="0">å</tspan><tspan x="65.68" y="0">r </tspan><tspan class="cls-28" x="72.26" y="0">f</tspan><tspan class="cls-26" x="75.42" y="0">o</tspan><tspan x="80.9" y="0">r </tspan><tspan class="cls-6" x="87.48" y="0">m</tspan><tspan x="96.46" y="0">e</tspan><tspan class="cls-11" x="101.13" y="0">g</tspan><tspan x="106.2" y="0">et og </tspan><tspan class="cls-24" x="129.98" y="0">b</tspan><tspan x="135.49" y="0">l</tspan><tspan class="cls-23" x="138.28" y="0">i</tspan><tspan class="cls-24" x="141.16" y="0">v</tspan><tspan x="146.18" y="0">er </tspan><tspan class="cls-16" x="157.43" y="0">f</tspan><tspan class="cls-26" x="160.6" y="0">o</tspan><tspan class="cls-59" x="166.07" y="0">r </tspan><tspan class="cls-46" x="172.65" y="0">h</tspan><tspan class="cls-53" x="178.5" y="0">å</tspan><tspan class="cls-26" x="183.24" y="0">r</tspan><tspan x="187.19" y="0">de </tspan><tspan class="cls-7" x="200.17" y="0">i</tspan><tspan class="cls-5" x="203.09" y="0">s</tspan><tspan class="cls-38" x="207.08" y="0">t</tspan><tspan class="cls-9" x="210.38" y="0">e</tspan><tspan x="215.1" y="0">det </tspan><tspan class="cls-16" x="231.43" y="0">f</tspan><tspan class="cls-49" x="234.6" y="0">o</tspan><tspan x="240.08" y="0">r </tspan><tspan class="cls-71" x="246.66" y="0">l</tspan><tspan class="cls-7" x="249.47" y="0">æ</tspan><tspan class="cls-35" x="256.82" y="0">k</tspan><tspan class="cls-26" x="262.31" y="0">r</tspan><tspan x="266.26" y="0">e og </tspan></text><text class="cls-4" transform="translate(57.64 487.51)"><tspan class="cls-23">b</tspan><tspan x="5.52" y="0">l</tspan><tspan class="cls-88" x="8.3" y="0">ø</tspan><tspan class="cls-8" x="14.05" y="0">de i </tspan><tspan class="cls-74" x="32.47" y="0">k</tspan><tspan class="cls-31" x="37.83" y="0">o</tspan><tspan class="cls-11" x="43.32" y="0">n</tspan><tspan x="49.26" y="0">s</tspan><tspan class="cls-17" x="53.29" y="0">i</tspan><tspan class="cls-22" x="56.22" y="0">s</tspan><tspan class="cls-23" x="60.21" y="0">t</tspan><tspan x="63.5" y="0">e</tspan><tspan class="cls-11" x="68.18" y="0">n</tspan><tspan class="cls-25" x="74.12" y="0">s</tspan><tspan x="78.24" y="0">en</tspan></text><path d="M65.28,512.56a3.94,3.94,0,0,0-.56-1.28c-.23-.27-.33-.37-1.1-.37h-.83V517c0,1.09.13,1.17,1.28,1.26v.48H59.76v-.48c1.1-.09,1.22-.17,1.22-1.26v-6.11h-.79c-.73,0-.94.11-1.19.42a5.18,5.18,0,0,0-.53,1.24H58c.09-1,.18-2,.2-2.59h.39c.2.3.35.33.74.33h5.21a.85.85,0,0,0,.75-.33h.38c0,.55.06,1.69.13,2.54Zm1.18,6.2v-.44c.71-.1.78-.15.78-1.07v-2.54c0-.87-.06-.92-.67-1v-.43a14.82,14.82,0,0,0,2.35-.46v4.43c0,.88,0,1,.81,1.07v.44ZM68,512a.94.94,0,0,1-.94-.92.93.93,0,0,1,1-.92.91.91,0,0,1,.93.92A.92.92,0,0,1,68,512Zm2.24,1.26a22.25,22.25,0,0,0,2.4-.58v.94l.91-.54a1.7,1.7,0,0,1,.84-.27,2.39,2.39,0,0,1,2.25,2.56,3.73,3.73,0,0,1-3.18,3.52,2.57,2.57,0,0,1-.82-.11v1.56c0,.72.06.8,1,.92v.43H70.1v-.43c.8-.08.85-.2.85-.91v-5.8c0-.7-.08-.78-.72-.86Zm2.4,4.53a1.73,1.73,0,0,0,1.06.48c.69,0,1.2-.85,1.2-2.25,0-1.6-.79-2.21-1.44-2.21a1.38,1.38,0,0,0-.82.29Z" transform="translate(0 0)"/><text class="cls-4" transform="translate(57.64 536.37)"><tspan class="cls-29">D</tspan><tspan x="8.15" y="0">e</tspan><tspan class="cls-19" x="12.83" y="0">j</tspan><tspan x="15.7" y="0">en k</tspan><tspan class="cls-74" x="34.34" y="0">a</tspan><tspan x="39.07" y="0">n og</tspan><tspan class="cls-29" x="58.34" y="0">s</tspan><tspan x="62.45" y="0">å </tspan><tspan class="cls-89" x="69.77" y="0">f</tspan><tspan class="cls-90" x="73.14" y="0">r</tspan><tspan x="77.53" y="0">y</tspan><tspan class="cls-25" x="82.58" y="0">s</tspan><tspan x="86.7" y="0">es </tspan><tspan class="cls-7" x="97.91" y="0">n</tspan><tspan class="cls-19" x="103.89" y="0">e</tspan><tspan x="108.62" y="0">d i </tspan><tspan class="cls-25" x="122.37" y="0">k</tspan><tspan class="cls-42" x="127.92" y="0">l</tspan><tspan x="130.58" y="0">u</tspan><tspan class="cls-30" x="136.42" y="0">m</tspan><tspan class="cls-88" x="145.23" y="0">p</tspan><tspan class="cls-8" x="151.09" y="0">er og </tspan><tspan class="cls-9" x="175.6" y="0">b</tspan><tspan class="cls-5" x="181.23" y="0">a</tspan><tspan class="cls-63" x="186.02" y="0">g</tspan><tspan x="191.09" y="0">es </tspan><tspan class="cls-91" x="202.3" y="0">s</tspan><tspan x="206.41" y="0">e</tspan><tspan class="cls-5" x="211.08" y="0">n</tspan><tspan class="cls-48" x="217.06" y="0">e</tspan><tspan class="cls-49" x="221.73" y="0">r</tspan><tspan x="225.68" y="0">e </tspan><tspan class="cls-7" x="232.85" y="0">e</tspan><tspan class="cls-9" x="237.5" y="0">l</tspan><tspan x="240.32" y="0">ler </tspan><tspan class="cls-5" x="254.36" y="0">s</tspan><tspan class="cls-31" x="258.35" y="0">p</tspan><tspan class="cls-40" x="263.99" y="0">i</tspan><tspan class="cls-25" x="266.92" y="0">s</tspan><tspan x="271.04" y="0">es </tspan></text><text class="cls-4" transform="translate(57.64 549.57)"><tspan class="cls-25">s</tspan><tspan class="cls-26" x="4.13" y="0">o</tspan><tspan x="9.6" y="0">m s</tspan><tspan class="cls-17" x="25.15" y="0">n</tspan><tspan class="cls-8" x="31.14" y="0">a</tspan><tspan class="cls-23" x="35.97" y="0">c</tspan><tspan x="40.56" y="0">k</tspan></text><g class="cls-36"><path class="cls-92" d="M359.49,37.66a16.09,16.09,0,0,0-7.37-.58c-4.91.78-8.1,3.74-10.75,6.27-3.35,3.2-7.59,7.24-9,14.1-2.26,10.74,4.35,19,5,19.78a24,24,0,0,0,11.14,7.26c3.31,1.19,12.19,4.39,21.43-.34,1.33-.68,10.93-5.78,12.87-16.47a21.94,21.94,0,0,0-.41-9.53,3.73,3.73,0,0,1-2.8.33,3.84,3.84,0,0,1-2.54-3.08,4.14,4.14,0,0,1-3.71.92,4,4,0,0,1-2.81-3.4,4.17,4.17,0,0,1-3.45.54,4.38,4.38,0,0,1-2.77-4.28,3.22,3.22,0,0,1-3.79-1,3.57,3.57,0,0,1,.16-4.4,3.13,3.13,0,0,1-2.88-1.64,3.61,3.61,0,0,1,1.68-4.51" transform="translate(0 0)"/><path class="cls-93" d="M358.18,37.36a15.85,15.85,0,0,0-6.05-.22c-5,.8-8.3,4-10.72,6.25-3.37,3.23-7.57,7.24-9,14.07-2.23,10.63,4.26,18.83,5,19.73a24,24,0,0,0,11.12,7.24c3.33,1.2,12.17,4.38,21.38-.34,1.82-.93,11-6.09,12.84-16.42a21.68,21.68,0,0,0-.39-9.43,3.7,3.7,0,0,1-2.78.3,3.87,3.87,0,0,1-2.56-3,4.26,4.26,0,0,1-3.5.91l-.19,0A4.06,4.06,0,0,1,370.5,53a4.23,4.23,0,0,1-3.43.49,4.42,4.42,0,0,1-2.81-4.25,3.3,3.3,0,0,1-3.78-1,3.6,3.6,0,0,1,.08-4.38,3.17,3.17,0,0,1-2.81-1.67,3.71,3.71,0,0,1,1.59-4.53c-.39-.11-.78-.22-1.16-.31m-5,48.63a41.65,41.65,0,0,1-4.72-1.44,24,24,0,0,1-11.17-7.28c-.75-.9-7.28-9.15-5-19.84,1.45-6.87,5.66-10.89,9.05-14.13,2.43-2.31,5.75-5.48,10.78-6.29a16.13,16.13,0,0,1,7.4.58l.14,0-.13.07a3.6,3.6,0,0,0-1.66,4.43,3.09,3.09,0,0,0,2.83,1.61h.14l-.09.11a3.46,3.46,0,0,0-.16,4.32,3.17,3.17,0,0,0,3.72.95l.08,0v.1a4.3,4.3,0,0,0,2.73,4.22,4.07,4.07,0,0,0,3.4-.53l.08,0,0,.09a4,4,0,0,0,2.75,3.35,4.16,4.16,0,0,0,3.66-.9l.08-.08,0,.11a3.74,3.74,0,0,0,2.49,3,3.6,3.6,0,0,0,2.76-.32l.07,0,0,.08a21.67,21.67,0,0,1,.41,9.56C381,78.08,371.79,83.27,370,84.21A24.19,24.19,0,0,1,353.21,86" transform="translate(0 0)"/><path class="cls-94" d="M354.25,59.34a2.4,2.4,0,1,1-1.78-3,2.45,2.45,0,0,1,1.78,3" transform="translate(0 0)"/><path class="cls-95" d="M350.8,57.68c-.1-.2.06-.49.36-.67s.63-.15.73,0-.06.48-.36.66-.63.16-.73,0" transform="translate(0 0)"/><path class="cls-95" d="M350.26,58.15a.18.18,0,0,1,.09-.23.17.17,0,0,1,.23,0,.18.18,0,0,1-.09.23.17.17,0,0,1-.23,0" transform="translate(0 0)"/><path class="cls-94" d="M365.32,61.9a2.4,2.4,0,1,1-1.78-3,2.45,2.45,0,0,1,1.78,3" transform="translate(0 0)"/><path class="cls-95" d="M361.87,60.23c-.1-.19.06-.49.36-.66s.63-.16.73,0-.06.49-.36.66-.63.16-.73,0" transform="translate(0 0)"/><path class="cls-95" d="M361.34,60.7a.17.17,0,0,1,.08-.22.16.16,0,0,1,.23,0,.18.18,0,0,1-.08.23.16.16,0,0,1-.23,0" transform="translate(0 0)"/><path class="cls-96" d="M346.34,61.85a2,2,0,0,0-2.53,1.09c-.2.88.6,1.81,1.79,2.09a2,2,0,0,0,2.53-1.09c.2-.88-.6-1.81-1.79-2.09" transform="translate(0 0)"/><path class="cls-96" d="M367.16,66.66a2,2,0,0,0-2.53,1.09c-.2.88.6,1.81,1.79,2.09A2,2,0,0,0,369,68.75c.2-.88-.6-1.82-1.79-2.09" transform="translate(0 0)"/><path class="cls-94" d="M354.24,65.19a2.42,2.42,0,0,0,.36,1.29,2.19,2.19,0,0,0,2.87.84,2.48,2.48,0,0,0,1.11-1.13,2.18,2.18,0,0,1-.43,1.08,2.27,2.27,0,0,1-1.69.76,2.39,2.39,0,0,1-.78-.07,2,2,0,0,1-.76-.4,2.22,2.22,0,0,1-.75-1.39,2.41,2.41,0,0,1,.07-1" transform="translate(0 0)"/><path class="cls-97" d="M346.32,42.73a10.61,10.61,0,0,1,1.76-.91,2.14,2.14,0,0,1,1.16-.23c.45.1.49.39,1.38,1.23.64.6.82.63.9,1a1.51,1.51,0,0,1-.48,1.38,2,2,0,0,1-1.2.38,11.34,11.34,0,0,1-3,0c-.92-.11-1.14-.22-1.34-.39a1.49,1.49,0,0,1-.54-1.44c.1-.28.28-.33,1.37-.93" transform="translate(0 0)"/><path class="cls-98" d="M346.32,42.73l.06.11-.53.29c-.62.33-.72.39-.78.57a1.35,1.35,0,0,0,.5,1.3c.16.14.35.25,1.28.37a11.48,11.48,0,0,0,3,0c.73-.09.95-.18,1.13-.35a1.37,1.37,0,0,0,.44-1.25c0-.17-.11-.23-.38-.46l-.48-.43c-.34-.32-.56-.56-.72-.74s-.37-.39-.61-.45a2,2,0,0,0-1.1.22,5,5,0,0,0-1,.5l-.71.4Zm-.26,2.77a1.36,1.36,0,0,1-.65-.3,1.6,1.6,0,0,1-.58-1.59c.1-.27.25-.35.91-.71l.53-.29.7-.39A4.94,4.94,0,0,1,348,41.7a2.16,2.16,0,0,1,1.23-.23c.32.06.46.23.73.52a8.78,8.78,0,0,0,.71.73l.47.43a1.06,1.06,0,0,1,.46.58,1.62,1.62,0,0,1-.52,1.51,2.08,2.08,0,0,1-1.27.42,11.53,11.53,0,0,1-3,0c-.32,0-.56-.08-.75-.12" transform="translate(0 0)"/><path class="cls-97" d="M375.76,60.53a10.77,10.77,0,0,1,.52-2c.25-.62.36-.88.61-1.06a1.36,1.36,0,0,1,.86-.23,3.66,3.66,0,0,0,.87.82,3.87,3.87,0,0,0,2,.63,8.2,8.2,0,0,1-.5.85c-.09.13-.23.34-.44.61a12.73,12.73,0,0,1-1.61,1.72c-.7.64-.93.75-1.18.79a1.35,1.35,0,0,1-1.41-.51c-.14-.25,0-.43.24-1.67" transform="translate(0 0)"/><path class="cls-98" d="M377.68,57.42a1.22,1.22,0,0,0-.72.21c-.22.15-.32.39-.57,1a5.93,5.93,0,0,0-.33,1.13c0,.21-.1.47-.18.81s-.1.43-.15.6c-.17.7-.19.82-.11,1a1.29,1.29,0,0,0,1.29.45c.21,0,.41-.12,1.12-.77a13,13,0,0,0,1.59-1.7c.17-.21.31-.41.44-.6s.27-.44.4-.66a3.94,3.94,0,0,1-1.91-.65,3.82,3.82,0,0,1-.87-.79m-1.46,5.4a1.19,1.19,0,0,1-.81-.56c-.14-.25-.1-.42.09-1.16,0-.16.08-.36.14-.6s.14-.59.18-.8a5.49,5.49,0,0,1,.34-1.17c.27-.63.38-.92.66-1.11a1.47,1.47,0,0,1,.93-.25h.06l0,0a3.54,3.54,0,0,0,.85.79,3.65,3.65,0,0,0,2,.61h.2l-.1.19a9.26,9.26,0,0,1-.51.86c-.13.2-.28.4-.44.62A13.62,13.62,0,0,1,378.19,62c-.7.64-.95.77-1.24.82a2,2,0,0,1-.73,0" transform="translate(0 0)"/><path class="cls-97" d="M343.6,73.66A2.23,2.23,0,0,1,345,73c.38,0,.52.22,1.27.8,1.38,1.08,1.76,1.1,1.82,1.56s-.2.7-.7,1.48-.84,1.3-1.17,1.37-.58-.1-2.08-1.49c-1.33-1.24-1.56-1.5-1.51-1.87s.39-.67,1-1.15" transform="translate(0 0)"/><path class="cls-98" d="M345.11,73.11l-.14,0a2.1,2.1,0,0,0-1.29.67c-.59.46-.91.72-.95,1.07s.19.56,1.47,1.75c1.49,1.39,1.72,1.52,2,1.47s.57-.51,1.09-1.32.72-1.12.68-1.39-.14-.31-.61-.63c-.28-.19-.65-.44-1.17-.85l-.4-.32a1.78,1.78,0,0,0-.66-.43M346,78.3c-.32-.07-.76-.44-1.92-1.53-1.33-1.22-1.61-1.53-1.56-2s.43-.75,1-1.25a2.38,2.38,0,0,1,1.45-.72c.34,0,.52.16.94.51l.4.32c.51.4.88.65,1.16.83.47.33.67.46.72.81s-.21.77-.73,1.57-.86,1.34-1.24,1.43a.61.61,0,0,1-.27,0" transform="translate(0 0)"/><path class="cls-97" d="M359.69,51c.52-.41.9-.71,1.38-.69s.53.21,1.27.8c1.38,1.08,1.76,1.09,1.83,1.56,0,.31-.21.7-.71,1.47s-.84,1.3-1.17,1.38-.58-.1-2.08-1.5c-1.33-1.23-1.55-1.49-1.51-1.86s.39-.68,1-1.16" transform="translate(0 0)"/><path class="cls-98" d="M361.2,50.42h-.14c-.44,0-.79.27-1.29.66s-.91.72-.95,1.07.19.56,1.47,1.76c1.49,1.38,1.72,1.52,2,1.46s.57-.51,1.09-1.32.72-1.12.68-1.38-.14-.31-.61-.63c-.27-.19-.65-.45-1.16-.85l-.41-.32a2,2,0,0,0-.66-.44m.84,5.2c-.31-.08-.74-.44-1.91-1.53-1.33-1.23-1.6-1.53-1.55-2s.42-.76,1-1.25l.07.1-.07-.1a2.32,2.32,0,0,1,1.46-.72c.33,0,.51.16.94.5l.4.33c.5.39.88.65,1.15.83.47.32.67.46.72.81s-.21.76-.73,1.56-.86,1.35-1.24,1.43a.66.66,0,0,1-.28,0" transform="translate(0 0)"/><path class="cls-97" d="M364.52,82.94a10.61,10.61,0,0,1,1.76-.91,2.2,2.2,0,0,1,1.16-.22c.43.1.62.38,1.38,1.23l1,1.07a6.8,6.8,0,0,1-1.17,1,3.28,3.28,0,0,1-.83.5,2.77,2.77,0,0,1-1.76.06,4.94,4.94,0,0,1-1,0,2.24,2.24,0,0,1-1.34-.39,1.5,1.5,0,0,1-.54-1.45c.1-.28.28-.32,1.37-.93" transform="translate(0 0)"/><path class="cls-98" d="M364.58,83.06l-.53.29c-.62.33-.72.39-.78.56a1.36,1.36,0,0,0,.5,1.31,2.06,2.06,0,0,0,1.25.36h0a4.35,4.35,0,0,0,1,0h0a2.62,2.62,0,0,0,1.69,0,3.66,3.66,0,0,0,.81-.48,8.5,8.5,0,0,0,1.06-.93q-.46-.48-.93-1l-.31-.34c-.49-.56-.68-.77-1-.85h0a2.25,2.25,0,0,0-1.1.22,5.68,5.68,0,0,0-1,.51Zm-.31,2.68A1.62,1.62,0,0,1,363,83.83c.09-.27.24-.36.9-.71l.53-.29.7-.4a5.45,5.45,0,0,1,1.07-.52,2.25,2.25,0,0,1,1.23-.23h0c.4.1.62.34,1.14.92l.31.35c.32.36.66.72,1,1.07l.08.08-.08.1a7.92,7.92,0,0,1-1.19,1,4,4,0,0,1-.86.51,2.92,2.92,0,0,1-1.81.07,5.17,5.17,0,0,1-1,0h0a6.26,6.26,0,0,1-.72-.1" transform="translate(0 0)"/><path class="cls-97" d="M333,55.12a6.51,6.51,0,0,1,1.37-.66,2.12,2.12,0,0,1,1.16-.23c.46.1.5.39,1.39,1.23.64.6.81.63.89.95a1.5,1.5,0,0,1-.48,1.38,2,2,0,0,1-1.2.38l-.72.07a14.36,14.36,0,0,1-2.29-.1l-.8-.12a6.45,6.45,0,0,1,.68-2.9" transform="translate(0 0)"/><path class="cls-98" d="M333.12,55.2a6.92,6.92,0,0,0-.47,1.32,5.94,5.94,0,0,0-.17,1.39l.69.1a14.11,14.11,0,0,0,2.27.1l.71-.07c.73-.09,1-.18,1.13-.35a1.34,1.34,0,0,0,.44-1.25c0-.17-.11-.23-.37-.46a6.2,6.2,0,0,1-.49-.43c-.34-.32-.56-.56-.72-.74s-.36-.4-.6-.45h0a1.88,1.88,0,0,0-1,.2l0,0a7.22,7.22,0,0,0-1.32.62m-.89,2.93V58a6.54,6.54,0,0,1,.69-3l0,0,0,0a6.35,6.35,0,0,1,1.39-.67l.05,0a2.07,2.07,0,0,1,1.18-.21c.32.06.47.23.73.52s.38.42.71.73.35.32.48.43a1.09,1.09,0,0,1,.45.58,1.6,1.6,0,0,1-.52,1.51,2.07,2.07,0,0,1-1.26.42c-.26,0-.49.05-.74.06a12.3,12.3,0,0,1-2.3-.1l-.81-.12Z" transform="translate(0 0)"/><path class="cls-97" d="M374.16,70.58a2.24,2.24,0,0,1,1.38-.69c.38,0,.53.21,1.27.8,1.38,1.08,1.76,1.09,1.83,1.56,0,.31-.21.7-.71,1.48s-.84,1.29-1.17,1.37-.58-.1-2.08-1.49c-1.33-1.24-1.55-1.5-1.51-1.87s.39-.68,1-1.16" transform="translate(0 0)"/><path class="cls-98" d="M374.16,70.58l.08.1c-.59.47-.91.73-.95,1.07s.19.56,1.47,1.76c1.49,1.38,1.72,1.52,2,1.46s.57-.51,1.09-1.31.72-1.13.68-1.39-.14-.31-.61-.63c-.28-.19-.65-.45-1.17-.85l-.4-.32c-.4-.33-.54-.44-.8-.45-.44,0-.8.27-1.29.66Zm2.35,4.65c-.31-.08-.75-.44-1.91-1.53-1.33-1.23-1.61-1.53-1.56-2s.43-.76,1-1.25l.07.1-.07-.1a2.32,2.32,0,0,1,1.45-.72c.34,0,.52.16.95.5l.39.33c.51.39.88.65,1.16.83.47.33.67.46.72.81s-.21.76-.73,1.56-.86,1.35-1.24,1.43a.66.66,0,0,1-.28,0" transform="translate(0 0)"/><path class="cls-97" d="M360,72.63c.39-.28.76-.54,1.17-.43a.85.85,0,0,1,.6.58,1.16,1.16,0,0,1-.41,1,1.67,1.67,0,0,1-1.24.58c-.37,0-1-.17-1.08-.56s.55-.9,1-1.19" transform="translate(0 0)"/><path class="cls-98" d="M361.08,72.32c-.35-.08-.67.15-1,.41s-1,.71-.91,1.06.62.45,1,.46a1.58,1.58,0,0,0,1.14-.53c.16-.17.48-.53.38-.9a.7.7,0,0,0-.51-.49Zm-1.39,2.13c-.36-.08-.73-.27-.8-.6-.12-.52.56-1,1-1.33a1.56,1.56,0,0,1,1.28-.44,1,1,0,0,1,.68.67,1.32,1.32,0,0,1-.44,1.14,1.78,1.78,0,0,1-1.33.61,2,2,0,0,1-.4,0" transform="translate(0 0)"/><path class="cls-97" d="M342.77,51.9c.46-.08.9-.16,1.22.12a.88.88,0,0,1,.31.8c-.08.45-.56.65-.78.75a1.64,1.64,0,0,1-1.35,0c-.33-.18-.83-.59-.75-1s.86-.58,1.35-.67" transform="translate(0 0)"/><path class="cls-98" d="M342.77,51.9l0,.13c-.41.07-1.18.21-1.25.57s.37.68.69.84a1.45,1.45,0,0,0,1.24,0c.21-.09.64-.28.71-.66a.74.74,0,0,0-.27-.67c-.28-.24-.67-.17-1.12-.09Zm-.3,1.9a1.74,1.74,0,0,1-.36-.13c-.38-.2-.91-.65-.81-1.12s.91-.68,1.45-.77a1.48,1.48,0,0,1,1.32.14,1,1,0,0,1,.35.92c-.09.52-.63.75-.86.85a1.82,1.82,0,0,1-1.09.11" transform="translate(0 0)"/><path class="cls-97" d="M350.16,81.56a1.38,1.38,0,0,1,1.22.12.9.9,0,0,1,.31.79c-.08.45-.56.66-.79.75a1.58,1.58,0,0,1-1.34,0c-.34-.17-.84-.59-.76-1s.87-.58,1.36-.67" transform="translate(0 0)"/><path class="cls-98" d="M351,81.63a2.49,2.49,0,0,0-.84.05c-.41.08-1.17.22-1.25.57s.38.69.69.85a1.55,1.55,0,0,0,1.25,0c.21-.09.64-.28.71-.66a.76.76,0,0,0-.27-.67.67.67,0,0,0-.29-.15m-1.16,1.82a1.32,1.32,0,0,1-.35-.12c-.38-.2-.91-.66-.82-1.12s.92-.68,1.46-.78l0,.13,0-.13a1.51,1.51,0,0,1,1.32.15,1,1,0,0,1,.35.91c-.09.52-.63.75-.86.85a1.85,1.85,0,0,1-1.1.11" transform="translate(0 0)"/><path class="cls-97" d="M335.92,67.53a1.5,1.5,0,0,1,.37,1.21.9.9,0,0,1-.57.63c-.43.12-.8-.26-1-.43a1.67,1.67,0,0,1-.51-1.27c0-.39.19-1,.57-1.13s.85.57,1.12,1" transform="translate(0 0)"/><path class="cls-98" d="M335,66.66h-.13c-.29.07-.45.65-.47,1a1.61,1.61,0,0,0,.48,1.18c.16.16.49.49.86.4a.77.77,0,0,0,.48-.54c.11-.37-.11-.71-.35-1.11s-.56-.86-.87-.94m.42,2.84a1.65,1.65,0,0,1-.71-.46,1.88,1.88,0,0,1-.56-1.38c0-.44.22-1.14.67-1.25s1,.58,1.25,1a1.63,1.63,0,0,1,.39,1.32,1,1,0,0,1-.67.71.67.67,0,0,1-.37,0" transform="translate(0 0)"/><path class="cls-97" d="M381.39,63.11a1.44,1.44,0,0,1,1.23.12.91.91,0,0,1,.3.8c-.07.45-.56.65-.78.75a1.64,1.64,0,0,1-1.35,0c-.33-.17-.83-.59-.75-1s.86-.59,1.35-.68" transform="translate(0 0)"/><path class="cls-98" d="M381.39,63.11l0,.13c-.41.08-1.18.21-1.25.57s.37.68.69.84a1.45,1.45,0,0,0,1.24,0c.21-.09.65-.27.71-.65a.78.78,0,0,0-.26-.68c-.29-.24-.68-.17-1.13-.09Zm-.3,1.9a1.66,1.66,0,0,1-.35-.13c-.38-.19-.92-.65-.82-1.12s.92-.67,1.45-.77h0l0,.12,0-.12a1.5,1.5,0,0,1,1.33.15,1,1,0,0,1,.35.91c-.09.52-.64.75-.87.85a1.8,1.8,0,0,1-1.09.11" transform="translate(0 0)"/></g><text class="cls-99" transform="translate(59.44 67.23)"><tspan class="cls-100">V</tspan><tspan x="16.55" y="0">erdens bedste cookies</tspan></text></g></g></svg>