<svg xmlns="http://www.w3.org/2000/svg" viewBox="0 0 604.67 852.57"><defs><style>.cls-1,.cls-10{fill:#f9eff7;}.cls-2{fill:#f2e3ef;}.cls-3{font-size:115px;fill:#1d1d1b;font-family:SavoyeLetPlain, Savoye LET;letter-spacing:-0.01em;}.cls-4{fill:#2d2d2d;}.cls-12,.cls-5{fill:#93603b;}.cls-6{fill:#3a291b;}.cls-7{fill:#d59ec7;}.cls-8{fill:#3a3a3a;}.cls-9{fill:#9a5017;}.cls-10{opacity:0.9;}.cls-11{fill:#262626;}.cls-12{opacity:0.7;}.cls-13{fill:#cd91c0;}.cls-14{fill:#f7f3f0;}.cls-15{fill:#352a19;}.cls-16{fill:#2b231b;}</style></defs><g id="Layer_2" data-name="Layer 2"><g id="Layer_1-2" data-name="Layer 1"><rect class="cls-1" width="604.67" height="852.57"/><polygon class="cls-2" points="604.67 0 604.67 1.28 0 573.1 0 0 604.67 0"/><text class="cls-3" transform="translate(188.21 165.52)">Tillykke <tspan x="56.18" y="94">med </tspan><tspan x="-91.43" y="188">konfirmationen</tspan></text><path class="cls-4" d="M373.1,472.19c-1.4-5.16-.3-6.45.22-6.85s1.51-.79,11.19,3.52c2.63,1.17,2.81,1.32,5.18,2.34,1.56.68,3.88,1.65,8.16,3.27,6,2.28,9.06,3.45,10.17,3.61a39.78,39.78,0,0,0,11.9-.4,64,64,0,0,0,9.38-2,15.48,15.48,0,0,1-3.57,4.7,15.67,15.67,0,0,1-7.17,3.62,37.62,37.62,0,0,0,11.29,5.3,29.48,29.48,0,0,0,13.43,1.12,27,27,0,0,0,8.81-3.1,38.37,38.37,0,0,1-8.62,5,39.31,39.31,0,0,1-7.07,2.16,47.14,47.14,0,0,0,30.86,7,16.51,16.51,0,0,1-12.21,4.79,26.27,26.27,0,0,0,17.75.54,32.78,32.78,0,0,1-10.19,4.18,31.24,31.24,0,0,1-4.25.65A33.75,33.75,0,0,0,470,519.53a20.9,20.9,0,0,0,9.81,1.91,18.56,18.56,0,0,0,5.13-1.12,21.67,21.67,0,0,1-5.64,3A22.29,22.29,0,0,1,469,524.48a39.61,39.61,0,0,0,24.71,6.57,16.37,16.37,0,0,1-8.78,3.56,16,16,0,0,1-6.07-.66,34.21,34.21,0,0,0,11.87,9.69c1.05.51,2.08.94,3.08,1.31a26.13,26.13,0,0,1-5-.07,25.87,25.87,0,0,1-4.28-.85,22.47,22.47,0,0,0,1.59,9.42,22.08,22.08,0,0,0,2.41,4.42,6.59,6.59,0,0,1-4-2.17,6.15,6.15,0,0,1-1.08-1.86,23.29,23.29,0,0,0,1.82,14.27,11.75,11.75,0,0,1-3.13-2.2,12,12,0,0,1-1.75-2.17,17.79,17.79,0,0,0-2.13,8,18,18,0,0,0,3.16,10.51,37.58,37.58,0,0,1-3.75-3.06,36.67,36.67,0,0,1-3.46-3.69,6.65,6.65,0,0,0-.4,3.22,7.26,7.26,0,0,0,2.94,4.78,6.42,6.42,0,0,1-5.4-4.62,17,17,0,0,0-2.78,9.63,16,16,0,0,0,.59,3.8c-2.27-.56-3.93-2-4.19-3.76a3.48,3.48,0,0,1,.19-1.71,17.29,17.29,0,0,0-2.5,16.28,5.85,5.85,0,0,1-3.32-2.52c-.79-1.43-.41-2.63-1-2.84-.88-.33-2.9,2-3.74,4.55a9.93,9.93,0,0,0,0,5.88,5.48,5.48,0,0,1-2.71-3.14,5.25,5.25,0,0,1-.16-2.25,76.81,76.81,0,0,0-6.86,14.49c-1.37,4-2,6.76-1.07,9.83a12.28,12.28,0,0,0,2.38,4.38,13.1,13.1,0,0,1-3.6-2.63A12.87,12.87,0,0,1,440,625a23.3,23.3,0,0,0,.65,11.87c2,5.87,5.75,8.29,4.71,10.23-1.16,2.14-7.16,1.72-11.43-.32-5.77-2.77-8.05-8.35-8.69-10.13a6.94,6.94,0,0,1-.41,3.73,6,6,0,0,1-.8,1.42,19.59,19.59,0,0,0-.22-2.93,20.28,20.28,0,0,0-2.28-6.72c-2.46-4.57-3.66-11.24-5.84-17.53-3.87-11.13-7.84-12.45-12.61-22.45-5.73-12-3.05-16.49-7.1-35-2.93-13.41-3.91-9.26-9.9-30.06C382,512.84,378.89,498.7,375,481,374.19,477.29,373.54,474.25,373.1,472.19Z"/><path class="cls-4" d="M230,474.42c1.32-5.18.2-6.46-.33-6.84s-1.53-.77-11.13,3.7c-2.61,1.21-2.79,1.37-5.15,2.44-1.54.69-3.84,1.71-8.09,3.39-6,2.39-9,3.61-10.11,3.79a40.37,40.37,0,0,1-11.91-.19,66.74,66.74,0,0,1-9.41-1.87A15.48,15.48,0,0,0,184.77,487a37.91,37.91,0,0,1-11.2,5.49,29.53,29.53,0,0,1-13.41,1.35,27.11,27.11,0,0,1-8.86-3,38.38,38.38,0,0,0,15.81,6.87,47.14,47.14,0,0,1-30.74,7.52,16.56,16.56,0,0,0,12.29,4.59,26.45,26.45,0,0,1-17.74.84,32.9,32.9,0,0,0,10.27,4,32.11,32.11,0,0,0,4.25.58,33.61,33.61,0,0,1-11.52,8.15,21,21,0,0,1-9.78,2.07,18.6,18.6,0,0,1-5.15-1,21.45,21.45,0,0,0,5.69,2.95,22.23,22.23,0,0,0,10.37.94,39.64,39.64,0,0,1-24.6,7,16.44,16.44,0,0,0,8.85,3.42,16,16,0,0,0,6-.77,34.18,34.18,0,0,1-11.7,9.9c-1,.52-2.07,1-3.06,1.35a26.12,26.12,0,0,0,5-.15,25.33,25.33,0,0,0,4.26-.92,22.59,22.59,0,0,1-1.44,9.45,22.13,22.13,0,0,1-2.33,4.46,6.7,6.7,0,0,0,4-2.24,6.22,6.22,0,0,0,1-1.88,23.43,23.43,0,0,1-1.57,14.3,11.48,11.48,0,0,0,3.09-2.26,11.67,11.67,0,0,0,1.71-2.19,17.57,17.57,0,0,1-.72,18.49,37,37,0,0,0,7.1-6.87,6.6,6.6,0,0,1,.45,3.21,7.24,7.24,0,0,1-2.85,4.83,6.43,6.43,0,0,0,5.32-4.71,17,17,0,0,1,2.94,9.58,15.83,15.83,0,0,1-.53,3.81c2.26-.6,3.9-2.09,4.13-3.83a3.57,3.57,0,0,0-.22-1.71,17.27,17.27,0,0,1,2.77,16.24,5.87,5.87,0,0,0,3.28-2.58c.77-1.44.36-2.63.94-2.86.87-.34,2.94,2,3.82,4.49a10,10,0,0,1,.13,5.88,5.47,5.47,0,0,0,2.65-3.18,5.16,5.16,0,0,0,.13-2.25,77.11,77.11,0,0,1,7.1,14.36c1.44,3.93,2.08,6.73,1.24,9.81a12,12,0,0,1-2.31,4.42,12.89,12.89,0,0,0,6.06-6.6,23.46,23.46,0,0,1-.45,11.88c-1.89,5.9-5.61,8.39-4.54,10.3,1.19,2.13,7.19,1.61,11.42-.51,5.73-2.86,7.91-8.48,8.52-10.27a7,7,0,0,0,.47,3.72,6.73,6.73,0,0,0,.82,1.41,20.64,20.64,0,0,1,.17-2.94,20.29,20.29,0,0,1,2.18-6.76c2.37-4.6,3.46-11.29,5.53-17.62,3.68-11.2,7.63-12.58,12.23-22.66,5.52-12.1,2.77-16.54,6.51-35.14,2.7-13.46,3.75-9.33,9.39-30.23,3.84-14.28,6.71-28.47,10.3-46.28C229,479.54,229.62,476.49,230,474.42Z"/><path class="cls-4" d="M227.91,467.54a288.94,288.94,0,0,1,30.78-5.43A297.09,297.09,0,0,1,310,460.3c17.09.92,23,2.81,50.1,4.22,6.08.32,11.1.5,14.48.6,2.44,6.72,5.87,16.49,9.66,28.37,6.12,19.17,12.95,40.58,18.11,68.2,4.13,22.11,6.15,42.6,4.83,64.59-.66,10.9-2,19.37-6.64,28.36-6,11.5-18.55,22.16-25.35,25.35a20.28,20.28,0,0,0-4.55,2.82,22.67,22.67,0,0,0-6.36,9c-4.72,10.76-14.61,18.92-15.73,19.85a41.24,41.24,0,0,1-17.23,8.24,60.88,60.88,0,0,1-5.62,14.23c-3.16,5.76-6.95,12.66-14.6,17.1-4.78,2.78-9.76,3.34-19.72,4.46-10.15,1.14-15.22,1.7-19.61-.21-7-3.05-13.55-10.79-14.23-19.1-.6-7.35,3.67-12.07,1-20.59a22.82,22.82,0,0,0-2.45-5.24c-8.74-1.74-13.16-5.86-15-7.88-6.82-7.54-8.07-19.59-8.61-23.59-.36-2.68-.23-3.06-.68-4.52-2.36-7.54-10.15-11-13.49-12.81-11.17-6.08-17.85-20.56-21.51-29-3.91-9-3.47-19.67-2.6-41,1.06-25.88,5-23.79,7.41-50.09.34-3.64.76-9,4.35-14.37,4.49-6.67,8.91-5.79,13.21-11.43,4.49-5.88,1.75-11.09,4.34-25.19C225.27,480.91,226.84,472.88,227.91,467.54Z"/><path class="cls-5" d="M230.8,681.51A57.06,57.06,0,0,1,218.29,668a48.33,48.33,0,0,1-8-20.14c-.8-5.64-1.76-12.4,2.4-17.69.6-.77,3.4-4.32,7.93-5,7.06-1,13,6.62,15.29,9.57a31,31,0,0,1,3.56,5.72c-.21,1.26-.48,3-.68,5.18a58.43,58.43,0,0,0,.08,13,45.57,45.57,0,0,0,7.33,18.72,52.14,52.14,0,0,0,9.91,11.37Z"/><path class="cls-5" d="M342,686.56a118.56,118.56,0,0,0,11.47-31.27c2.08-9.9,1.72-14.86,6.13-21.43,1.54-2.31,8.87-13.25,21.42-13.26,7.55,0,15.62,3.72,19.9,10.71s3.06,14.18,2.55,17.35c-2.16,13.36-12.48,21.5-18.88,26.52a53.19,53.19,0,0,1-22.3,11.09A51.41,51.41,0,0,1,342,686.56Z"/><path class="cls-6" d="M326.79,723.22A55.15,55.15,0,0,0,343,716a58.55,58.55,0,0,0,11.2-9.74,85.62,85.62,0,0,0,16.7-26.75,92.07,92.07,0,0,0,4.11-12.45c3.73-13.42,2.16-15.69,1.38-16.5a6.89,6.89,0,0,0-7.66-1.1c-2.84,1.51-3.64,5.09-4,6.57,0,0-1.4,5.6-12,20.81-5.54,7.91-13.78,10.76-25,14.64-2.14.74-36.95,12.24-71.6-2.73-12.77-5.51-16.76-10.84-18.37-13.37-2.15-3.36-7.55-11.9-6.94-20.44a16.6,16.6,0,0,0-1.46-8.76,7.44,7.44,0,0,0-3.28-3.65c-1.26-.63-3.56-1.26-4.75-.37-2.28,1.73.25,8.6,1.46,12,7.65,21.74,3.32,22.12,9.86,35.77a84.21,84.21,0,0,0,15.69,22.63C273.88,737.57,322.87,724.34,326.79,723.22Z"/><path class="cls-7" d="M257.37,689.08c9.57-2.12,15.08-4.63,17.93-6.16,1.06-.57,3.82-2.11,6.81-3.86,2.8-1.63,5.08-3,6.64-4a57.38,57.38,0,0,0,43.79,14.37c-.51,4.81-1.24,12.23-1.9,21.38-.87,12.2-.63,14.07-1.86,18.32-.88,3-4.12,14.19-14.78,21.82-9.23,6.61-18.83,6.87-25.92,7s-12.72.34-18.41-3c-8-4.64-11-13-14.1-21.83a61.42,61.42,0,0,1-3.64-20.92A56.9,56.9,0,0,1,257.37,689.08Z"/><path class="cls-8" d="M161.11,518.76a17.53,17.53,0,0,1-17.44,5.7,10.38,10.38,0,0,0,4,1.89,10,10,0,0,0,3.44.22,26.2,26.2,0,0,1-14.71,3,20.22,20.22,0,0,0,13.1.44,36.82,36.82,0,0,1-12.51,8.2,26.52,26.52,0,0,0,16.9-7A26,26,0,0,0,161.11,518.76Z"/><path class="cls-8" d="M196.82,586.92a17.49,17.49,0,0,1-12.91,13,10.33,10.33,0,0,0,7.55-1.49,26.61,26.61,0,0,1-4.86,5.28,26.19,26.19,0,0,1-6.86,4.1,20.26,20.26,0,0,0,11.85-5.59,35.67,35.67,0,0,1-1.56,4,37.27,37.27,0,0,1-5.83,9,26.49,26.49,0,0,0,11.84-14A26,26,0,0,0,196.82,586.92Z"/><path class="cls-8" d="M216.62,516.76a36.25,36.25,0,0,1-8.2,13.86,49.23,49.23,0,0,1-14.5,10.84,24.39,24.39,0,0,0,7.44-2.34,29.27,29.27,0,0,0,5.45-3.49,67.13,67.13,0,0,1-8.56,9.83,74.13,74.13,0,0,1-11.9,9.15,56.16,56.16,0,0,0,20.46-13.72,65.82,65.82,0,0,1-2.9,6.4,84,84,0,0,1-10.44,15.53c3.29-2.45,15.17-11.71,20.93-25.48C218.63,527.24,217.41,519.86,216.62,516.76Z"/><path class="cls-8" d="M175.88,559.8a25.16,25.16,0,0,1-9.77,9.13,25.92,25.92,0,0,1-13.47,2.91,15,15,0,0,0,6,1.63,15.17,15.17,0,0,0,4.9-.54,38.11,38.11,0,0,1-8.91,5,38.92,38.92,0,0,1-11.12,2.64A29.93,29.93,0,0,0,162.1,578a53,53,0,0,1-15.71,14.25,38.64,38.64,0,0,0,22.18-13.71A35.8,35.8,0,0,0,175.88,559.8Z"/><path class="cls-8" d="M158.23,546.8a15.5,15.5,0,0,1-6.46,5,16.52,16.52,0,0,1-8.41,1.09,9.33,9.33,0,0,0,3.6,1.26,9.63,9.63,0,0,0,3-.08,24,24,0,0,1-5.72,2.57,24.58,24.58,0,0,1-7,1,18.79,18.79,0,0,0,6.12.56,18.59,18.59,0,0,0,5.39-1.2,30.76,30.76,0,0,1-2.62,2.61,33.11,33.11,0,0,1-7.76,5.13,24.12,24.12,0,0,0,14.31-7.11A21.29,21.29,0,0,0,158.23,546.8Z"/><path class="cls-8" d="M193.57,499.88a17.48,17.48,0,0,1-18.32,1,10.28,10.28,0,0,0,6.6,4,26.48,26.48,0,0,1-7.15.66,26,26,0,0,1-7.83-1.56,20.46,20.46,0,0,0,6.3,3.05,20.16,20.16,0,0,0,6.24.75,35.39,35.39,0,0,1-3.85,1.93,37.1,37.1,0,0,1-10.35,2.76A26.47,26.47,0,0,0,183.35,510,26,26,0,0,0,193.57,499.88Z"/><path class="cls-8" d="M338.43,565.06a22.16,22.16,0,0,1,3.51-7.92c1.63-2.29,3.08-4.34,5.72-5.27,4.75-1.68,9.6,1.56,10.55,2.2a47,47,0,0,1,4.83,4.39c1.68,1.62,3,3,4,4-1.44.81-3.54,1.93-6.15,3.08a57.77,57.77,0,0,1-7,2.63C352,568.6,346.58,569.56,338.43,565.06Z"/><path class="cls-8" d="M236.76,562.21a23.5,23.5,0,0,1,6.85-7.71c2.07-1.47,4.57-3.25,8-3.14a7.73,7.73,0,0,1,5.43,2c.77.79,1.32,1.81,2,6a71.44,71.44,0,0,1,.86,8c-1.63.16-4,.36-6.86.58-5.58.41-6.39.34-6.85.28C244.18,568,240.67,566.93,236.76,562.21Z"/><path class="cls-9" d="M342.26,556.7a22.58,22.58,0,0,0,1.66,5.06c1.15,2.49,1.93,4.16,3.81,5.33A8.62,8.62,0,0,0,354,568a9.32,9.32,0,0,0,5.15-3.13,10.46,10.46,0,0,0,2.18-8.07,14.69,14.69,0,0,0-5.87-4.27c-1.69-.67-4.55-1.8-7.79-.67A10,10,0,0,0,342.26,556.7Z"/><path d="M344.83,553.48c-.57,3.38.58,6.62,3,8.2a7.32,7.32,0,0,0,4.14,1.13,6.38,6.38,0,0,0,3.92-1.43,6.85,6.85,0,0,0,2.09-3.76,9.77,9.77,0,0,0,.27-3.63,13.48,13.48,0,0,0-4.5-2.12,10.09,10.09,0,0,0-5.49-.18A9.24,9.24,0,0,0,344.83,553.48Z"/><ellipse class="cls-10" cx="348.65" cy="554.96" rx="2.72" ry="1.91" transform="translate(-144.28 123.04) rotate(-16.64)"/><path class="cls-9" d="M241.62,556.1a9.15,9.15,0,0,0,.42,7.58,9,9,0,0,0,5,3.93,8.36,8.36,0,0,0,4.49.45,8.65,8.65,0,0,0,4.64-2.71,9.24,9.24,0,0,0,2.92-6,8.89,8.89,0,0,0-2-6,7.45,7.45,0,0,0-2.54-1.64,8.14,8.14,0,0,0-4.38-.29C245.92,552.1,242.7,555,241.62,556.1Z"/><path d="M244.58,553.7c-1,4.12.3,7.9,2.79,9.22a7.11,7.11,0,0,0,4.18.5,7.61,7.61,0,0,0,4.09-2,7.74,7.74,0,0,0,2.09-3.76,8.67,8.67,0,0,0,.21-2.9,6.19,6.19,0,0,0-1.42-1.85,6.38,6.38,0,0,0-2.49-1.31,9.84,9.84,0,0,0-6,.26A11.31,11.31,0,0,0,244.58,553.7Z"/><ellipse class="cls-10" cx="248.83" cy="555.02" rx="2.72" ry="1.91" transform="translate(-148.48 94.46) rotate(-16.64)"/><path class="cls-11" d="M331.73,574.05c-2.26.94-8.58-6.42-11.81-14.84-1.13-2.94-5.45-14.73,0-27.58a33.86,33.86,0,0,1,14.61-16c3.93-2.15,14.41-7.89,23.83-2.76s13.57,19.13,9.37,24.46c-4.06,5.16-13.54-.66-24.87,6.4a24.15,24.15,0,0,0-8.5,8.42C328.68,562,334.26,573,331.73,574.05Z"/><path class="cls-11" d="M265.88,570.21c1.43.76,7.55-6.14,11.83-14.82,3.2-6.49,7.12-14.44,6-24.95-.42-4-1.69-15-10.23-21-12.16-8.55-33.22-2.83-39,9.32-2,4.25-3.22,11.56.33,15.26,4.87,5.09,14-1.57,24.26,4.31a21.12,21.12,0,0,1,8.57,9.28C272.21,557.87,264.1,569.26,265.88,570.21Z"/><path class="cls-12" d="M334.17,540.84c-3.26-.88-4.64-4.61-5.15-6a13,13,0,0,1,.49-9.77,12.66,12.66,0,0,1,4.9-5.43,9.37,9.37,0,0,1,6.23-1.59c4.35.65,6.49,5,6.93,5.86a10.75,10.75,0,0,1,.82,8.08c-1.12,3.3-3.82,4.85-6.95,6.64C338.51,540.32,336.49,541.47,334.17,540.84Z"/><path class="cls-12" d="M261.7,533.24c-1.74-.85-4.59-2.25-6-5.51-1.66-3.93,0-7.65.65-9.07.72-1.6,1.43-3.18,3.09-4,2.65-1.29,5.71.34,7.52,1.31a11.57,11.57,0,0,1,5.76,5.74,11.06,11.06,0,0,1,0,8c-.55,1.52-1.31,3.63-3.31,4.65C266.74,535.72,263.63,534.19,261.7,533.24Z"/><path class="cls-8" d="M388.88,519.43a36.25,36.25,0,0,0,8.2,13.86,49.17,49.17,0,0,0,14.5,10.84,24.39,24.39,0,0,1-7.44-2.34,28.6,28.6,0,0,1-5.45-3.49,67.13,67.13,0,0,0,8.56,9.83,74.13,74.13,0,0,0,11.9,9.15,55.5,55.5,0,0,1-11.53-6.09,56.12,56.12,0,0,1-8.93-7.63,67,67,0,0,0,2.9,6.41A84.37,84.37,0,0,0,412,565.49C408.74,563,396.86,553.78,391.1,540,386.87,529.91,388.1,522.53,388.88,519.43Z"/><path class="cls-8" d="M410.94,583.12a17.49,17.49,0,0,0,12.91,13,10.26,10.26,0,0,1-7.55-1.5A26.34,26.34,0,0,0,428,604.05a20.45,20.45,0,0,1-6.72-2,20.16,20.16,0,0,1-5.13-3.62,36.77,36.77,0,0,0,1.56,4,37.35,37.35,0,0,0,5.83,9,26.48,26.48,0,0,1-11.83-14A26,26,0,0,1,410.94,583.12Z"/><path class="cls-8" d="M422,559.8a25.16,25.16,0,0,0,9.77,9.13,25.94,25.94,0,0,0,13.48,2.91,15,15,0,0,1-10.93,1.09,38.33,38.33,0,0,0,8.91,5,39,39,0,0,0,11.13,2.64A30,30,0,0,1,435.81,578a52.86,52.86,0,0,0,15.72,14.25,38.61,38.61,0,0,1-22.18-13.71A35.84,35.84,0,0,1,422,559.8Z"/><path class="cls-8" d="M448,548.12a15.5,15.5,0,0,0,6.46,5,16.4,16.4,0,0,0,8.41,1.09,9.33,9.33,0,0,1-3.6,1.26,9.63,9.63,0,0,1-3-.08,23.94,23.94,0,0,0,5.72,2.58,24.21,24.21,0,0,0,7,1,18.7,18.7,0,0,1-11.52-.64,32.3,32.3,0,0,0,2.62,2.61,33.39,33.39,0,0,0,7.76,5.14A24.09,24.09,0,0,1,453.49,559,21.26,21.26,0,0,1,448,548.12Z"/><path class="cls-8" d="M408,492.18a15.52,15.52,0,0,0,7.58,3,16.35,16.35,0,0,0,8.39-1.26,9.48,9.48,0,0,1-3.12,2.21,9.93,9.93,0,0,1-2.94.75,24.17,24.17,0,0,0,6.21.91,24.78,24.78,0,0,0,7-.91,19,19,0,0,1-5.74,2.22,18.74,18.74,0,0,1-5.51.32,35.21,35.21,0,0,0,3.23,1.79,33.46,33.46,0,0,0,8.87,2.81,24.09,24.09,0,0,1-15.71-2.92A21.31,21.31,0,0,1,408,492.18Z"/><path class="cls-8" d="M438.21,518.76a18.36,18.36,0,0,0,8.89,3.33,20,20,0,0,0,9.87-1.5,11.17,11.17,0,0,1-3.68,2.52,11.52,11.52,0,0,1-3.47.88,29,29,0,0,0,7.3,1,29.82,29.82,0,0,0,8.21-1.09,23.11,23.11,0,0,1-13.26,3,37.9,37.9,0,0,0,3.79,2,39.61,39.61,0,0,0,10.41,3.1,29.17,29.17,0,0,1-18.46-3.15A23.87,23.87,0,0,1,438.21,518.76Z"/><path class="cls-13" d="M287,675a85.22,85.22,0,0,0-2.28,11.76A89.16,89.16,0,0,0,287.32,721a98,98,0,0,1,2.75-46.36Z"/><path class="cls-14" d="M288.75,675.07a144.35,144.35,0,0,1-13.45,7.85c-9,4.62-13.59,6.92-17.93,6.16-7.65-1.33-11.93-10.25-14-14.57C233,653,242,629.05,244.48,623c2.28-5.54,2.58-4.51,17.73-27.76,13.71-21,20.61-31.67,23.18-38.93,3-8.41,8.53-24.08,7.84-37.54-.36-7.17.51-10.94,2.25-18.49a16.3,16.3,0,0,1,2.8-6.73c3.12-4.13,9.21-7.37,12.89-5.6,3.17,1.52,3.87,6.46,3.92,15.13.08,16.55-2.37,24-3.36,34.74-.91,9.81-2.43,26.22,5.6,41.47,3,5.75,3.64,4.18,15.13,20.17,8.14,11.33,12.2,17,14.57,22.42a72.26,72.26,0,0,1,5.55,34.27c-.8,11.78-1.57,23.12-10.06,29.5-6.62,5-14.6,4.44-20.71,4C305.77,688.58,294.21,679.9,288.75,675.07Z"/><path class="cls-15" d="M288.89,670.55l6.24-8.64a15.06,15.06,0,0,0,9.12.48c2.29-.66,4.46-2,10.08-8.64,5.48-6.48,8.21-9.72,9.12-12.48.4-1.21,3.16-10.11-1.92-18.24-4.8-7.68-13.82-10.19-19.68-10.08-3.14.06-3.68.84-8.64,1-6.3.15-8.08-1-12.48-1a25.23,25.23,0,0,0-13.92,4.32,23.69,23.69,0,0,0-9.6,19.2c.05,7.13,3.51,12.11,5.76,15.36,1.89,2.72,4.54,6.44,9.55,8.77a21.2,21.2,0,0,0,9.17,1.94Z"/><path class="cls-16" d="M317.17,634.24a11.79,11.79,0,0,1-3.9,6.37c-4.44,3.63-10,2.3-11.4,1.88-1.66-.48-4-1.16-5.34-3.45a7.63,7.63,0,0,1-.26-6.53,8.42,8.42,0,0,1,9.61-4.45,5.32,5.32,0,0,1,2.42,1.57c1.44,1.73,1.48,4.39.79,4.7s-1.85-2.31-3.67-2.14a2.59,2.59,0,0,0-2.2,2.24c-.07,1.37,1.5,2.34,2,2.63C309.12,639.49,316.09,635,317.17,634.24Z"/><path class="cls-16" d="M263.88,634.24a11.89,11.89,0,0,0,3.91,6.37c4.44,3.63,10,2.3,11.39,1.88,1.67-.48,4-1.16,5.34-3.45a7.55,7.55,0,0,0,.26-6.53,8.4,8.4,0,0,0-9.6-4.45,5.32,5.32,0,0,0-2.42,1.57c-1.44,1.73-1.48,4.39-.79,4.7s1.85-2.31,3.67-2.14a2.6,2.6,0,0,1,2.2,2.24c.06,1.37-1.51,2.34-2,2.63C271.93,639.49,265,635,263.88,634.24Z"/></g></g></svg>