<svg xmlns="http://www.w3.org/2000/svg" viewBox="0 0 841.89 1192.43"><defs><style>.cls-1{fill:#a9d19a;}.cls-2{fill:#b593c4;}.cls-3{fill:#f3d195;}.cls-4{fill:#97bc88;}.cls-5{fill:#8dcfd3;}.cls-6,.cls-7{fill:#fff;}.cls-6{opacity:0.3;}.cls-14,.cls-7{opacity:0.2;}.cls-8{fill:#f9be85;}.cls-9{fill:#b688b5;}.cls-10{fill:#f6eb68;}.cls-11{fill:#e37fa0;}.cls-12{fill:none;}.cls-13{fill:#84ccf2;}.cls-14{fill:#996e36;}.cls-15{fill:#9486b6;}.cls-16{fill:#a0a09f;}</style></defs><g id="Layer_2" data-name="Layer 2"><g id="Layer_1-2" data-name="Layer 1"><path class="cls-1" d="M841.89,899.64v292.79H0V948.83l35.71-16.18.93-.42,19-8.63,30-13.58,26.24-11.89,16.57-7.51,18.35-8.32,24.73-11.2.21-.1,40.46-18.33.34-.16,42.37-19.2h0l.88-.41L493.73,725.09h0l.09,0L770.92,864l16.44,8.25Z"/><path class="cls-2" d="M841.89,1.88V899.64l-54.53-27.36L770.92,864,493.84,725l-.07,0q0-15.08,0-30.15V682.6L493.63,459h0v0q0-57.36-.05-114.72a.21.21,0,0,1,0-.11q0-36.91,0-73.82s0,0,0,0q0-29.4,0-58.8h0q-.06-104.82-.11-209.63Z"/><path class="cls-3" d="M493.73,725.09v.12L255.86,833l-.89.4-42.38,19.2-.35.15h0L171.77,871l-.21.1-24.74,11.2-18.35,8.31-16.57,7.51L85.66,910h0l-49,22.19-.93.43L0,948.83V1.88H493.4q0,104.82.1,209.65,0,29.39,0,58.77,0,36.92,0,73.84v.11q0,57.38.05,114.75v0q0,111.78.1,223.57Q493.73,703.85,493.73,725.09Z"/><path class="cls-4" d="M405.25,1192.43H394a314.19,314.19,0,0,1-38.59-26.2c-11.93-9.49-28-22.29-38.92-37-1.66-2.25-7.55-10.26-16.3-20.93-2.72-3.31-5.87-7-9.73-11.25-9.64-10.63-18.63-20.54-32.66-31.23-13.17-10-24.83-16.25-40.76-24.72-6.57-3.5-13.76-7.3-23.71-11.69-16.68-7.36-22.57-8.18-39.07-14.69-9.37-3.7-21.38-8.45-34-15.7-15.19-8.68-21.67-15.44-41.41-32-10.06-8.47-24.64-20.4-43.06-34.28L85.66,910l0,.08a152.8,152.8,0,0,0,22.6,30.28l.43.43a129,129,0,0,0,15.58,13.53h0l1.18.89.46.33a211.69,211.69,0,0,0,25.38,15.75q2.85,1.51,5.57,2.88c.72.37,1.44.73,2.18,1.08l3,1.45c40.7,19.37,51.77,12.42,86.22,33l.37.22a272.45,272.45,0,0,1,25.75,17.75l.11.08c2.4,1.85,4.36,3.41,5.79,4.56,17.15,13.74,29.1,26.16,38.88,36.41l0,0c13.74,14.37,13,15.14,27.49,30.93l.14.16c15.57,17,28.16,30.79,46.3,45.24l1,.81c2.55,2,6.18,4.82,10.66,8a30,30,0,0,0-6.18,13.67C397.28,1176,399.79,1184.71,405.25,1192.43Z"/><circle class="cls-5" cx="654.61" cy="497.11" r="95.78"/><ellipse class="cls-6" cx="612.87" cy="465.63" rx="32.31" ry="21.18" transform="translate(-124.92 684.89) rotate(-53.78)"/><path class="cls-7" d="M657.75,401.38c8.36.3,35.26,2.32,59.31,22.94a97.25,97.25,0,0,1,29,44.6c2.32,7.54,11.06,39.26-5.87,72.16a97.57,97.57,0,0,1-75.08,51.23,115.29,115.29,0,0,0,47.32-48.87c4.79-9.56,19.15-39.19,9.39-74.5C708.74,421.53,663.1,403.4,657.75,401.38Z"/><ellipse class="cls-7" cx="583.54" cy="508.68" rx="7.72" ry="11.77" transform="translate(-105.93 156.69) rotate(-14.03)"/><path class="cls-4" d="M437.83,1156a50.79,50.79,0,0,0,15.12,5.11,51.9,51.9,0,0,0,25.54-2.2,50.28,50.28,0,0,1-15.35-9.25,50.82,50.82,0,0,1-13.88-20.24c-2.48-1.14-5.13-2.48-7.9-4.08-2.45-1.42-4.69-2.85-6.71-4.26a67.17,67.17,0,0,0,3.18,34.92Z"/><path class="cls-4" d="M477.8,1116.83c8.16,1,12.25,1.44,15.83,2.23a57.27,57.27,0,0,1,21.86,10.26,123.6,123.6,0,0,0-28.67-37.76l-39.13-6.18,17.17,30.11C467.92,1115.76,472.39,1116.19,477.8,1116.83Z"/><path class="cls-4" d="M534.69,1097.38a39.69,39.69,0,0,0,13.53.75,37.46,37.46,0,0,0,16-6.08,46.08,46.08,0,0,1-17.05-4,48,48,0,0,1-22-20.76l-32.27-6.25,27.57,31A48.9,48.9,0,0,0,534.69,1097.38Z"/><circle class="cls-5" cx="533.29" cy="240.9" r="49.46"/><ellipse class="cls-6" cx="514.44" cy="224.85" rx="16.68" ry="10.94" transform="translate(29.05 506.99) rotate(-53.78)"/><path class="cls-7" d="M534.91,191.47a49.11,49.11,0,0,1,45.61,34.87c1.2,3.9,5.71,20.28-3,37.27a50.42,50.42,0,0,1-38.77,26.45c3.35-1.33,20.35-8.43,28.64-27.53,7.36-17,3-32.28,1.46-37C560.79,201.31,538,192.59,534.91,191.47Z"/><ellipse class="cls-7" cx="507.26" cy="252.87" rx="3.98" ry="6.08" transform="translate(-46.18 130.55) rotate(-14.03)"/><circle class="cls-5" cx="449.53" cy="401.64" r="72.34"/><ellipse class="cls-6" cx="409.72" cy="371.79" rx="24.4" ry="16" transform="matrix(0.59, -0.81, 0.81, 0.59, -132.33, 482.62)"/><path class="cls-7" d="M451.91,329.35a71.77,71.77,0,0,1,66.7,51c1.76,5.7,8.36,29.66-4.43,54.51a73.75,73.75,0,0,1-56.7,38.69,98.65,98.65,0,0,0,24.62-35.38c3.1-7.65,12.36-31.54,4-60.6C478,349.37,458.35,334,451.91,329.35Z"/><ellipse class="cls-7" cx="387.85" cy="401.64" rx="5.83" ry="8.89" transform="translate(-85.82 106.04) rotate(-14.03)"/><path class="cls-8" d="M493.75,725.08v.11h0L255.85,832.94l-.89.4-42.38,19.2-.34.16h0L171.77,871l-.22.1-24.73,11.2-18.35,8.31h0l-16.58,7.5L85.66,910h0l-30,13.57-19,8.63-.93.42L0,948.82V904.28L35.14,888.5l37-16.59,1.21-.54,23.52-10.56L115,852.62l16.78-7.53,23.63-10.61h0l37.7-16.92.21-.1L232.26,800l1.05-.47,260.4-116.93h0Z"/><path class="cls-9" d="M592.31,1072.25l-1.51.48c-1.44.44-3,.88-4.58,1.31l-.62.16c-1,.25-2,.49-3,.73l-2.1.47-.22,0-2.82.55-.55.1-.92.16q-1.18.21-2.4.39c-.8.12-1.61.24-2.44.34l-1.33.17-1.85.2c-1.14.12-2.3.22-3.48.31-.61,0-1.22.09-1.85.12l-1.07.06h-.3l-.51,0-2.4.08h0c-.39,0-.78,0-1.16,0h-1.46c-.63,0-1.27,0-1.89,0s-1.26,0-1.87,0l-1.34-.05c-.83,0-1.65-.08-2.46-.14-1.34-.09-2.66-.2-3.95-.33-.74-.07-1.48-.14-2.23-.23a115.51,115.51,0,0,1-11.52-2h0c-1.42-.31-2.79-.66-4.13-1l-1-.25-.35-.1-1.68-.46-.14,0c-1.05-.31-2.06-.61-3-.92s-2-.64-2.92-1l-2.06-.73q-3.3-1.21-6.83-2.76c-3.21-1.41-6.17-2.89-8.9-4.37l-.88-.48-.84-.47c4.13,2.76,8.58,6,13.2,9.75l1.1.9c1.82,1.5,3.68,3.1,5.54,4.78l1.75,1.6c1.75,1.62,3.52,3.32,5.28,5.1q.67.67,1.32,1.35c.65.67,1.3,1.35,1.93,2s1.26,1.34,1.88,2q3.06,3.38,5.79,6.71l.63.77h0q3.45,4.27,6.39,8.41c.57.79,1.12,1.58,1.65,2.36l.19.26c.56.82,1.11,1.63,1.64,2.44,1.33,2,2.57,4,3.73,5.89.43.7.84,1.4,1.24,2.08s.8,1.37,1.18,2,.62,1.11.93,1.65l1.23,2.26-1.24-1q-2.5-1.92-5.36-3.92c-.48-.34-1-.68-1.45-1l-.2-.14c-.92-.63-1.86-1.26-2.83-1.89-.47-.31-.94-.62-1.42-.92-.72-.47-1.45-.93-2.2-1.39s-1.39-.86-2.1-1.28a1,1,0,0,0-.17-.1l-1.57-.93-.93-.54-1.26-.72-1-.58-1.68-.92-.2-.11c-1-.52-1.93-1-2.92-1.54-2.34-1.2-4.77-2.38-7.3-3.52-.61-.28-1.23-.56-1.86-.83l-1.64-.72c-1.74-.74-3.51-1.46-5.33-2.16-.74-.29-1.48-.57-2.24-.84s-1.48-.54-2.21-.8l-2.19-.76-2.2-.73-2.1-.66c-2.41-.75-4.76-1.41-7.05-2l-1.21-.31c-1-.24-1.92-.48-2.87-.7h0c-1-.24-2-.46-3-.67-1.26-.28-2.5-.53-3.72-.76-.61-.12-1.21-.24-1.81-.34l-1-.17-1.48-.25c-1.07-.18-2.17-.35-3.28-.51l-1.57-.22-1.27-.17c-.81-.11-1.62-.2-2.42-.29l-2.31-.24-1.91-.18-.93-.08-1.83-.14c.56,1.3,1.18,2.68,1.87,4.11.13.28.27.57.42.86q.5,1,1.05,2.1c.1.21.21.42.33.64s.27.52.42.79q.4.78.84,1.56c.28.53.58,1.07.9,1.61s.55,1,.84,1.47c.6,1,1.23,2.06,1.89,3.1.32.51.65,1,1,1.53.46.7.93,1.4,1.41,2.11.36.54.74,1.08,1.13,1.62.49.69,1,1.39,1.52,2.1.82,1.11,1.67,2.22,2.57,3.34l.17.21.17.21,0,0,1.3,1.58c.42.51.86,1,1.3,1.54s.81.92,1.21,1.37.9,1,1.36,1.49.9,1,1.35,1.44c.9.94,1.8,1.85,2.69,2.72.43.43.86.85,1.29,1.25l0,0c.41.4.83.79,1.24,1.16,1.11,1,2.21,2,3.28,2.92l1.06.9q2.11,1.77,4.07,3.26c-1.68.22-3.49.41-5.42.54l-.76,0c-1.36.09-2.77.15-4.24.17-.67,0-1.35,0-2.05,0h-1.57l-2-.07-1.42-.07-1.65-.12-.38,0c-.57,0-1.15-.1-1.73-.16l-1.12-.12c-.37,0-.75-.08-1.14-.13l-1.1-.15-1.07-.15-.25,0c-1.07-.16-2.12-.34-3.16-.54s-2.21-.44-3.29-.68c-1.43-.31-2.87-.67-4.34-1.08a90.52,90.52,0,0,1-13.81-5,85.6,85.6,0,0,1-9.12-4.84l-.23-.14-.06,0-.31-.2-.09,0-.78-.48-.18-.11-.67-.42a2,2,0,0,0-.29-.19l-.54-.35-.8-.53L436,1122l-.19-.13c-.14-.09-.28-.18-.41-.28l-.77-.53a76.47,76.47,0,0,0,3.18,34.92c.14.42.29.85.44,1.28a75.84,75.84,0,0,0,15.72,26A347.73,347.73,0,0,1,394.17,1146l-1-.81a294.94,294.94,0,0,1-33.56-30.82c-4.49-4.81-8.6-9.56-12.74-14.42l-.14-.16c-6.65-7.8-13.4-15.89-22-25.08l-.47-.51-.49-.53-.5-.54-.52-.56c-.17-.19-.35-.39-.54-.58l-1.13-1.19c-.18-.21-.39-.42-.59-.63-.4-.43-.82-.87-1.25-1.31l0,0c-5.73-5.92-12.25-12.3-20-19.32-9.05-8.24-16.72-15.23-24.71-21.65l-.11-.08A206.86,206.86,0,0,0,252.07,1012c-1.16-.71-2.3-1.39-3.41-2l-.37-.22c-32.77-19-43.71-12.57-85-32.43l-.3-.15-.31-.15-.27-.13h0l-3.31-1.61-2.18-1.08-2.81-1.43-2.76-1.45A197.19,197.19,0,0,1,126,955.58l-.54-.39-1.1-.83h0a150.54,150.54,0,0,1-15.58-13.53l-.43-.43a135.1,135.1,0,0,1-19.92-25.49c-.62-1-1.54-2.59-2.68-4.79l0-.08h0c-3.39-6.52-8.66-18.49-13.56-38.11q-1.28-5.1-2.51-10.92a346.85,346.85,0,0,1-7.26-65.75V795c-.15-10.24.16-19.23.61-26.58l0-.34c.61-9.72,1.47-16.54,1.85-19.6,1.09-8.79,2-17.59,2.86-26.35.06-.64.11-1.29.17-2C73,664,72.9,609,71.77,564.06v-.31c-.4-16.13-.93-31-1.41-44.15-.7-19.34-2-35.48-3.54-49.4,0-.11,0-.22,0-.33-1.3-11.31-2.83-21.14-4.48-30-.09-.47-.17-.94-.26-1.42-2.57-13.6-5.39-24.95-8-36l-.09-.35c-2.43-10.12-4.72-20-6.54-31.08,0-.21-.07-.42-.1-.63s-.08-.55-.13-.89c0-.16-.05-.33-.08-.52a303.87,303.87,0,0,1-3.54-41.19l0-1.09c-.18-8.51-.12-17.86.24-28.3.12-3.54.26-7,.41-10.35l.09-1.8c0-.64.07-1.29.1-1.94.11-2.1.23-4.16.35-6.2,1.47-25.26,3.84-45.3,6.38-63,.09-.6.17-1.18.25-1.76.12-.8.23-1.57.34-2.33s.26-1.73.39-2.57c.08-.54.16-1.06.24-1.58,2.71-18.16,5.48-34.1,7.38-51.22,0-.07,0-.13,0-.2A382.93,382.93,0,0,0,62,114.57c0-7.63-.14-16.48-.79-26.45l-.09-1.45a417.15,417.15,0,0,0-14.11-82l-.15-.53c-.19-.71-.39-1.42-.59-2.13l20.47-.12H213.62q.49,2.72.95,5.4c.23,1.34.46,2.68.67,4A703.72,703.72,0,0,1,223.55,89c.34,6.6.7,13.66.91,21.6l0,2c.16,7.27.16,15.28-.13,24.37-.73,23-3.12,41.92-5.67,67.76-1.29,13.31-2.64,28.45-3.82,46.92,0,.12,0,.24,0,.36-.08,1.23-.16,2.49-.23,3.77l-.09,1.56s0,.1,0,.15c-.06,1.1-.13,2.21-.19,3.34,0,.09,0,.17,0,.26q-.1,1.56-.18,3.15c-.09,1.52-.17,3.07-.25,4.63s-.16,3.14-.24,4.77c-.05,1-.1,1.93-.14,2.92a.91.91,0,0,0,0,.17c-.31,6.81-.59,14-.85,21.67-.37,11.18-.61,21.52-.73,31.12,0,.63,0,1.27,0,1.91s0,1.46,0,2.19c0,.38,0,.77,0,1.15-.18,20.34.17,37.31.84,52,0,.08,0,.16,0,.24s0,.27,0,.4c1.08,23.61,3,41.39,4.74,58,3.58,33.64,6.69,62.53,1.72,125.37-3.64,46.09-2.44,80.19,0,148.39,1,28.82,2.6,56.3,13.1,80.8a105.55,105.55,0,0,0,16.92,27.28,72.65,72.65,0,0,0,5.74,6h0l0,0h0c4.11,3.81,9.65,8,19.12,14.17l.3.19.84.55c3.69,2.38,7.95,5,12.93,8.11l2.35,1.43,3.89,2.36.24.14,1.28.77.55.33.85.51.24.14.76.45c73.91,44.2,83.57,37.62,117.85,64A364.2,364.2,0,0,1,447.54,954h0c4.18,4.07,8.26,8.18,12.21,12.27l.16.17.13.13c17.23,17.86,31.93,35.2,40.89,45.77,6.52,7.69,17.78,21.33,36.8,34.57A177,177,0,0,0,592.31,1072.25Z"/><path class="cls-10" d="M499.81,1137.12c-1.68.22-3.49.41-5.42.54l-.76,0c-1.36.09-2.77.15-4.24.17-.67,0-1.35,0-2.05,0h-1.57l-2-.07-1.42-.07-1.65-.12-.38,0c-.57,0-1.15-.1-1.73-.16l-1.12-.12c-.37,0-.75-.08-1.14-.13l-1.1-.15-1.07-.15-.25,0c-1.07-.16-2.12-.34-3.16-.54s-2.21-.44-3.29-.68a92.73,92.73,0,0,1-18.17-6.19c-1-.45-1.94-.91-2.86-1.37l-1-.5-1.65-.87c-1.86-1-3.55-2-5.08-2.94l-.18-.11-.67-.42a2,2,0,0,0-.29-.19l-.54-.35-.8-.53-.08-.06-.71-.47-.77-.53c-23.84-21.82-41.95-41-54.4-54.92-21.18-23.66-30.16-36.71-51.81-51.23-15.88-10.65-12.68-8.54-39.58-21.16a625.25,625.25,0,0,1-55.48-29.61s-27.44-13.13-67.6-37A117.53,117.53,0,0,1,145.71,913a80.32,80.32,0,0,1-13.28-15.51,71.2,71.2,0,0,1-4-6.81h0a131.85,131.85,0,0,1-6.85-16.6c-2.64-7.54-4.81-14.76-6.57-21.4a269.84,269.84,0,0,1-7.22-36.78c-1.87-16.06-1.29-41.21.09-89.61h0q.09-3.11.18-6.34c.78-27.07,1.17-40.6,2-54.2,1.48-24.56,2.75-32.24,2.94-50.29.21-19.52-1.06-30.56-2.25-48.06-2.68-39.33-.78-50.19-2-80a407.91,407.91,0,0,0-5.7-55.88h0C97.47,399.14,90,379.22,89.59,328.6c-.11-14.77-.25-32,2.22-54.59.12-1.08.24-2.18.37-3.29,2.51-21.39,4.8-25.79,12.09-73.43.27-1.76,2.55-16.71,5.18-36.71,2.61-19.79,3.92-29.87,4.32-38.87.8-17.75-.81-30.93-2.59-44.92A441.3,441.3,0,0,0,94.82,1.88H144.1a448.19,448.19,0,0,1,8.26,59.28v0a.57.57,0,0,1,0,.13,434.53,434.53,0,0,1-.15,66c-1.81,21.22-3.88,25-8,54.1,0,.13,0,.26-.05.39-.58,4.06-1.2,8.61-1.86,13.76-2.76,21.49-4.34,38.25-5.09,46.7l-.09.94c-.61,7-1.19,13.44-1.69,19.64v0c-1.46,17.85-2.35,33.57-2.2,53.21,0,2.91,0,6,.1,9.37,0,.48,0,1,0,1.44V327c0,.25,0,.49,0,.74l0,1.59a422.19,422.19,0,0,0,4.2,53.37c1,7.13,1.93,11.82,3.3,22.67,1.33,10.47,2.22,19.71,4.24,45.45.06.69.12,1.39.17,2.1a.91.91,0,0,1,0,.17c.66,8.48,1.16,14.84,1.56,20.1q.1,1.41.21,2.85c.05.59.09,1.19.13,1.79.08,1.11.16,2.23.24,3.37,0,.54.07,1.07.11,1.6l.06.87c0,.49.07,1,.1,1.47,0,.25,0,.51.05.77,0,.52.07,1.14.12,1.85,0,.36,0,.75.07,1.15s.06.86.08,1.3l.09,1.44c.08,1.39.17,2.79.25,4.21,0,.56.07,1.12.1,1.69v0c0,.4,0,.81.07,1.21.08,1.37.15,2.82.24,4.36s.16,3.21.24,4.85c.07,1.41.13,2.84.2,4.29.75,15.85,1.55,37.49,1.85,62.53.51,42.37.76,63.55-1.1,87.61-1.75,22.56-4.31,40.23-4.25,71.45v0c0,14.83.64,25.9,1.13,34.38v.12a.57.57,0,0,0,0,.13c1.18,20.62,2,34.51,4.41,48,0,0,0,.07,0,.11.94,5.27,2.13,10.48,3.67,16h0l.36,1.31.15.53c.28,1,.56,2,.82,2.92v0c0,.08,0,.16.07.25,3.13,11.09,5.58,18.52,11.06,27.21a1.76,1.76,0,0,0,.14.23,63.93,63.93,0,0,0,4.19,5.9s0,0,0,0h0c6,7.55,16.69,17.35,40.78,32.38l.1.06c13.61,8.5,25.79,15.09,43.07,23.75l.14.07c53.76,27,70.47,30.75,101,52.37l.05,0,.12.09a236.75,236.75,0,0,1,22.07,17.09h0c23.45,20.74,27.66,33.59,54.23,57.78l.36.32,1.24,1.12,1.26,1.12,1.47,1.3c.5.45,1,.89,1.5,1.31l.14.13,2.22,1.93,1.07.92c.34.28.68.58,1,.88l.51.43.64.54.64.54.6.51.85.72,2.47,2.07,1.52,1.26,4.4,3.6c8.1,6.62,15.3,12.17,21.22,16.57h0c.43.34.86.65,1.28,1l1.47,1.09-.69-.11c-1.07-.18-2.17-.35-3.28-.51l-1.57-.22-1.27-.17c-.81-.11-1.62-.2-2.42-.29l-2.31-.24-1.91-.18-.93-.08-1.83-.14c.56,1.3,1.18,2.68,1.87,4.11.13.28.27.57.42.86q.5,1,1.05,2.1c.1.21.21.42.33.64s.27.52.42.79q.39.76.84,1.56c.28.53.58,1.07.9,1.61s.55,1,.84,1.47c.6,1,1.23,2.06,1.89,3.1.32.51.65,1,1,1.53.46.7.93,1.4,1.41,2.11.37.54.74,1.08,1.13,1.62.49.69,1,1.39,1.52,2.1.82,1.11,1.68,2.22,2.57,3.34h0l.16.21.17.21,0,0,1.3,1.58c.84,1,1.68,2,2.51,2.91.45.51.9,1,1.36,1.49s.9,1,1.35,1.44c.9.94,1.8,1.85,2.69,2.72.43.43.86.84,1.29,1.25l0,0,1.24,1.16c1.11,1,2.21,2,3.28,2.92l1.06.9Q497.85,1135.63,499.81,1137.12Z"/><path class="cls-11" d="M592.31,1072.25l-1.51.48c-1.44.44-3,.88-4.58,1.31l-.62.16c-1,.25-2,.49-3,.73-.68.16-1.38.32-2.1.47l-.22,0-2.82.55-.55.1-.92.16q-1.18.21-2.4.39c-.8.12-1.61.24-2.44.34l-1.33.17-1.85.2c-1.14.12-2.3.22-3.48.31-.61,0-1.22.09-1.85.12l-1.07.06h-.3l-.51,0-2.4.08h0c-.39,0-.78,0-1.16,0h-1.46c-.63,0-1.27,0-1.89,0s-1.26,0-1.87,0l-1.34-.05c-.83,0-1.65-.08-2.46-.14-1.34-.09-2.66-.2-3.95-.33a117.62,117.62,0,0,1-13.78-2.22c-1.42-.31-2.79-.64-4.11-1l-1.31-.35-1.68-.46-.14,0c-1.05-.31-2.06-.61-3-.92s-2-.64-2.92-1l-2.06-.73-1.5-1.5-.92-.91-.95-.94-2.45-2.43-.85-.86q-5.46-5.4-11.8-11.58l-3.46-3.37c-12.83-12.45-28.07-26.94-45.38-42.8q-6.53-6-12.33-11.29c-11.79-10.78-21.53-19.61-30.06-27l0,0c-12.87-11.17-23-19.14-33.34-25.76-2.07-1.33-3.88-2.45-5.55-3.45l-.15-.09-.53-.32c-11.11-6.54-17.11-7.88-58.38-27.71l-2-1-.25-.12-1.5-.72c-3.54-1.71-7.32-3.55-11.37-5.53-5.1-2.49-10.62-5.21-16.61-8.17l-.26-.13-1.23-.61c-27.44-13.6-47.08-23.73-62-41.73h0l0,0a96.41,96.41,0,0,1-7-9.49,105.5,105.5,0,0,1-7.82-14.42c-.1-.22-.19-.45-.29-.67a111,111,0,0,1-4-10.54c-1-3.24-1.87-6.22-2.56-8.88a292.71,292.71,0,0,1-7.81-45.89c0-.5-.09-1-.14-1.48s-.12-1.22-.17-1.82c-.11-1.3-.22-2.59-.32-3.88a.34.34,0,0,0,0-.1c-.08-1-.15-2-.21-3s-.12-1.92-.18-2.83c0-.66-.07-1.3-.11-1.92q0-.57-.06-1.11c0-.66-.07-1.3-.1-1.92l0-.66c-.28-6.29-.42-12.54-.43-18.71v-.86c-.07-31.23,2.78-60.62,4.45-84.95,2.38-34.71,2.84-65.74,2.46-91.89,0-.74,0-1.49,0-2.24v-.22c-.09-4.56-.19-9.59-.34-15.1,0-.6,0-1.21,0-1.82-.57-18.31-1.45-33.47-2.15-44.91-.6-9.94-1.24-18.49-1.89-26,0-.49-.08-1-.13-1.48-.09-1-.18-2-.28-2.95s-.18-2-.28-3q-.21-2.14-.42-4.17c-4.08-38.71-8.62-45.1-10.54-90.77l-.06-1.37,0-.8c0-.8-.07-1.64-.1-2.52s-.07-1.81-.09-2.77c0-.66,0-1.33-.05-2s0-1.4,0-2.13c-1-40.53,1.83-78.66,5.95-117.13v0c1.78-16.68,3.81-33.41,5.87-50.43,0,0,.86-5.8,1.88-16.48,0-.06,0-.12,0-.18,0-.42.08-.87.12-1.34.71-7.5,1.47-17.19,2.08-28.82.07-1.2.13-2.42.19-3.65.76-15.71,1.23-34.65.94-56.2,0-2.94-.14-7.15-.54-12.36,0-.35-.06-.7-.09-1.06s-.09-.87-.13-1.31q-.28-3.17-.76-6.72c0-.22-.06-.44-.08-.66-.21-1.52-.45-3.08-.73-4.69-.58-3.47-1.31-7.15-2.22-11a168.33,168.33,0,0,0-10-29.57h39.68q.49,2.72.95,5.4c.23,1.34.46,2.68.67,4a672.27,672.27,0,0,1,9.22,99.3l0,2c.12,8.91,0,17-.13,24.37-.71,29.36-3.06,43.1-5.67,67.76-1.27,12-2.59,26.64-3.82,46.92,0,.12,0,.24,0,.36-.08,1.23-.16,2.49-.23,3.77l-.09,1.56s0,.1,0,.15c-.06,1.08-.12,2.2-.19,3.34,0,.09,0,.17,0,.26q-.1,1.56-.18,3.15c-.08,1.5-.16,3-.25,4.63s-.16,3.14-.24,4.77c-.05,1-.1,1.93-.14,2.92a.91.91,0,0,0,0,.17c-.72,14.69-1.4,32.46-1.58,52.79,0,.63,0,1.27,0,1.91s0,1.46,0,2.19c0,.38,0,.77,0,1.15-.09,15.94.13,33.35.84,52,0,.08,0,.16,0,.24s0,.27,0,.4c1.2,31.24,3,45.48,4.74,58,1.82,13.29,3.51,24.64,4.21,52.3,1.36,53.67-3.66,64.5-4.12,158.22,0,6.73.93,28.07,2.87,70.77,1.43,31.73,2.33,47.23,10.25,66.77.85,2.09,1.72,4.11,2.62,6a123.58,123.58,0,0,0,18.21,28.75c1.42,1.63,2.84,3.17,4.29,4.63l0,0h0a111.2,111.2,0,0,0,18.23,14.57l.3.19.84.55c3.82,2.52,8.08,5.16,12.93,8.11l2.35,1.43,3.89,2.36.24.14,1.28.77.55.33.85.51.24.14.76.45c8.06,4.74,20.9,11.84,47.58,25,35.59,17.57,35.09,16,46.27,22.13,20.86,11.5,34.57,23.68,55.37,44.38h0c3.8,3.79,7.84,7.86,12.21,12.27l.16.17.13.13c39.4,39.79,38.94,48,63,67.56A226.49,226.49,0,0,0,592.31,1072.25Z"/><path class="cls-12" d="M176.57,0h0Z"/><path class="cls-13" d="M554.35,1125.06l-1.24-1q-2.5-1.92-5.36-3.92c-.48-.34-1-.68-1.45-1l-.2-.14c-.92-.63-1.86-1.26-2.83-1.89-.47-.31-.94-.62-1.42-.92-.72-.47-1.45-.93-2.2-1.39s-1.39-.86-2.1-1.28a1,1,0,0,0-.17-.1l-1.57-.93-.93-.54-1.26-.72-1-.58c-.55-.32-1.11-.62-1.68-.92l-.2-.11c-1-.52-1.93-1-2.92-1.54-2.34-1.2-4.77-2.38-7.3-3.52-.61-.28-1.23-.56-1.86-.83l-1.64-.72c-1.74-.74-3.51-1.46-5.33-2.16l-2.24-.84c-.74-.28-1.48-.54-2.21-.8l-2.19-.76-2.2-.73-2.1-.66c-2.41-.75-4.76-1.41-7.05-2l-1.21-.31c-1-.24-1.92-.48-2.87-.7h0c-1-.24-2-.46-3-.67-1.26-.28-2.5-.53-3.72-.76l-1.81-.34-1-.17-.79-.14-1.47-1.09-1.28-1c-9.48-7.13-18-13.86-25.65-20.18l-1.52-1.26-2.47-2.07-.85-.72-.6-.51-.64-.54-.64-.54-.51-.43c-.35-.3-.69-.6-1-.88l-1.07-.92-2.22-1.93-.14-.13-1.5-1.31-1.47-1.3L435,1056.1l-1.24-1.12-.36-.32c-17.81-16-29.49-29-37.46-39.06a161.41,161.41,0,0,0-16.77-18.72h0a143.48,143.48,0,0,0-13.85-11.55c-2.9-2.13-5.65-4-8.34-5.63l-.05,0c-9.59-5.91-18.47-9.53-31.18-15.5a622.46,622.46,0,0,1-55.48-29.61s-5.2-2.49-14.38-7.26l-.14-.07c-10.12-5.26-25-13.26-43.07-23.75l-.1-.06q-4.81-2.79-9.92-5.82c-8.69-5.16-21-12.63-31.07-26.46h0s0,0,0,0c-.77-1.05-1.52-2.13-2.26-3.25-.59-.91-1.17-1.82-1.72-2.75a1.76,1.76,0,0,1-.14-.23,98.86,98.86,0,0,1-8.95-20.46c-.75-2.27-1.46-4.53-2.11-6.75,0-.09-.05-.17-.07-.25v0c-.29-1-.56-1.95-.83-2.91,0-.18-.1-.36-.14-.54l-.36-1.31h0c-1.51-5.58-2.71-11-3.67-16,0,0,0-.08,0-.11a235.24,235.24,0,0,1-4-36.56c-.13-4-.26-7.74-.38-11.39a.57.57,0,0,1,0-.13v-.12c-.45-13.32-.83-24.68-1.13-34.38v0c-.68-21.89-1-35.3-.76-43.62,1.87-80.5,5.54-83,5.34-133.44-.07-17.86-.58-34.15-1.28-48.82-.08-1.64-.16-3.26-.24-4.85s-.16-3-.24-4.36c0-.4,0-.81-.07-1.21v0c0-.57-.06-1.13-.1-1.69-.08-1.42-.17-2.82-.25-4.21l-.09-1.44c0-.44-.05-.87-.08-1.3s-.05-.79-.07-1.15c-.05-.71-.09-1.33-.12-1.85,0-.26,0-.52-.05-.77,0-.49-.07-1-.1-1.47l-.06-.87c0-.53-.07-1.06-.11-1.6-.08-1.14-.16-2.26-.24-3.37,0-.6-.08-1.2-.13-1.79q-.1-1.44-.21-2.85-.6-8.32-1.18-15.51c-.12-1.57-.25-3.1-.38-4.59a.91.91,0,0,0,0-.17c-.05-.71-.11-1.41-.17-2.1C139.86,388.31,135.45,387,133.77,344q-.3-7.45-.4-14.68l0-1.59c0-.25,0-.49,0-.74v-.13c-.31-23.66.68-45.29,2.08-64v0c.52-7,1.1-13.52,1.69-19.64l.09-.94c.87-9,1.76-16.94,2.53-23.81,1.23-11.06,2.71-22.56,4.42-36.65,0-.13,0-.26.05-.39,1.95-16.2,4.21-35.84,6.76-62.1a362.67,362.67,0,0,0,1.42-58,.57.57,0,0,0,0-.13v0q-.29-5.14-.75-10.57A358.27,358.27,0,0,0,144.1,1.88h33.05a278.29,278.29,0,0,1,9.07,40.25h0c.26,1.75.49,3.42.69,5,0,.22.05.44.08.66q.44,3.41.76,6.72c0,.44.08.88.13,1.31s.07.71.09,1.06c1.95,21.52,1,40.89-.37,68.06l0,.5c-.06,1.23-.12,2.45-.19,3.65-.68,12.17-1.54,22.48-2.08,28.82,0,.47-.08.92-.12,1.34,0,.06,0,.12,0,.18-1.69,19.48-3.36,32.53-4.55,42.53s-2.16,19.4-3,28.23c-1.62,17.4-2.67,32.92-3.73,48.58-2.3,33.79-2.63,52.57-2.44,64.73,0,.73,0,1.44,0,2.13s0,1.35.05,2c0,1,0,1.88.09,2.77s.06,1.72.1,2.52l0,.8.06,1.37c.46,9.81,1,17.42,1.71,24.21,2.07,19.38,5.31,31.79,8.83,66.56q.21,2,.42,4.17c.1,1,.19,2,.28,3s.19,2,.28,2.95c.05.5.09,1,.13,1.48,2.56,28.38,3.55,52.21,4,70.89,0,.61,0,1.22,0,1.82.15,5.51.25,10.54.34,15.1v.22c0,.75,0,1.5,0,2.24.71,36.66,1.05,56.68-1.14,85.14-1.41,18.51-3.77,39.17-5.26,73.83-.25,5.85-.46,11.66-.51,17.87v.86c0,5.78.08,11.9.43,18.71l0,.66c0,.62.07,1.26.1,1.92q0,.54.06,1.11c0,.64.07,1.28.11,1.92.06.91.12,1.86.18,2.83s.13,1.94.21,3a.34.34,0,0,1,0,.1c.1,1.29.21,2.58.32,3.88.05.6.11,1.2.17,1.82s.09,1,.14,1.48c.76,7.5,1.92,16.12,3.83,25.53,2.27,11.17,4.18,20.6,6.75,29.14a111.28,111.28,0,0,0,3.76,10.64c.1.22.19.45.29.67a86.15,86.15,0,0,0,7.82,14.42,77.91,77.91,0,0,0,7.31,9.33l0,0h0c8.86,9.65,20.22,17,38.83,28.71,8.39,5.28,15.82,9.49,24.08,13.78l.26.13c5.06,2.62,10.44,5.27,16.53,8.21,3.54,1.72,7.33,3.53,11.45,5.49l1.5.72.25.12,2,1c36.32,17.23,40.72,16.86,58.38,27.71l.53.32.15.09c13.44,8.32,22.36,15.55,38.89,29.21l0,0,2.54,2.09c9.55,7.88,18,15.4,29.1,25.73h0c6.4,5.93,13.71,12.79,22.65,21.2,3,2.79,16.18,15.23,33.47,32.07l3.46,3.37c4.31,4.22,8.25,8.1,11.77,11.58l.88.86,2.45,2.43.95.94.92.91,1.5,1.5q-3.3-1.21-6.83-2.76c-3.21-1.41-6.17-2.89-8.9-4.37l-.88-.48-.84-.47c4.13,2.76,8.58,6,13.2,9.75l1.1.9c1.82,1.5,3.68,3.1,5.54,4.78l1.75,1.6c1.75,1.62,3.52,3.32,5.28,5.1q.67.67,1.32,1.35c.65.67,1.3,1.35,1.93,2s1.26,1.34,1.88,2q3.06,3.38,5.79,6.71l.63.77h0q3.45,4.27,6.39,8.41c.57.79,1.12,1.58,1.65,2.36l.19.26c.56.82,1.11,1.63,1.64,2.44,1.33,2,2.57,4,3.73,5.89.43.7.84,1.4,1.24,2.08s.8,1.37,1.18,2,.62,1.11.93,1.65Z"/><path class="cls-7" d="M164.67,45.29c1.63,20,2.69,41,3,62.93a946.37,946.37,0,0,1-7.75,135l16.6-32.09q1.66,28.77,3.32,57.54a561.9,561.9,0,0,0,15.49-85.21A566.9,566.9,0,0,0,188.7,21.91L181,85Z"/><path class="cls-7" d="M104,244.34c-1.62,20-2.69,41-3,62.93a947.78,947.78,0,0,0,7.75,135l-16.6-32.09Q90.47,439,88.8,467.72a562,562,0,0,1-15.49-85.2A567.68,567.68,0,0,1,80,221Q83.82,252.5,87.7,284,95.83,264.19,104,244.34Z"/><path class="cls-7" d="M128.53,721.86A231.69,231.69,0,0,0,161,906.56l-21.43-9.11q9,22.66,18,45.35c-12.44-7.59-31.68-21.68-46.09-45.39-18.21-30-18.91-59.2-19.35-98A385,385,0,0,1,104.5,698.48q3.87,31.53,7.75,63.07Z"/><path class="cls-7" d="M438.89,1028.68A263.21,263.21,0,0,0,271,915.79l26.89-15.7-42.76-23.46a296.69,296.69,0,0,1,65.39,15.89A309.24,309.24,0,0,1,408.19,943a315.78,315.78,0,0,1,63.87,70.8l-52-26.73Q429.48,1007.88,438.89,1028.68Z"/><path class="cls-14" d="M85.66,910h0L35.71,932.66h0c-.15-16.15-.35-30.95-.57-44.15-.27-17.12-.58-31.55-.83-42.77C33,790.28,32,774.79,33.62,745.14c1.9-34.38,4.69-37.75,7.85-74.29,4.36-50.4,3-89.09,1.83-118-2.4-60.94-8-68-14.24-137.33C22.25,339.92,17.14,280,25,204c2.59-25,6-45.6,8.05-73.82,1.36-18.69,1.58-32.84,1.67-37.2a763,763,0,0,0-3.6-91.14H46.25c.22.75.43,1.5.65,2.25l.15.53a389,389,0,0,1,14.11,82l.09,1.45a428.5,428.5,0,0,1-1.58,67.38c0,.07,0,.13,0,.2-.3,3-.58,5.6-.82,7.81-2,18.6-4.06,27.3-6.56,43.41-.08.52-.16,1-.24,1.58-.13.84-.26,1.69-.39,2.57s-.22,1.53-.34,2.33c-.08.58-.16,1.16-.25,1.76-.91,6.49-1.89,14.18-2.95,23.77-1.43,12.89-2.59,25.46-3.43,39.19-.12,2-.24,4.1-.35,6.2,0,.65-.07,1.3-.1,1.94l-.09,1.8c-.64,12.41-1.12,24-.65,38.65l0,1.09A389,389,0,0,0,47.05,369c0,.19.06.36.08.52,0,.34.09.64.13.89s.06.42.1.63a276.44,276.44,0,0,0,6.54,31.08l.09.35c2.39,9.2,5,19.22,8,36,.09.48.17.95.26,1.42,2.29,12.9,3.52,22.56,4.48,30,0,.11,0,.22,0,.33,4.25,33.38,4.83,60.63,5,93.25v.61c.22,60.74.32,91.24-2.12,130.84-.6,9.68-1.21,18-1.81,25.26-.06.66-.11,1.31-.17,2C65.77,744.39,64,756.45,63,768.06l0,.34A218.14,218.14,0,0,0,62.32,795v.26c0,.16,0,.33,0,.49a348.3,348.3,0,0,0,11,75.64A366.72,366.72,0,0,0,85.65,910h0Z"/><path class="cls-15" d="M841.89,849v50.66l-54.53-27.36L770.92,864,493.84,725v0l-.09-30.19,0-12.24h0Z"/><path class="cls-16" d="M823.24,1138.3a.74.74,0,0,0-.54-.54.61.61,0,0,0-.27,0,1.07,1.07,0,0,0-.54.27,10.26,10.26,0,0,0-.81.81c-.15.15-.28.26-.37.34a9.49,9.49,0,0,1-1,.73c-1.6,1.06-1.67,1.17-2.43,1.62a21.88,21.88,0,0,1-5.94,2.43c-.56.13-1,.22-1.34.27a5.57,5.57,0,0,0,1.88-1.62,5.14,5.14,0,0,0,1.08-3,4.45,4.45,0,0,0-1.08-3.23,4.75,4.75,0,0,0-3.23-1.35,7.17,7.17,0,0,0-4,.81,7.69,7.69,0,0,0-3.5,4v-10a1.15,1.15,0,0,0-1.08-.8,1.11,1.11,0,0,0-1.08.8v9.44l-3.78,2.16a9.87,9.87,0,0,1-2.43,1.08,6.27,6.27,0,0,1-2.15.27,3.54,3.54,0,0,1-1.89-.54,3.41,3.41,0,0,1-.79-.77,7.78,7.78,0,0,1-1.1-2.2,15.65,15.65,0,0,0-1.35-2.69,2.09,2.09,0,0,0-1.35-1.08c-.15,0-.66-.06-1.88,1.08a33.05,33.05,0,0,0-3,3.5,8,8,0,0,1-.81.81c-.42.38-.63.56-.81.54s-.45-.4-.81-1.89a28.67,28.67,0,0,0-.81-3.23,3.2,3.2,0,0,0-.81-1.35,1.92,1.92,0,0,0-.81-.54c-1-.25-2.11,1-3.77,3-.75.87-.89,1.12-1.62,1.88-.35.37-1.3,1.34-1.62,1.62l-.35.34-.19.2c-.18.21-.22.28-.27.27s-.05-.89,0-1.89v-4.58a.78.78,0,0,0,0-.27,1.07,1.07,0,0,0-.27-.54,1.64,1.64,0,0,0-1.89,0,.77.77,0,0,0-.27.27c-.08.18,0,.33,0,.81v9.17a2,2,0,0,0,0,.27,2.13,2.13,0,0,0,0,.27,1.11,1.11,0,0,0,.27.54,1.18,1.18,0,0,0,.54.27c.31.05.78,0,2.16-1.35.51-.48.81-.8.81-.81a21.16,21.16,0,0,0,2.66-2.8c.91-1.09,1.66-2.05,1.66-2.05a4.74,4.74,0,0,1,.49-.55l.11-.1.21-.16a1,1,0,0,1,.53-.27c.3,0,.5.65.54.81.4,1.33.59,2,.81,3,.35,1.56.6,2.08,1.08,2.43a1.89,1.89,0,0,0,.54.27c1,.29,2-.53,2.7-1.08a12.17,12.17,0,0,0,2.16-2.43c.19-.28.48-.63,1.08-1.35.42-.5.7-.82,1.07-.8a.88.88,0,0,1,.54.27,2.69,2.69,0,0,1,.81,1.34c.31.87.19.94.48,1.64a5.48,5.48,0,0,0,.6,1.06,5.07,5.07,0,0,0,.81.81,7.09,7.09,0,0,0,1.89,1.08,6.48,6.48,0,0,0,3.77,0,15.8,15.8,0,0,0,4-1.89c.79-.43,1.44-.81,1.89-1.08l.54-.27v26.7a9.73,9.73,0,0,1,0,1.08.79.79,0,0,0,0,.27,1,1,0,0,0,.27.54,1.22,1.22,0,0,0,1.62,0,1.29,1.29,0,0,0,.27-.54,1.48,1.48,0,0,0,0-.54V1145c.59.15,1.42.35,2.42.54a25.46,25.46,0,0,0,4.59.54,17.48,17.48,0,0,0,5.93-1.08,22,22,0,0,0,4.59-2.43c.59-.39.65-.45,1.55-1.08a9.83,9.83,0,0,0,1.41-1.08c.39-.36.54-.54.81-.81l.54-.53A.81.81,0,0,0,823.24,1138.3ZM809,1142.61a6.43,6.43,0,0,1-7,.27c.51-1,1-1.83,1.35-2.43a8.59,8.59,0,0,1,1.62-2.15,4.4,4.4,0,0,1,2.16-1.08,3.3,3.3,0,0,1,2.7.54,2.94,2.94,0,0,1,1.08,2.15C810.82,1141.25,809.65,1142.08,809,1142.61Z"/><rect class="cls-12" y="1.88" width="841.89" height="1190.55"/></g></g></svg>