<svg xmlns="http://www.w3.org/2000/svg" viewBox="0 0 877.25 1220.14"><defs><style>.cls-1{fill:#f9eff7;}.cls-2{fill:#498845;}.cls-3{fill:#b3b2b2;}.cls-4{fill:#d4e6c3;}.cls-5{fill:#eef6eb;}.cls-6{fill:#dcdddb;}.cls-7{fill:#c5c5c4;}</style></defs><g id="Layer_2" data-name="Layer 2"><g id="Layer_1-2" data-name="Layer 1"><rect class="cls-1" width="877.25" height="1220.14"/><path class="cls-2" d="M401.68,258.47a60.48,60.48,0,0,0-4.08,10,61.81,61.81,0,0,0-2.51,13.83c-.22,2.42-.29,4.47-.32,6a5.92,5.92,0,0,0,.13,1.57,4.82,4.82,0,0,0,4.94,4c.1,5,.13,11.64-.16,19.55-.06,1.69-.28,7.56-1.24,19.47s-2,22.07-3,30.21c-1,8.51-2,17.57-3.89,29.59-.83,5.33-2.27,13.26-5.14,29.12-2.07,11.43-3.13,17.25-4.21,22.58-2,9.92-3.7,17.14-5.6,25.23-3.62,15.36-5.95,25.23-9.82,38.46-2.5,8.58-5.25,17.2-7.47,24.14-2.76,8.64-5.61,17.44-5.61,17.44-3.64,11.28-4,12.34-5,15.73-1.9,6.8-3,12.07-4.21,17.76-1.08,5.14-2,9.59-2.95,15.72-1.61,10.49-2.08,18.35-2.18,20.25s-.2,4-.32,13.7c-.1,9-.16,13.52-.15,20.56,0,17.91-.22,35.82-.31,53.73-.15,28-.23,42-.31,54.66-.21,29.19-.28,30.64-.32,45.94,0,12.62,0,26.08,0,41.58,0,25.46.08,25,0,30.52-.14,10.58-.17,21.16-.3,31.73,0,.47-.07,5.85.17,13,.17,4.8.37,7.1.5,8.52.57,5.8.93,4.72,1.34,9.59a23.54,23.54,0,0,0,1.58,8,19.38,19.38,0,0,0,1.17,2.18,20.18,20.18,0,0,0,3,3.56,24.69,24.69,0,0,0,8.62,4.6c12.46,3.56,28,4.76,28,4.76,1.83.14,8.26.62,17.44.95,8.85.31,15.43.31,18.7.31,30.45,0,28.27.65,42.16.32,23.28-.54,19.85-2,39.3-2.85,0,0,6.5-.27,23.14-4.76a11,11,0,0,0,3.49-1.58,12.47,12.47,0,0,0,2.85-2.85,25.07,25.07,0,0,0,3.17-5.71c2.34-6.43,2-19.44,1.9-23.77-.1-6.09.27-2.52.62-18.69.12-5.16.2-11.07.21-22.38,0-12.55-.07-15.81-.1-26.41,0-15.28.12-15.09.18-37.72,0-4,0-2.94,0-30.16q0-15.54,0-31.08c0-28,0-27.89,0-35.16,0-9.74.05-20.32.17-34.16.15-17.28.29-20.71.34-35.41.06-17.31-.09-23.25-.34-28.91-.34-7.74-.68-15.05-2-24.83-.43-3.17-1.55-11-3.83-21.08-1.57-6.91-2.94-11.61-5.67-20.91-2.93-10-3.42-10.88-7.75-25.16-2.79-9.21-4.26-14.08-6.16-21.08-1.3-4.79-2.45-9.39-4.75-18.58-2.36-9.43-3.54-14.14-4.75-19.58-1.65-7.4-2.92-13.84-3.5-16.83-1.16-6-1.14-6.39-2.16-11.5-1.5-7.47-1.92-8.55-3.34-15.41-1.5-7.28-2.44-12.92-3.08-16.75-.91-5.47-1.45-9.29-2.5-16.75-.67-4.75-1.41-10-2.25-16.83-.78-6.31-1.24-10.7-2.17-19.49-1.05-10.06-1.58-15.09-2.08-21.08-.73-8.85-1.1-15.69-1.25-18.67-.61-12.16-.66-20.84-.67-24.08,0,0,0-.29,0-.66v-.33c0-.23,0-.66,0-1.55a6.56,6.56,0,0,0,1.05-.26,7.39,7.39,0,0,0,2.19-1.16,5.58,5.58,0,0,0,1.5-1.6,5,5,0,0,0,.56-2.73c-.14-4.57-.21-6.85-.26-7.21-.38-2.73-.69-5-1.44-8.24s-1.5-5.6-2.29-8.07c-.94-2.94-1.89-5.56-2.77-7.82l-1.32-3.13c-2.51-.21-5.88-.48-9.88-.72-5-.31-16-.91-30.1-.85-9.23,0-19.83.36-31.54,1.21C402.65,255.46,402.17,257,401.68,258.47Z"/><path class="cls-3" d="M392.89,269.71c.45-3.47,1-6.38,1.54-8.6a25.12,25.12,0,0,1,3.21-8.56,9.3,9.3,0,0,1,6.78-4.46A127.17,127.17,0,0,1,421.54,246c8.35-.29,12.53-.44,15.39-.44,7,0,12.09.26,13.64.34.83.05,4.62.37,12.2,1a73.18,73.18,0,0,1,9.74,1.61,27.06,27.06,0,0,1,3.3,1.1,6.94,6.94,0,0,1,2.8,1.52,7.65,7.65,0,0,1,1,1.35,19.23,19.23,0,0,1,1.5,2.83,32.1,32.1,0,0,1,1.69,5.5c.48,2.19,1,5,1.58,8.31-.38-.25-1-.66-1.81-1.2-1.54-1.06-2-1.43-2.64-1.38a3.46,3.46,0,0,0-1.55.8A14.94,14.94,0,0,0,476.3,269a15.43,15.43,0,0,0-1.61-1.44,6,6,0,0,0-2.29-1.38,4.8,4.8,0,0,0-3.27.87,8.29,8.29,0,0,0-2.13,1.66,8.5,8.5,0,0,0-2.43-1.76,6.46,6.46,0,0,0-2.55-.74,6.1,6.1,0,0,0-3.4.85A6.68,6.68,0,0,0,456.5,269a13.55,13.55,0,0,0-2-1.81,6.29,6.29,0,0,0-3.4-1.59,5.54,5.54,0,0,0-3.19,1.06,8.28,8.28,0,0,0-2.23,2,7,7,0,0,0-1.91-2.44,5.17,5.17,0,0,0-3-1.38,5.77,5.77,0,0,0-3.82,1.59,9.22,9.22,0,0,0-1.81,1.81,7.4,7.4,0,0,0-1.49-1.92,6.08,6.08,0,0,0-3.08-1.7,5.57,5.57,0,0,0-5.95,2.87,5.53,5.53,0,0,0-1.48-2,5,5,0,0,0-6.06-.53A5.84,5.84,0,0,0,415,267.1a4.31,4.31,0,0,0-1.28-2.23,5.07,5.07,0,0,0-4-1,6.08,6.08,0,0,0-5.1,3.61,13.55,13.55,0,0,0-3.63-1.65,4.94,4.94,0,0,0-2.32-.31c-.77.12-1.32.46-2.77,1.64C395,267.84,394,268.68,392.89,269.71Z"/><ellipse class="cls-4" cx="436.7" cy="751.67" rx="87.63" ry="118.25"/><ellipse class="cls-4" cx="436.7" cy="619.76" rx="43.58" ry="36.11"/><path class="cls-5" d="M410.74,314.73c-.46,12.43-.55,24.88-1.37,37.29-1.56,23.67-4,40.64-7.77,66.36-5.16,35.29-7.74,52.94-11.85,67.49-3.15,11.12-5.35,22.58-8.48,33.72a99,99,0,0,0-2.76,14.8,53.38,53.38,0,0,0,.45,16.08c.86,4.48,1.94,6.62,3.55,8.07a8.51,8.51,0,0,0,4.69,2.11,10.63,10.63,0,0,0,7.7-2.26c2.32-1.67,4-4,5.75-8a57.39,57.39,0,0,0,4.46-17.1c1.9-17.85,2.85-26.77,2.82-26.3,2.37-34.41,2.9-33.27,3.5-48.89.19-5,.29-9.85.89-17.29.94-11.61,2.28-17.94,3.76-43.27,1.31-22.53.42-16.68,1.73-42.11,0,0,.47-17.42,0-39.2,0-.21,0-.75-.06-1.35a12.67,12.67,0,0,0-.13-1.5,4.13,4.13,0,0,0-.39-1.38,2.7,2.7,0,0,0-.92-.93,3.42,3.42,0,0,0-2-.58,3.64,3.64,0,0,0-2.15.91,3.79,3.79,0,0,0-.82,1.06A5.09,5.09,0,0,0,410.74,314.73Z"/><path class="cls-6" d="M398.06,262.51c.16-.79.43-1.94.84-3.29a16.32,16.32,0,0,1,1.54-3.93,8.86,8.86,0,0,1,2.95-3.22,16.45,16.45,0,0,1,3.57-1.19,21.24,21.24,0,0,1,3.58-.64,9,9,0,0,1,1.75.14,1.66,1.66,0,0,1,.91.36,1.32,1.32,0,0,1,.42.7c.13.73-.73,1.41-1,1.61-1.19.94-2.29.75-4.28,1.19a14.22,14.22,0,0,0-3.22,1.12c-1.83.93-2.93,2.16-4.63,4.07A34.3,34.3,0,0,0,398.06,262.51Z"/><path class="cls-7" d="M838.45,1147.05a.81.81,0,0,0-.27,0,1.25,1.25,0,0,0-.54.27c-.33.27-.43.44-.81.81a4.5,4.5,0,0,1-.37.34,8.59,8.59,0,0,1-1,.74c-1.6,1.06-1.67,1.16-2.43,1.62a21.82,21.82,0,0,1-5.93,2.42c-.57.14-1,.22-1.35.27a5.52,5.52,0,0,0,1.88-1.61,5.18,5.18,0,0,0,1.08-3,4.48,4.48,0,0,0-1.08-3.24,4.85,4.85,0,0,0-3.23-1.35,7.36,7.36,0,0,0-4,.81,7.7,7.7,0,0,0-3.5,4v-10a1.16,1.16,0,0,0-1.08-.81,1.13,1.13,0,0,0-1.08.81v9.44l-3.78,2.16a9.87,9.87,0,0,1-2.43,1.08,6.27,6.27,0,0,1-2.15.27,3.63,3.63,0,0,1-1.89-.54,3.57,3.57,0,0,1-.79-.78,7.85,7.85,0,0,1-1.1-2.19,16.06,16.06,0,0,0-1.35-2.7,2.12,2.12,0,0,0-1.35-1.08c-.15,0-.66-.06-1.88,1.08a33.22,33.22,0,0,0-3,3.51,9.57,9.57,0,0,1-.81.81c-.42.37-.63.56-.81.54s-.45-.4-.81-1.89a29.43,29.43,0,0,0-.81-3.24,3.2,3.2,0,0,0-.81-1.35,2,2,0,0,0-.81-.54c-1-.25-2.11,1-3.77,3-.75.87-.89,1.13-1.62,1.89-.35.37-1.3,1.33-1.62,1.62l-.35.33-.19.21c-.18.2-.22.28-.27.27s-.05-.9,0-1.89v-4.59a.77.77,0,0,0,0-.27,1.07,1.07,0,0,0-.27-.54,1.64,1.64,0,0,0-1.88,0,.64.64,0,0,0-.27.27c-.09.19,0,.33,0,.81v9.17a1.12,1.12,0,0,0,0,.27,1,1,0,0,0,0,.27.92.92,0,0,0,.27.54,1,1,0,0,0,.53.27c.31.06.78,0,2.16-1.35.51-.48.81-.8.81-.81h0a40.61,40.61,0,0,0,4.32-4.85,4.21,4.21,0,0,1,.49-.54l.11-.11.21-.16a1,1,0,0,1,.54-.27c.29,0,.49.66.53.81.4,1.33.6,2,.81,3,.35,1.56.6,2.08,1.08,2.42a1.66,1.66,0,0,0,.54.27c1,.29,2-.53,2.7-1.07a12.17,12.17,0,0,0,2.16-2.43c.19-.28.48-.64,1.08-1.35.42-.51.7-.83,1.07-.81a.93.93,0,0,1,.54.27,2.74,2.74,0,0,1,.81,1.35c.31.87.19.94.48,1.63a5.36,5.36,0,0,0,.6,1.07,4.77,4.77,0,0,0,.81.8,6.57,6.57,0,0,0,1.89,1.08,6.43,6.43,0,0,0,3.78,0,15.89,15.89,0,0,0,4-1.88c.79-.44,1.44-.81,1.89-1.08l.54-.27v26.7a9.73,9.73,0,0,1,0,1.08.77.77,0,0,0,0,.27,1.07,1.07,0,0,0,.27.54,1.23,1.23,0,0,0,1.62,0,1.35,1.35,0,0,0,.27-.54,1.27,1.27,0,0,0,0-.54v-24.28c.59.16,1.42.36,2.42.54a23.78,23.78,0,0,0,4.59.54,17.22,17.22,0,0,0,5.93-1.08,22,22,0,0,0,4.59-2.42c.59-.39.66-.45,1.55-1.08a10.68,10.68,0,0,0,1.41-1.08c.39-.37.54-.54.81-.81l.54-.54a.8.8,0,0,0,.27-.81A.77.77,0,0,0,838.45,1147.05Zm-13.75,4.86a6.47,6.47,0,0,1-7,.27c.5-1,1-1.83,1.34-2.43a9.07,9.07,0,0,1,1.62-2.16,4.48,4.48,0,0,1,2.16-1.08,3.34,3.34,0,0,1,2.7.54,3,3,0,0,1,1.08,2.16C826.57,1150.54,825.4,1151.38,824.7,1151.91Z"/></g></g></svg>