<svg xmlns="http://www.w3.org/2000/svg" viewBox="0 0 874.3 1219.95"><defs><style>.cls-1{fill:#ecf4ea;}.cls-2{fill:#a08160;}.cls-3{fill:#b29169;}.cls-4{fill:#bf9a70;}.cls-5{fill:#c5c5c4;}</style></defs><g id="Layer_2" data-name="Layer 2"><g id="Layer_1-2" data-name="Layer 1"><rect class="cls-1" width="874.3" height="1219.95"/><path class="cls-2" d="M395.13,401.23c-9.91-3.77-22.54,7.62-29.18,13.74-14.16,13.06-23.46,28.68-30.28,45.65-4.94,12.29-14.7,37.32-13.16,71.35.53,11.94,2.37,43.87,23.42,76.74,6.3,9.85,29.28,45.74,69.49,56.54,0,0,21.23,5.7,51.8.67a32.85,32.85,0,0,0,10.22-3.58,23.3,23.3,0,0,0,5.6-4.43c4.93-6,2-15.19.36-20.43-13.09-41.38-29.16-61.79-29.16-61.79-12.33-15.67-17.48-17-23.37-30.05-3.13-6.95-4.58-13-6.89-30.47-3.49-26.3-3.47-36.64-6.75-63.41a129.84,129.84,0,0,0-14.07-42.22C401.32,406.24,399.14,402.75,395.13,401.23Z"/><path class="cls-2" d="M410.3,404.75c2.47,3.23,4.56,7.82,8.75,17,2,4.46,3.55,8.58,6.56,16.81,2.67,7.32,4,11,5.12,15.23s2.5,10.55,3,13.06c0,0,.57,2.59,1,4.76,3.63,17.28.54,28.82,6.87,42,3.27,6.84,6.5,8.76,8.31,16.82,1.23,5.48.51,8,.84,11.47C452.1,555.39,468.16,556.68,479,573c3.09,4.64,13.93,20.91,13.77,40.23-.08,9.41,2.2,18.72,2.69,28.12a13.07,13.07,0,0,0,2.47,7.44,11.87,11.87,0,0,0,6,4.08c7.23,1.91,16.07-8.85,18.44-11.73,21.09-25.68,24.42-63.39,24.42-63.39,3.54-40.17-8.06-71.34-14.71-88.61a230.41,230.41,0,0,0-44.21-70.4c-11.94-13-21.49-20.09-33.08-24.56,0,0-15.63-6-38.4-3.73a22.48,22.48,0,0,0-7,2c-2.1.89-3.53,1.7-4.05,3C404.38,398.05,407.5,401.08,410.3,404.75Z"/><path class="cls-3" d="M208.12,561.63c-10.56.94-16.94,16.71-20.24,25.11-7,17.93-8.57,36-7.29,54.3.93,13.21,3.09,40,19.34,69.93,5.7,10.5,21.3,38.41,54.6,58.78,10,6.11,46.33,28.35,87.22,20.49,0,0,21.58-4.14,46.88-22a33,33,0,0,0,7.63-7.69,23.32,23.32,0,0,0,3.1-6.44c1.74-7.16-5.14-14.88-8.61-18.53-27.38-28.72-63.49-43.08-63.49-43.08-11.45-4.55-16.17-5.36-23.26-11-10.37-8.25-13.85-17.31-20.14-30-4-8-13.92-23.38-33.78-54.09A129.35,129.35,0,0,0,219,565.6C215.88,563.43,212.4,561.25,208.12,561.63Z"/><path class="cls-4" d="M662.18,610c10.6.36,17.85,15.74,21.61,23.95,8,17.51,10.57,35.51,10.31,53.8-.19,13.24-.86,40.1-15.41,70.9-5.11,10.81-19.13,39.55-51.23,61.74-9.62,6.65-44.68,30.89-85.94,25.32,0,0-21.79-2.93-48-19.38a33,33,0,0,1-8.05-7.24c-2.55-1.4-5.8-3.77-6.65-7.39-1.55-6.62,5.87-13.36,10.76-17.85C527.85,758.66,522,760,533.07,753.41c21.78-12.94,25.34-6.81,40.07-18.41,12.86-10.12,19.16-21.89,27.43-37.35,11.51-21.51,8.31-24.78,21.71-49.59a122,122,0,0,1,29.29-33.51C654.53,612.22,657.89,609.84,662.18,610Z"/><path class="cls-4" d="M646.82,607.37c-3.52,2-7.22,5.45-14.63,12.3-3.61,3.34-6.58,6.55-12.54,13-5.29,5.72-7.94,8.58-10.61,12.07s-6.38,8.77-7.86,10.88-2.46,3.53-2.78,4c-9.13,13.21-15.73,19.18-23.15,31.58-4.44,7.42-4.42,9.19-9.1,15.7a100.28,100.28,0,0,1-9.68,11.4c-12.13,11.88-23.06,7.82-38,17.75-4.65,3.09-20.92,13.92-28.23,31.8-3.57,8.71-9.27,16.41-13.35,24.9a13,13,0,0,1-5.15,5.9,11.79,11.79,0,0,1-7.09,1.46c-7.41-1-11.41-14.37-12.48-17.94-9.54-31.83,1.95-67.9,1.95-67.9,12.24-38.42,35-62.69,47.78-76.06a230.36,230.36,0,0,1,68-47.87c16-7.33,27.58-10.24,40-9.88,0,0,16.74.47,36.86,11.39a22.31,22.31,0,0,1,5.63,4.55c1.6,1.63,2.6,2.93,2.57,4.37C654.88,603.48,650.82,605.07,646.82,607.37Z"/><path class="cls-3" d="M345.23,575.6c-1.28-5.45-4-10.55-4.86-16.1-3.85-25.18-3.89-24.63-4-26.94a152,152,0,0,1,4.23-44.34s4.39-17.44,16.89-40.11c0,0,3.27-5.93,11.14-14.13a16.09,16.09,0,0,1,4.4-3.27,10.37,10.37,0,0,1,6-1.43,7,7,0,0,1,4.6,2,6.54,6.54,0,0,1,1.8,4.75c-.19,3.82-4.27,6.53-5.24,7.21-2,1.4-7.4,9.53-18.16,25.79-12.33,18.62-15.25,42.69-15.87,47.79,0,0-3.69,32.42,5.56,55.57a21.72,21.72,0,0,1,.74,2.23,9.71,9.71,0,0,1,.54,2.72c0,.77,0,2.49-1.26,3.34s-3.28,0-3.39,0C346.12,579.54,345.5,576.75,345.23,575.6Z"/><path class="cls-4" d="M196.11,592.16c-.82,5.54-3.12,10.85-3.51,16.44-1.74,25.42-1.82,24.88-1.75,27.18a152.13,152.13,0,0,0,7.89,43.84s5.82,17,20.16,38.58c0,0,3.75,5.63,12.28,13.15a16.23,16.23,0,0,0,4.65,2.9,10.47,10.47,0,0,0,6,.93,7,7,0,0,0,4.42-2.33,6.51,6.51,0,0,0,1.4-4.88c-.5-3.79-4.8-6.16-5.82-6.75-2.12-1.23-8.16-8.89-20.24-24.2-13.83-17.52-18.74-41.27-19.78-46.3,0,0-6.37-32,.93-55.85a20.71,20.71,0,0,0,.56-2.27,9.32,9.32,0,0,0,.3-2.77c-.07-.76-.23-2.47-1.53-3.22s-3.27.24-3.38.31C196.67,588.16,196.28,591,196.11,592.16Z"/><path class="cls-3" d="M223.31,558.17c3.63,1.82,7.52,5,15.3,11.46,3.78,3.13,6.94,6.17,13.24,12.26,5.6,5.41,8.41,8.12,11.27,11.46s6.86,8.4,8.45,10.42,2.8,3.54,3,3.83c6.57,9.26,10.08,17.59,23.48,40.69a32,32,0,0,0,7.72,9.21,32.84,32.84,0,0,0,13.94,6.35c14.05,3.17,30.81,10.84,38.92,15.61,4.81,2.82,21.67,12.72,30,30.17,4.05,8.5,10.17,15.87,14.71,24.12a13.15,13.15,0,0,0,5.48,5.61,12,12,0,0,0,7.16,1.06c7.34-1.45,10.59-15,11.46-18.61,7.75-32.31-5.74-67.69-5.74-67.69-14.36-37.68-38.42-60.65-51.94-73.28a230.48,230.48,0,0,0-70.54-44c-16.39-6.43-28.1-8.68-40.48-7.64,0,0-16.7,1.41-36.17,13.43a22.14,22.14,0,0,0-5.37,4.86c-1.51,1.72-2.44,3.07-2.32,4.51C215.05,554.73,219.19,556.09,223.31,558.17Z"/><path class="cls-2" d="M652.69,768.18c2.77-4.18,6.81-7.56,9.2-11.95,10.87-20,10.74-19.5,11.52-21.4a123,123,0,0,0,8.8-38.91s.9-16.23-4.32-39.64c0,0-1.37-6.12-6.4-15.73a16.74,16.74,0,0,0-3.19-4.26,11.54,11.54,0,0,0-5.18-3.23,7.38,7.38,0,0,0-4.89.08,5.38,5.38,0,0,0-3.05,3.41c-.93,3.28,2.13,7,2.84,7.87,1.49,1.87,4.21,10.57,9.64,28,6.22,19.92,2,41.26,1.15,45.78,0,0-5.87,28.65-21.23,45.06,0,0-.63.68-1.34,1.63A7.56,7.56,0,0,0,645,767a3.36,3.36,0,0,0,.22,3.25,4.12,4.12,0,0,0,3.19,1.13C650.71,771.19,652.1,769.06,652.69,768.18Z"/><path class="cls-5" d="M838.91,1158.81a.8.8,0,0,0-.27,0,1.2,1.2,0,0,0-.54.27,10.27,10.27,0,0,0-.81.81,4.33,4.33,0,0,1-.37.34,8.44,8.44,0,0,1-1,.74c-1.6,1.06-1.66,1.16-2.43,1.62a22.1,22.1,0,0,1-5.93,2.43c-.57.13-1,.21-1.35.27a5.68,5.68,0,0,0,1.89-1.62,5.22,5.22,0,0,0,1.08-3,4.57,4.57,0,0,0-1.08-3.24,4.79,4.79,0,0,0-3.24-1.34,7.19,7.19,0,0,0-4,.8,7.73,7.73,0,0,0-3.51,4v-10a1.15,1.15,0,0,0-1.08-.81,1.14,1.14,0,0,0-1.08.81v9.44l-3.77,2.16a10.22,10.22,0,0,1-2.43,1.08,6.34,6.34,0,0,1-2.16.27,3.68,3.68,0,0,1-1.89-.54,3.81,3.81,0,0,1-.79-.78,7.71,7.71,0,0,1-1.09-2.19,16.86,16.86,0,0,0-1.35-2.7,2.12,2.12,0,0,0-1.35-1.07c-.16,0-.67-.07-1.89,1.07a37,37,0,0,0-3,3.51,7.93,7.93,0,0,1-.81.81c-.42.37-.63.56-.8.54s-.46-.4-.81-1.89a31.88,31.88,0,0,0-.81-3.24,3.33,3.33,0,0,0-.81-1.34,2,2,0,0,0-.81-.54c-1-.26-2.12,1-3.78,3-.75.87-.89,1.13-1.62,1.89-.35.37-1.29,1.33-1.61,1.62l-.35.33-.19.21c-.18.2-.23.28-.27.27s0-.9,0-1.89v-4.58a1,1,0,0,0-.27-.81,1.62,1.62,0,0,0-1.89,0,.59.59,0,0,0-.27.27c-.08.18,0,.32,0,.81v9.17a1.84,1.84,0,0,0,0,.26,1.87,1.87,0,0,0,0,.27,1,1,0,0,0,.27.54,1,1,0,0,0,.54.27c.31.06.78,0,2.16-1.34.5-.48.8-.81.81-.81h0a41,41,0,0,0,4.31-4.86,5.86,5.86,0,0,1,.5-.54l.11-.11.2-.16a1.1,1.1,0,0,1,.54-.27c.3,0,.49.66.54.81.39,1.33.59,2,.81,3,.35,1.56.59,2.08,1.08,2.43a1.87,1.87,0,0,0,.54.27c1,.28,2-.54,2.69-1.08a11.84,11.84,0,0,0,2.16-2.43c.19-.28.49-.64,1.08-1.35.42-.5.71-.83,1.08-.81a.93.93,0,0,1,.54.27,2.81,2.81,0,0,1,.81,1.35c.31.87.18.94.48,1.64a4.54,4.54,0,0,0,.6,1.06,5.07,5.07,0,0,0,.81.81,6.61,6.61,0,0,0,1.88,1.07,6.43,6.43,0,0,0,3.78,0,15.8,15.8,0,0,0,4-1.88c.78-.44,1.43-.81,1.88-1.08l.54-.27v26.7a7.79,7.79,0,0,1,0,1.08,1.14,1.14,0,0,0,0,.27,1.18,1.18,0,0,0,.27.54,1.23,1.23,0,0,0,1.62,0,1.08,1.08,0,0,0,.27-.54,1.27,1.27,0,0,0,0-.54v-24.28c.59.16,1.42.36,2.43.54a23.77,23.77,0,0,0,4.58.54,17,17,0,0,0,5.94-1.08,21.88,21.88,0,0,0,4.58-2.42c.59-.39.66-.45,1.55-1.08a12,12,0,0,0,1.42-1.08l.81-.81.54-.54a.81.81,0,0,0,.27-.81A.77.77,0,0,0,838.91,1158.81Zm-13.76,4.86a6.49,6.49,0,0,1-4.85,1.08,6.74,6.74,0,0,1-2.16-.81c.5-1,1-1.83,1.35-2.43a8.47,8.47,0,0,1,1.62-2.16,4.39,4.39,0,0,1,2.15-1.08,3.34,3.34,0,0,1,2.7.54A2.93,2.93,0,0,1,827,1161C827,1162.3,825.86,1163.14,825.15,1163.67Z"/></g></g></svg>