<svg xmlns="http://www.w3.org/2000/svg" viewBox="0 0 119.33 119.33"><defs><style>.cls-1{fill:#f12bfc;}</style></defs><g id="Layer_2" data-name="Layer 2"><g id="Layer_1-2" data-name="Layer 1"><path class="cls-1" d="M88.39,119.33H30.94A31,31,0,0,1,0,88.39V30.94A31,31,0,0,1,30.94,0H88.39a31,31,0,0,1,30.94,30.94V88.39A31,31,0,0,1,88.39,119.33ZM30.94,9A22,22,0,0,0,9,30.94V88.39a22,22,0,0,0,21.94,21.94H88.39a22,22,0,0,0,21.94-21.94V30.94A22,22,0,0,0,88.39,9Z"/><path class="cls-1" d="M59.66,89.68a30,30,0,1,1,30-30A30.05,30.05,0,0,1,59.66,89.68Zm0-51a21,21,0,1,0,21,21A21,21,0,0,0,59.66,38.64Z"/><circle class="cls-1" cx="92.9" cy="26.58" r="7.72"/></g></g></svg>