<svg xmlns="http://www.w3.org/2000/svg" viewBox="0 0 51.04 51.04"><defs><style>.cls-1{fill:#717070;}</style></defs><g id="Layer_2" data-name="Layer 2"><g id="Layer_1-2" data-name="Layer 1"><path class="cls-1" d="M37.81,51H13.23A13.25,13.25,0,0,1,0,37.81V13.23A13.25,13.25,0,0,1,13.23,0H37.81A13.25,13.25,0,0,1,51,13.23V37.81A13.25,13.25,0,0,1,37.81,51ZM13.23,3.85a9.39,9.39,0,0,0-9.38,9.38V37.81a9.39,9.39,0,0,0,9.38,9.38H37.81a9.39,9.39,0,0,0,9.38-9.38V13.23a9.39,9.39,0,0,0-9.38-9.38Z"/><path class="cls-1" d="M25.52,38.36A12.84,12.84,0,1,1,38.36,25.52,12.85,12.85,0,0,1,25.52,38.36Zm0-21.83a9,9,0,1,0,9,9A9,9,0,0,0,25.52,16.53Z"/><circle class="cls-1" cx="39.74" cy="11.37" r="3.3"/></g></g></svg>