<?xml version="1.0" encoding="utf-8"?>
<!-- Generator: Adobe Illustrator 24.1.0, SVG Export Plug-In . SVG Version: 6.00 Build 0)  -->
<svg version="1.1" id="Layer_1" xmlns="http://www.w3.org/2000/svg" xmlns:xlink="http://www.w3.org/1999/xlink" x="0px" y="0px"
	 viewBox="0 0 841.9 1190.6" style="enable-background:new 0 0 841.9 1190.6;" xml:space="preserve">
<style type="text/css">
	.st0{fill:#EAF6FC;}
	.st1{fill:#619940;}
	.st2{fill:#52A533;}
	.st3{fill:#57B038;}
	.st4{fill:#FFFFFF;}
	.st5{fill:#F18618;}
	.st6{fill:#F59D19;}
	.st7{fill:#F9EFF7;}
	.st8{fill:#010202;}
	.st9{fill:#D52485;}
	.st10{fill:#E62E1F;}
	.st11{fill:#44B8EA;}
	.st12{fill:#D59FC8;}
	.st13{fill:#E5E24E;}
	.st14{fill:#7566AB;}
	.st15{fill:#D59EC7;}
	.st16{fill:#E94667;}
	.st17{fill:#C4C4C4;}
</style>
<rect x="-19" y="-14.1" class="st0" width="877.3" height="1220.1"/>
<g>
	<path class="st1" d="M363.3,730.4c1.9-6.7-0.6-9.1-3.4-29c-3.6-25.5-0.5-29.3-4.3-45.4c-2.8-11.7-5.7-24-14.8-35.3
		c-13.7-17.1-39.6-30-66.3-24.3c-1.5,0.3-36.8,8.3-42.6,32.3c-5.5,22.7,18.9,45.8,43.1,68.8c13.8,13.1,26.8,22.4,36.5,28.5
		c-10.1-3.2-18.7-5.8-25.3-7.7c-10.8-3.2-22.2-6.5-37.2-10.2c-2.7-0.7-9.9-2.4-19.2-4.4c-9.1-1.9-5.1-0.9-15.9-3.1
		c-9.6-2-12-2.7-16-2c-2.6,0.5-7.5,1.3-10.9,5.4c-4.4,5.3-3.1,12.1-2.9,13.4c1.4,7.7,7.5,11.8,9.6,13.2c6.5,4.4,13.1,4.3,15.6,4.1
		c-1.8,0.1-4.5,0.4-7.7,1.1c-7.8,1.7-16.8,3.7-20.8,10.9c-3.3,5.9-2.8,14.6,1.7,19.9c6.5,7.7,21.5,8.7,32.6-1.4
		c-7.8,6.5-10.9,16.2-8.1,24.1c3.1,8.8,12.3,11.7,13.5,12.1c8.5,2.6,15.8-1.2,28.7-7.1c0.7-0.3,5.3-2.3,12.1-5.1
		c0.3-0.1,1.6-0.7,1.9-0.8c6.6-2.8,18.1-7.7,21.6-9.3c8.2-3.6,24.6-11.6,45.7-22.4c0,0,6.4-2.6,15-8.3c6.6-4.3,9.3-7.2,9.8-8.5
		c1.7-4.6-1.7-9.1-13.8-25.7c-11.4-15.5-10.5-16.8-15.4-21.6c-4.8-4.7-6-4.6-16.4-13.8c-6-5.3-9.2-8.1-13.1-12.5
		c-9.8-10.8-11.7-17.3-12.4-20.5c-0.7-3.4-1.7-7.7,0.7-10.4c3.9-4.4,13.6-0.9,14.2-0.7c10.9,4.1,15.9,16.1,18.2,21.9
		c12.4,31.5,9.1,91.6,8.5,102.1C353,749.9,360.9,738.7,363.3,730.4z"/>
	<path class="st2" d="M330.5,591c-20.5-7.9-41.1-16-62-24.3c-24.2-9.7-47.9-19.5-71.2-29.3c-3.2,3-8.4,7.4-15.5,11.3
		c-1.4,0.8-34.7,18.7-46.4,6.1c-5.3-5.7-4.7-16-1.5-23c4.8-10.7,15.4-13.5,16.8-13.8c-2.7,0.4-11.7,1.3-19.9-4.3
		c-7.7-5.3-15.1-16.5-11.3-27.1c4.1-11.4,18.3-14.8,27.6-13.7c6,0.7,10.5,3.4,13.1,5.2c-2-2.2-7-8.4-7.7-17.6
		c-0.5-6.9,1.2-18.4,8.7-22c9.6-4.6,22.6,6.7,26,9.7c16.7,14.6,18.8,36.7,19.1,45.5c94.3,39.7,132.8,54.9,140.5,56.6
		c0.7,0.2,4.6,1,9,3.5c3,1.7,8.8,5,11.6,11.6c2.8,6.7,1.8,15-2.6,21.2c-4.9,6.8-12.8,9.8-18.9,9.4c-3.5-0.2-7.8-1.6-9-2.1
		C334.1,592.9,332,591.8,330.5,591z"/>
	<path class="st3" d="M586.3,562.7c-4.4,19.9-9,38.8-13.5,56.7c-5.7,22.6-11.5,43.5-17.1,62.7c-2.8,9.8-6.2,20.8-11.7,31v0
		c-5,9.3-11.9,17.8-21.8,24c-6.9,4.3-14.8,5.9-30.4,9.6c-14,3.3-26.4,4.6-50.7,7.1c-22.2,2.2-28.5,3.1-37.7,2.6
		c-14.4-0.8-23-3.3-27.1-4.7c-5.5-1.8-13.7-4.6-22.4-11.4c-2.9-2.2-7.9-6.5-13.6-14.3c-2.3-3.1-4.3-6.2-6-9.3
		c-5.3-9.5-8.3-18.7-11.3-28.1c-9.6-30.4-11.1-36.7-14.6-47.6c-0.1-0.3-0.2-0.5-0.3-0.7c-7.6-23.1-13.7-33.7-16.8-40.1c0,0,0,0,0,0
		c-1.8-3.7-2.6-6.1-2.2-8.8C292.2,572.3,353.5,556.4,586.3,562.7z"/>
	<path class="st3" d="M593.1,516.1c0,89.7-72.7,162.5-162.5,162.5c-75.9,0-139.6-52-157.5-122.3c-0.1-0.4-0.2-0.7-0.3-1.1
		c0-0.1,0-0.2-0.1-0.3c-0.1-2.9,0.2-7,2.1-11.5c4.6-10.9,14.8-15.1,17-15.9c-11.9-10.1-18.9-21.4-22.8-29.2
		c8.8-81.4,77.8-144.8,161.5-144.8C520.3,353.6,593.1,426.4,593.1,516.1z"/>
	<path class="st4" d="M300.8,524c-2,0.7-4.7,1.9-7.8,3.7c-0.2,0.1-0.4,0.2-0.6,0.3c-2.3,1.4-4.9,3.1-7.4,5.3
		c-4.4,3.7-8.7,13.1-12.2,21.9c0,0,0,0.1-0.1,0.1c0-0.1,0-0.3,0-0.4c-0.1-2.9,0.2-7,2.1-11.5c4.6-10.9,14.8-15.1,17-15.9
		c-11.9-10.1-18.9-21.4-22.8-29.2c5.4,5.3,9.9,8.9,13.2,11.4C284.5,511.5,291.3,516.5,300.8,524L300.8,524z"/>
	<path class="st5" d="M528.7,536.6c-0.2,0.1-0.5,0.2-0.7,0.2c-31.2,11.2-58.5,16.1-78.3,18.3c-11.8,1.3-22.6,1.9-32.8,2
		c-18.2,0-44.3,0.4-75.4-7.8c-20.4-5.4-34.6-9.3-49.1-21.3c-0.2-0.2-0.4-0.3-0.6-0.5c-11.9-10.1-18.9-21.4-22.8-29.2
		c7.8,0.1,18.1,0.2,30.2,0.7c38.3,1.5,67.2,4.8,74.7,5.9c33.7,5,64.6,10.8,95,17.4c24.4,5.3,44.6,10.3,59.1,14
		c0.2,0,0.3,0.1,0.5,0.1C528.6,536.6,528.6,536.6,528.7,536.6z"/>
	<path class="st6" d="M528.8,536.4l-0.3,0.2c-0.2,0.1-0.3,0.2-0.5,0.3c-27.6,16-52.3,25.1-70.3,30.5c0,0-55.7,16.5-121.6,10.7
		c-14.8-1.3-28.4-3.9-42.7-10.3c-9-4-15.9-8.4-20.3-11.4c-0.1-0.1-0.2-0.1-0.3-0.2c0-0.2,0-0.5,0-0.8c0-0.1,0-0.3,0-0.4
		c-0.1-2.9,0.2-7,2.1-11.5c4.6-10.9,14.8-15.1,17-15.9c0.4,0.1,0.8,0.1,1.1,0.2c17.1,2.4,39.1,5.1,64.8,7.1
		c36.6,2.9,64.5,3.2,83.9,3.4c23.1,0.3,52.4,0,86.4-1.8C528.3,536.5,528.5,536.5,528.8,536.4z"/>
	<circle class="st7" cx="434.8" cy="446.2" r="32"/>
	<circle class="st7" cx="345.3" cy="446.2" r="32"/>
	<circle class="st8" cx="339.3" cy="446.2" r="18.1"/>
	<circle class="st8" cx="430.6" cy="446.2" r="18.1"/>
	<path class="st9" d="M573.1,618.8c-0.2,0.8-0.4,1.7-0.6,2.5c-0.4,1.6-0.8,3.2-1.2,4.8c-0.6,2.5-1.3,4.9-1.9,7.3
		c-0.2,0.6-0.3,1.3-0.5,1.9c-0.8,3.1-1.6,6.1-2.4,9.2c-0.5,2-1.1,4-1.6,5.9c0,0.2-0.1,0.3-0.1,0.5c-0.6,2.4-1.3,4.7-1.9,7.1
		c-0.5,1.8-1,3.6-1.5,5.4c-0.6,2.2-1.2,4.4-1.8,6.5c-0.6,2.1-1.2,4.3-1.8,6.4c-0.3,1.2-0.7,2.3-1,3.4v0c-0.2,0.6-0.3,1.2-0.5,1.7
		c-0.9,3-1.8,6.1-2.8,9.3c0,0.1-0.1,0.3-0.1,0.4c-1.3,4.2-2.8,8.4-4.6,12.7c-0.3,0.8-0.7,1.6-1.1,2.5v0c-0.9,2.1-2,4.1-3.1,6.2v0
		c-0.6,0.2-1.2,0.4-1.8,0.6c-1.5,0.5-3,1-4.6,1.4c-3.2,1-6.4,1.9-9.7,2.8c-0.1,0-0.2,0.1-0.3,0.1c-0.1,0-0.1,0-0.2,0.1
		c-1.4,0.4-2.8,0.7-4.3,1.1c0,0,0,0,0,0c-2.4,0.6-4.8,1.2-7.3,1.7c-1.5,0.3-3,0.6-4.5,0.9c-2.7,0.5-5.4,1.1-8.1,1.5c0,0,0,0,0,0
		c-0.7,0.1-1.4,0.3-2.2,0.4c-1.7,0.3-3.3,0.5-5,0.8c-1.4,0.2-2.8,0.4-4.2,0.6c-2.7,0.4-5.4,0.7-8.1,1c-0.2,0-0.5,0.1-0.7,0.1
		c-0.7,0.1-1.4,0.1-2.2,0.2c-3.8,0.4-7.5,0.7-11.2,0.9c-0.3,0-0.6,0-0.9,0.1c-0.9,0.1-1.8,0.1-2.7,0.1c-2.7,0.1-5.3,0.2-7.9,0.3
		c-1.5,0-3,0.1-4.5,0.1c-1.8,0-3.5,0-5.2,0h0c-1.5,0-3-0.1-4.4-0.1c-1.7,0-3.4-0.1-5-0.2c-1.4-0.1-2.8-0.1-4.1-0.2c0,0,0,0,0,0
		c0,0,0,0,0,0c-1.5-0.1-3-0.2-4.5-0.3c0,0,0,0,0,0c-0.9-0.1-1.7-0.1-2.6-0.2c-0.7-0.1-1.3-0.1-2-0.2c-4-0.4-7.9-0.8-11.6-1.3h0
		c-0.4-0.1-0.8-0.1-1.2-0.2c-4-0.5-7.8-1.1-11.4-1.8c-0.5-0.1-1-0.2-1.5-0.3c-2.4-0.4-4.7-0.9-6.8-1.3l-1.9-4.7l-2.4-5.7
		c0,0,0,0,0,0l-0.1-0.3l-2.9-7l-0.3-0.7l-4.2-10.1l-0.1-0.2l-1-2.5c1.4-1.8,2.8-3.6,4.2-5.4v0c0.7-0.9,1.4-1.8,2.1-2.7c0,0,0,0,0,0
		c0.1-0.1,0.2-0.3,0.3-0.4c0.2-0.2,0.3-0.4,0.5-0.7c0,0,0,0,0-0.1c0-0.1,0.1-0.1,0.1-0.2c0,0,0-0.1,0.1-0.1c0.5-0.6,0.9-1.2,1.4-1.8
		c0,0,0,0,0,0c1.3-1.7,2.6-3.3,3.9-5l0-0.1l1.9-2.5l3.7-4.7l2.8-3.7c0.4,0,0.7-0.1,1.1-0.1c0,0,0.1,0,0.1,0h0
		c4.5-0.3,9.4-0.8,14.6-1.5h0c0.2,0,0.4-0.1,0.6-0.1c0,0,0,0,0,0c1.3-0.2,2.7-0.3,4-0.5c0.5-0.1,1-0.1,1.5-0.2c0,0,0,0,0,0
		c0.8-0.1,1.6-0.2,2.5-0.4c0,0,0,0,0,0c2.4-0.4,4.9-0.8,7.4-1.3c0.5-0.1,1.1-0.2,1.6-0.3c0,0,0,0,0,0c0.9-0.2,1.9-0.4,2.9-0.6
		c0,0,0.1,0,0.1,0c2-0.4,4-0.8,6-1.3c0.1,0,0.3-0.1,0.4-0.1c3.9-0.9,8-1.9,12.1-3c0.6-0.2,1.3-0.3,1.9-0.5c0.3-0.1,0.6-0.2,1-0.3
		c1.4-0.4,2.8-0.8,4.1-1.2h0c2.5-0.7,5-1.5,7.6-2.4c1.3-0.4,2.6-0.9,3.9-1.3c1.4-0.5,2.7-0.9,4.1-1.4c1.2-0.4,2.3-0.8,3.5-1.3
		c1-0.4,2-0.8,3.1-1.2c0,0,0,0,0,0c1.2-0.5,2.5-1,3.7-1.5c0,0,0.1,0,0.1,0h0c1.7-0.7,3.4-1.4,5-2.1c0,0,0,0,0,0
		c0.5-0.2,0.9-0.4,1.3-0.6c0,0,0,0,0,0c0,0,0,0,0,0c0,0,0,0,0,0c0,0,0,0,0,0c0,0,0,0,0,0c0,0,0,0,0,0c2.6-1.1,5.1-2.3,7.6-3.4
		c0.2-0.1,0.4-0.2,0.6-0.3h0c1.3-0.6,2.5-1.2,3.8-1.8c0.2-0.1,0.5-0.2,0.7-0.3c2.5-1.2,4.9-2.5,7.3-3.8c2.7-1.4,5.4-2.9,7.9-4.4
		c0.6-0.3,1.2-0.7,1.8-1c3.4-2,6.7-4,9.9-6c0.2-0.1,0.4-0.2,0.6-0.4c3.7-2.3,7.2-4.7,10.5-7c0.4-0.3,0.8-0.6,1.2-0.9
		c3.5-2.5,6.8-5,9.9-7.4c0.1-0.1,0.3-0.2,0.4-0.3c3.8-2.9,7.2-5.8,10.3-8.4c0.3,1.9,0.7,3.8,1,5.7c0.2,1,0.3,1.9,0.5,2.9
		c0.4,2.4,0.9,4.8,1.3,7.2c0.1,0.3,0.1,0.7,0.2,1c0.4,2,0.7,4,1.1,6C572.9,617.6,573,618.2,573.1,618.8z"/>
	<g>
		<ellipse class="st10" cx="559.1" cy="636.9" rx="7.5" ry="11.3"/>
		<path class="st10" d="M564.6,650.9c-0.6,2.4-1.3,4.7-1.9,7.1c-0.5,1.8-1,3.6-1.5,5.4c-0.6,2.2-1.2,4.4-1.8,6.5c-0.1,0-0.1,0-0.2,0
			c-2.6,0-4.9-2-6.2-5.1c-0.2-0.4-0.3-0.8-0.4-1.2c0,0,0,0,0,0c-0.1-0.4-0.3-0.8-0.3-1.3c0,0,0-0.1,0-0.1c-0.2-0.7-0.3-1.4-0.3-2.2
			v0c0-0.5-0.1-0.9-0.1-1.4c0-2.5,0.5-4.8,1.4-6.7c1-2,2.3-3.5,3.9-4.2c0.6-0.3,1.1-0.4,1.7-0.5c0.1,0,0.1,0,0.2,0c0,0,0.1,0,0.1,0
			h0.1c0.1,0,0.1,0,0.2,0c0.7,0,1.3,0.2,1.9,0.5c1.1,0.5,2.2,1.4,3,2.6C564.4,650.6,564.5,650.7,564.6,650.9z"/>
		
			<ellipse transform="matrix(0.9032 -0.4293 0.4293 0.9032 -227.1408 299.0187)" class="st10" cx="549.2" cy="653" rx="11.3" ry="7.5"/>
		
			<ellipse transform="matrix(0.5976 -0.8018 0.8018 0.5976 -294.5588 698.9227)" class="st10" cx="549" cy="642.9" rx="7.5" ry="11.3"/>
		<path class="st10" d="M566.3,644.5c-0.5,2-1.1,4-1.6,5.9c0,0.2-0.1,0.3-0.1,0.5c-0.6,2.4-1.3,4.7-1.9,7.1
			c-1.6-1.3-2.8-2.7-3.6-4.3c-0.7-1.3-1.1-2.7-1-4c0-0.5,0.1-1.1,0.3-1.6c0.1-0.3,0.2-0.6,0.4-0.8c0,0,0,0,0,0
			c0-0.1,0.1-0.1,0.1-0.2c0.1-0.1,0.2-0.3,0.3-0.4c0,0,0,0,0,0c1.2-1.5,3.2-2.3,5.6-2.3h0C565.2,644.4,565.8,644.4,566.3,644.5z"/>
		<path class="st10" d="M569.3,633.5c-0.2,0.6-0.3,1.3-0.5,1.9c-0.8,3.1-1.6,6.1-2.4,9.2c-0.5,2-1.1,4-1.6,5.9c-0.2,0-0.3,0-0.5,0
			c-1.8-0.2-3.4-0.9-4.4-2.2c-0.1-0.1-0.2-0.2-0.2-0.3c-0.1-0.2-0.2-0.3-0.3-0.5c-0.1-0.2-0.1-0.3-0.2-0.5c0,0,0,0,0,0
			c-0.3-0.8-0.4-1.6-0.3-2.5c0-0.3,0.1-0.6,0.1-0.9c0.5-2.2,1.9-4.5,4.1-6.4c0.3-0.2,0.5-0.5,0.8-0.7c0.4-0.3,0.8-0.6,1.2-0.9
			c0.5-0.3,0.9-0.6,1.4-0.8C567.4,634.1,568.3,633.7,569.3,633.5z"/>
	</g>
	<g>
		<ellipse class="st11" cx="433.8" cy="673.3" rx="7.5" ry="11.3"/>
		<ellipse class="st11" cx="433.8" cy="695" rx="7.5" ry="11.3"/>
		
			<ellipse transform="matrix(0.9032 -0.4293 0.4293 0.9032 -254.8871 248.7309)" class="st11" cx="423.9" cy="689.4" rx="11.3" ry="7.5"/>
		
			<ellipse transform="matrix(0.5976 -0.8018 0.8018 0.5976 -374.1492 613.0552)" class="st11" cx="423.7" cy="679.3" rx="7.5" ry="11.3"/>
		<ellipse transform="matrix(0.5 -0.866 0.866 0.5 -375.4099 728.473)" class="st11" cx="443.2" cy="689.4" rx="7.5" ry="11.3"/>
		
			<ellipse transform="matrix(0.8392 -0.5438 0.5438 0.8392 -297.3503 350.3033)" class="st11" cx="443.8" cy="678" rx="11.3" ry="7.5"/>
	</g>
	<g>
		<ellipse class="st12" cx="420.6" cy="702.1" rx="7.5" ry="11.3"/>
		<path class="st12" d="M428.1,723.7c0,0.6,0,1.2-0.1,1.7c0,0.2,0,0.4-0.1,0.7c-0.7-0.1-1.3-0.1-2-0.2c-4-0.4-7.9-0.8-11.6-1.3h0
			c-0.4-0.1-0.8-0.1-1.2-0.2c0-0.3,0-0.5,0-0.8c0-2.5,0.5-4.8,1.4-6.7c0.9-2,2.3-3.5,3.9-4.2c0.5-0.3,1.1-0.4,1.7-0.5
			c0.1,0,0.1,0,0.2,0c0,0,0.1,0,0.1,0h0.1c0.1,0,0.1,0,0.2,0h0c0.7,0,1.3,0.2,1.9,0.5c1.1,0.5,2.2,1.4,3,2.6v0
			c1,1.5,1.8,3.3,2.1,5.5C428,721.9,428.1,722.8,428.1,723.7z"/>
		<path class="st12" d="M420.6,718.9c-1.1,2.2-3.3,4.3-6.2,5.8h0c-0.4-0.1-0.8-0.1-1.2-0.2c-4-0.5-7.8-1.1-11.4-1.8
			c-0.5-0.1-1-0.2-1.5-0.3c-0.5-1.5-0.3-3.1,0.4-4.7c0.5-1,1.1-2,2-2.9c0.6-0.7,1.3-1.3,2.1-1.9c0.8-0.6,1.7-1.2,2.7-1.6
			c2.1-1,4.2-1.5,6.1-1.6h0c0.5,0,1.1,0,1.6,0c2.2,0.2,4,1,5.1,2.4c0,0.1,0.1,0.1,0.1,0.1c0,0,0.1,0.1,0.1,0.1
			c0.2,0.2,0.3,0.5,0.4,0.7c0,0,0,0.1,0,0.1C421.8,715,421.5,717,420.6,718.9z"/>
		
			<ellipse transform="matrix(0.5976 -0.8018 0.8018 0.5976 -402.5074 614.0902)" class="st12" cx="410.5" cy="708" rx="7.5" ry="11.3"/>
		<path class="st12" d="M440.4,722.3c-0.1,0.5-0.3,1-0.6,1.5c-0.9,1.6-2.6,2.5-4.7,2.8c0,0,0,0,0,0c0,0,0,0,0,0
			c-1.5-0.1-3-0.2-4.5-0.3c0,0,0,0,0,0c-0.8-0.2-1.7-0.5-2.5-0.9c-0.6-0.3-1.2-0.5-1.7-0.9c-0.1,0-0.1-0.1-0.2-0.1
			c-2.6-1.5-4.5-3.5-5.6-5.6c-0.7-1.3-1.1-2.7-1-4c0-0.5,0.1-1.1,0.3-1.6c0.1-0.3,0.2-0.6,0.4-0.8c0,0,0,0,0,0
			c0-0.1,0.1-0.1,0.1-0.2c0.1-0.1,0.2-0.3,0.3-0.4c0,0,0,0,0,0c1.2-1.5,3.2-2.3,5.6-2.3h0c0,0,0.1,0,0.1,0c2.3,0,4.9,0.7,7.4,2.1
			c0.5,0.3,1,0.6,1.5,1c1.1,0.8,2,1.6,2.7,2.5C439.9,717.5,440.9,720.1,440.4,722.3z"/>
		
			<ellipse transform="matrix(0.8392 -0.5438 0.5438 0.8392 -315.1075 347.7789)" class="st12" cx="430.6" cy="706.8" rx="11.3" ry="7.5"/>
	</g>
	<g>
		<path class="st13" d="M417.6,663.8c0,2.9-0.7,5.5-1.9,7.5c0,0.1-0.1,0.1-0.1,0.2v0c-0.5,0.7-1,1.4-1.6,1.9
			c-0.5,0.5-1.1,0.9-1.8,1.2c-0.4,0.2-0.9,0.3-1.4,0.4c-0.1,0-0.3,0-0.4,0c-0.1,0-0.2,0-0.4,0c-0.1,0-0.2,0-0.3,0
			c-0.2,0-0.3,0-0.5-0.1c-0.5-0.1-0.9-0.2-1.3-0.4c-0.2-0.1-0.3-0.2-0.5-0.3c-1.1-0.6-2-1.6-2.8-2.8c-0.9-1.5-1.6-3.3-1.9-5.4
			c-0.1-0.8-0.2-1.6-0.2-2.5c0-0.4,0-0.7,0-1.1c0,0,0-0.1,0-0.1c0,0,0.1,0,0.1,0.1h0c4.5-0.3,9.4-0.8,14.6-1.5h0c0,0.1,0,0.1,0,0.2
			C417.6,662.2,417.6,663,417.6,663.8z"/>
		<ellipse class="st13" cx="410.2" cy="685.5" rx="7.5" ry="11.3"/>
		
			<ellipse transform="matrix(0.9032 -0.4293 0.4293 0.9032 -253.0906 237.6823)" class="st13" cx="400.3" cy="679.8" rx="11.3" ry="7.5"/>
		<path class="st13" d="M410.2,673.6L410.2,673.6c0,0.2,0,0.4-0.1,0.5c0,0,0,0.1,0,0.1c0,0.3-0.1,0.5-0.2,0.8
			c-0.2,0.5-0.4,1-0.7,1.4c0,0,0,0.1-0.1,0.1c-1,1.3-2.5,2-4.4,2.2c-0.2,0-0.4,0-0.6,0c-2.6,0.1-5.8-1-8.5-3
			c-0.4-0.3-0.7-0.6-1.1-0.9c-0.1,0-0.1-0.1-0.2-0.1c-0.4-0.4-0.8-0.7-1.1-1.1l1.9-2.5l3.7-4.7l2.8-3.7c0.4,0,0.7-0.1,1.1-0.1
			c0,0,0-0.1,0-0.1c0,0,0.1,0,0.1,0.1h0c0.6,0.3,1.1,0.7,1.6,1.1c2.8,2.1,4.7,4.8,5.3,7.3C410.1,671.9,410.2,672.8,410.2,673.6z"/>
		<ellipse transform="matrix(0.5 -0.866 0.866 0.5 -378.9732 703.2881)" class="st13" cx="419.6" cy="679.8" rx="7.5" ry="11.3"/>
		<path class="st13" d="M430.5,665c0.1,2.4-1.1,5.2-3.5,7.5c-0.2,0.2-0.4,0.4-0.7,0.7c-0.5,0.4-1,0.8-1.5,1.2
			c-0.1,0-0.1,0.1-0.2,0.1c-0.1,0.1-0.3,0.2-0.4,0.3c-3,1.9-6.3,2.8-8.9,2.4c-0.6-0.1-1.1-0.2-1.6-0.4c-1.1-0.4-2.1-1-2.7-1.9
			c-0.1-0.1-0.2-0.2-0.2-0.3c-0.1-0.2-0.2-0.3-0.3-0.5c-0.1-0.2-0.1-0.3-0.2-0.5c0,0,0,0,0,0c-0.3-0.8-0.4-1.6-0.3-2.5
			c0.3-3,2.6-6.4,6.2-8.8c0.5-0.3,0.9-0.6,1.4-0.8c0.2-0.1,0.4-0.2,0.6-0.3c0,0,0,0,0,0c1.3-0.2,2.7-0.3,4-0.5
			c0.5-0.1,1-0.1,1.5-0.2c0,0,0,0,0,0c0.8-0.1,1.6-0.2,2.5-0.4c0,0,0,0,0,0c1.5,0.4,2.7,1.2,3.5,2.4c0.2,0.3,0.4,0.7,0.5,1
			C430.4,663.9,430.5,664.5,430.5,665z"/>
	</g>
	<g>
		<ellipse class="st11" cx="495.8" cy="655" rx="7.5" ry="11.3"/>
		<ellipse class="st11" cx="495.8" cy="676.7" rx="7.5" ry="11.3"/>
		
			<ellipse transform="matrix(0.9032 -0.4293 0.4293 0.9032 -241.0392 273.5688)" class="st11" cx="485.9" cy="671.1" rx="11.3" ry="7.5"/>
		
			<ellipse transform="matrix(0.5976 -0.8018 0.8018 0.5976 -334.5543 655.3959)" class="st11" cx="485.7" cy="661" rx="7.5" ry="11.3"/>
		<ellipse transform="matrix(0.5 -0.866 0.866 0.5 -328.5922 773.0107)" class="st11" cx="505.2" cy="671.1" rx="7.5" ry="11.3"/>
		
			<ellipse transform="matrix(0.8392 -0.5438 0.5438 0.8392 -277.4487 381.0671)" class="st11" cx="505.8" cy="659.8" rx="11.3" ry="7.5"/>
	</g>
	<g>
		<ellipse class="st11" cx="508.7" cy="700.7" rx="7.5" ry="11.3"/>
		<path class="st11" d="M516,720.2c-1.5,0.3-3,0.6-4.5,0.9c-2.7,0.5-5.4,1.1-8.1,1.5c0,0,0,0,0,0c-0.7,0.1-1.4,0.3-2.2,0.4
			c0-0.2,0-0.5,0-0.7c0-2.5,0.5-4.8,1.4-6.7c1-2,2.3-3.5,3.9-4.2c0.5-0.3,1.1-0.4,1.7-0.5c0.1,0,0.1,0,0.2,0c0,0,0.1,0,0.1,0h0.1
			c0.1,0,0.1,0,0.2,0c0.7,0,1.3,0.2,1.9,0.5c1.1,0.5,2.2,1.4,3,2.6v0C515,715.7,515.7,717.8,516,720.2z"/>
		<path class="st11" d="M508.6,717.5c-1,1.9-2.8,3.8-5.2,5.2c0,0,0,0,0,0c-0.7,0.1-1.4,0.3-2.2,0.4c-1.7,0.3-3.3,0.5-5,0.8
			c-1.4,0.2-2.8,0.4-4.2,0.6c-1.6-0.6-2.8-1.5-3.4-2.9c-0.8-1.8-0.6-3.9,0.6-5.9c0.3-0.6,0.7-1.2,1.2-1.7c0.7-0.8,1.6-1.6,2.6-2.4
			c0.7-0.5,1.5-1,2.3-1.4c0.1-0.1,0.3-0.1,0.4-0.2c2.6-1.3,5.4-1.7,7.7-1.5c2.2,0.2,4,1,5.1,2.4c0.1,0.1,0.1,0.1,0.1,0.1
			c0,0,0.1,0.1,0.1,0.1c0.2,0.2,0.3,0.5,0.4,0.7c0,0,0,0.1,0,0.1C509.8,713.6,509.6,715.6,508.6,717.5z"/>
		
			<ellipse transform="matrix(0.5976 -0.8018 0.8018 0.5976 -365.9422 684.152)" class="st11" cx="498.6" cy="706.6" rx="7.5" ry="11.3"/>
		<path class="st11" d="M528.1,717.3c-0.1,0-0.2,0.1-0.3,0.1c-0.1,0-0.1,0-0.2,0.1c-1.4,0.4-2.8,0.7-4.3,1.1c0,0,0,0,0,0
			c-2.4,0.6-4.8,1.2-7.3,1.7c-1.5,0.3-3,0.6-4.5,0.9c-1.3-1.1-2.3-2.4-3-3.7c-0.7-1.3-1.1-2.7-1-4c0-0.5,0.1-1.1,0.3-1.6
			c0.1-0.3,0.2-0.6,0.4-0.8c0,0,0,0,0,0c0-0.1,0.1-0.1,0.1-0.2c0.1-0.1,0.2-0.3,0.3-0.4c0,0,0,0,0,0c1.2-1.5,3.2-2.3,5.6-2.3
			c0.6,0,1.3,0,2,0.1c1.8,0.3,3.7,0.9,5.5,2c0.5,0.3,1,0.6,1.5,1c2.1,1.5,3.6,3.3,4.4,5.2C527.9,716.7,528,717,528.1,717.3
			C528.1,717.2,528.1,717.2,528.1,717.3z"/>
		
			<ellipse transform="matrix(0.8392 -0.5438 0.5438 0.8392 -300.1879 395.4496)" class="st11" cx="518.7" cy="705.4" rx="11.3" ry="7.5"/>
	</g>
	<g>
		<path class="st13" d="M571.5,610.1c-0.2,0.3-0.3,0.7-0.5,1c-0.9,1.6-2.1,2.7-3.5,3.4h0c-0.4,0.2-0.9,0.3-1.4,0.4
			c-0.1,0-0.3,0-0.4,0c-0.1,0-0.2,0-0.4,0c-0.1,0-0.2,0-0.3,0c-0.2,0-0.3,0-0.5-0.1c-0.5-0.1-0.9-0.2-1.3-0.4h0
			c-1.3-0.6-2.4-1.6-3.2-3c-1.3-2-2.1-4.8-2.1-7.8c0-0.2,0-0.4,0-0.5c0.1-0.1,0.3-0.2,0.4-0.3c3.8-2.9,7.2-5.8,10.3-8.4
			c0.3,1.9,0.7,3.8,1,5.7c0.2,1,0.3,1.9,0.5,2.9C570.7,605.3,571.1,607.7,571.5,610.1z"/>
		<path class="st13" d="M572.4,621.3c-0.4,1.6-0.8,3.2-1.2,4.8c-0.6,2.5-1.3,4.9-1.9,7.3c-0.2,0.6-0.3,1.3-0.5,1.9
			c-0.7,0.5-1.4,0.9-2.2,1.1c-0.4,0.1-0.8,0.1-1.2,0.1c-0.5,0-1.1-0.1-1.6-0.3c-0.4-0.1-0.7-0.3-1.1-0.5h0c-1.7-1-3.1-3-4-5.5
			c-0.1-0.3-0.2-0.7-0.3-1.1c-0.2-0.8-0.4-1.7-0.4-2.6v0c0-0.3,0-0.6-0.1-0.9c0-0.2,0-0.3,0-0.5c0-2.5,0.5-4.8,1.4-6.7
			c0.5-1,1-1.8,1.7-2.5c0.7-0.7,1.4-1.3,2.2-1.6h0c0.5-0.3,1.1-0.4,1.7-0.5h0c0.1,0,0.1,0,0.2,0c0,0,0.1,0,0.1,0h0.1
			c0.1,0,0.1,0,0.2,0c0.7,0,1.3,0.2,1.9,0.5h0c1.1,0.5,2.2,1.4,3,2.6C571.4,618.2,572,619.7,572.4,621.3z"/>
		
			<ellipse transform="matrix(0.9032 -0.4293 0.4293 0.9032 -212.2062 298.4901)" class="st13" cx="555.5" cy="619.6" rx="11.3" ry="7.5"/>
		<path class="st13" d="M565.4,613.4L565.4,613.4c0,0.2,0,0.4-0.1,0.5c0,0,0,0.1,0,0.1c0,0.3-0.1,0.5-0.2,0.8
			c-0.2,0.5-0.4,1-0.7,1.4c0,0,0,0.1-0.1,0.1c-0.4,0.5-0.9,1-1.5,1.3c-1,0.5-2.1,0.8-3.4,0.9c-2.3,0.1-5.1-0.7-7.6-2.4
			c-0.3-0.2-0.6-0.4-0.9-0.7c-0.2-0.2-0.4-0.3-0.6-0.5c-0.2-0.2-0.4-0.4-0.6-0.5c-1.1-1-2.1-2.1-2.8-3.3c0.4-0.3,0.8-0.6,1.2-0.9
			c3.5-2.5,6.8-5,9.9-7.4c0.1-0.1,0.3-0.2,0.4-0.3c0.5,0.3,0.9,0.6,1.4,0.9c2.8,2.1,4.7,4.8,5.3,7.3
			C565.4,611.7,565.5,612.6,565.4,613.4z"/>
		<path class="st13" d="M573.1,618.8c-0.2,0.8-0.4,1.7-0.6,2.5c-0.4,1.6-0.8,3.2-1.2,4.8c0,0-0.1,0-0.1-0.1
			c-2.6-1.5-4.6-3.6-5.7-5.7c-0.7-1.3-1.1-2.7-1-4c0-0.5,0.1-1.1,0.3-1.6c0.1-0.3,0.2-0.6,0.4-0.8c0,0,0,0,0,0h0
			c0-0.1,0.1-0.1,0.1-0.1c0.1-0.1,0.2-0.3,0.3-0.4c0,0,0,0,0,0c1.2-1.5,3.2-2.3,5.6-2.3c0.2,0,0.5,0,0.7,0c0.4,2,0.7,4,1.1,6
			C572.9,617.6,573,618.2,573.1,618.8z"/>
		<path class="st13" d="M572.8,617c-0.8,0.1-1.5,0.1-2.2,0c-1.8-0.2-3.4-0.9-4.4-2.2c-0.1-0.1-0.2-0.2-0.3-0.3
			c-0.1-0.2-0.2-0.3-0.3-0.5c-0.1-0.2-0.1-0.3-0.2-0.5c0,0,0,0,0,0c-0.3-0.8-0.4-1.6-0.3-2.5c0.3-2.7,2.1-5.7,5.1-8
			c0.4,2.4,0.9,4.8,1.3,7.2c0.1,0.3,0.1,0.7,0.2,1C572.1,613,572.4,615,572.8,617z"/>
	</g>
	<g>
		<path class="st10" d="M516.2,630c-0.2,2.1-0.9,4-1.8,5.5c-0.9,1.6-2.1,2.7-3.5,3.3c-0.5,0.2-0.9,0.3-1.4,0.4c-0.1,0-0.3,0-0.4,0
			c-0.1,0-0.2,0-0.4,0c-0.1,0-0.2,0-0.3,0c-0.2,0-0.3,0-0.5-0.1c-0.5-0.1-0.9-0.2-1.3-0.4c-1.1-0.5-2.1-1.4-3-2.6
			c-0.1-0.1-0.2-0.3-0.3-0.4c0.3,0,0.6,0.1,0.9,0.1h0c1.3-0.6,2.5-1.2,3.8-1.8c0.2-0.1,0.5-0.2,0.7-0.3
			C511.4,632.5,513.8,631.3,516.2,630z"/>
		<ellipse class="st10" cx="508.9" cy="649.7" rx="7.5" ry="11.3"/>
		<path class="st10" d="M509.6,642.5L509.6,642.5c-0.1,0.8-0.4,1.5-0.8,2.3c-0.3,0.5-0.6,1.1-1,1.6c-1.2,1.6-3,3-5.1,4.1
			c-0.1,0.1-0.3,0.1-0.5,0.2c-0.2,0.1-0.5,0.2-0.7,0.3c-0.6,0.3-1.2,0.5-1.8,0.7c-4.4,1.3-8.7,0.5-10.5-2.1
			c-0.1-0.2-0.3-0.4-0.4-0.7c0,0,0-0.1,0-0.1c-0.9-1.9-0.5-4.2,0.9-6.4c0,0,0.1-0.1,0.1-0.1h0c1.7-0.7,3.4-1.4,5-2.1c0,0,0,0,0,0
			c0.5-0.2,0.9-0.4,1.3-0.6c0,0,0,0,0,0c0,0,0,0,0,0c0,0,0,0,0,0c0,0,0,0,0,0c0,0,0,0,0,0c0,0,0,0,0,0c2.6-1.1,5.1-2.3,7.6-3.4
			c-0.1-0.1-0.2-0.3-0.3-0.4c0.3,0,0.6,0.1,0.9,0.1h0c1.8,0.3,3.2,1.1,4.2,2.3c0.1,0.1,0.1,0.1,0.1,0.1c0,0,0.1,0.1,0.1,0.1
			c0.2,0.2,0.3,0.5,0.4,0.7c0,0,0,0.1,0,0.1C509.7,640.3,509.8,641.4,509.6,642.5z"/>
		<path class="st10" d="M508.9,637.8L508.9,637.8c0,0.2,0,0.4-0.1,0.5c0,0,0,0.1,0,0.1c0,0.3-0.1,0.5-0.2,0.8
			c-0.2,0.5-0.4,1-0.7,1.4c0,0,0,0.1-0.1,0.1c-1.1,1.4-2.9,2.1-4.9,2.2c-0.3,0-0.5,0-0.8,0c-2.3-0.1-4.9-1-7.3-2.7
			c0.5-0.2,0.9-0.4,1.3-0.6c0,0,0,0,0,0c0,0,0,0,0,0c0,0,0,0,0,0c0,0,0,0,0,0c0,0,0,0,0,0c0,0,0,0,0,0c2.6-1.1,5.1-2.3,7.6-3.4
			c-0.1-0.1-0.2-0.3-0.3-0.4c0.3,0,0.6,0.1,0.9,0.1h0c1.3-0.6,2.5-1.2,3.8-1.8c0.2,0.4,0.3,0.8,0.4,1.2v0
			C508.8,636.2,508.9,637,508.9,637.8z"/>
		<ellipse transform="matrix(0.5 -0.866 0.866 0.5 -298.6583 770.8596)" class="st10" cx="518.3" cy="644.1" rx="7.5" ry="11.3"/>
		<path class="st10" d="M529,631.2c-0.1,0.6-0.3,1.1-0.6,1.7c-0.9,2.1-2.6,4.1-4.9,5.7c-0.2,0.1-0.4,0.3-0.6,0.4c0,0,0,0-0.1,0
			c-0.6,0.4-1.2,0.7-1.9,1c-1.5,0.7-3,1.2-4.5,1.4h0c-0.9,0.1-1.7,0.1-2.5,0h0c-0.4-0.1-0.9-0.1-1.3-0.2c0,0,0,0,0,0
			c-1.3-0.3-2.4-1-3.1-2c-0.1-0.1-0.2-0.2-0.2-0.3c-0.1-0.2-0.2-0.3-0.3-0.5c-0.1-0.2-0.1-0.3-0.2-0.5c0,0,0,0,0,0
			c-0.3-0.8-0.4-1.6-0.3-2.5v0c0-0.5,0.1-1,0.3-1.5c2.5-1.2,4.9-2.5,7.3-3.8c2.7-1.4,5.4-2.9,7.9-4.4c0.6-0.3,1.2-0.7,1.8-1
			c1,0.4,1.8,1.1,2.4,2c0.5,0.7,0.7,1.5,0.8,2.3C529.2,629.7,529.2,630.4,529,631.2z"/>
	</g>
	<g>
		<ellipse class="st14" cx="458.8" cy="676.9" rx="8.1" ry="12.1"/>
		<ellipse class="st14" cx="458.8" cy="700.1" rx="8.1" ry="12.1"/>
		
			<ellipse transform="matrix(0.9106 -0.4132 0.4132 0.9106 -246.756 247.1362)" class="st14" cx="448" cy="694.1" rx="12.3" ry="8"/>
		
			<ellipse transform="matrix(0.5796 -0.8149 0.8149 0.5796 -368.5616 652.1194)" class="st14" cx="447.8" cy="683.3" rx="8" ry="12.3"/>
		
			<ellipse transform="matrix(0.4826 -0.8758 0.8758 0.4826 -365.2233 769.8403)" class="st14" cx="469" cy="694.1" rx="8" ry="12.3"/>
		
			<ellipse transform="matrix(0.8505 -0.5259 0.5259 0.8505 -288.4654 348.9621)" class="st14" cx="469.7" cy="682" rx="12.3" ry="8"/>
	</g>
	<g>
		<ellipse class="st14" cx="545.4" cy="667.2" rx="7.5" ry="11.3"/>
		<ellipse class="st14" cx="545.4" cy="688.9" rx="7.5" ry="11.3"/>
		
			<ellipse transform="matrix(0.9032 -0.4293 0.4293 0.9032 -241.4694 296.0441)" class="st14" cx="535.5" cy="683.3" rx="11.3" ry="7.5"/>
		
			<ellipse transform="matrix(0.5976 -0.8018 0.8018 0.5976 -324.3683 700.0741)" class="st14" cx="535.3" cy="673.2" rx="7.5" ry="11.3"/>
		<path class="st14" d="M557.5,676.3c-0.3,1.2-0.7,2.3-1,3.4v0c-0.2,0.6-0.3,1.2-0.5,1.7c-0.9,3-1.8,6.1-2.8,9.3
			c-0.1-0.1-0.3-0.1-0.4-0.2c-0.6-0.3-1.2-0.5-1.7-0.9c-2.6-1.5-4.6-3.6-5.7-5.7c-0.7-1.4-1.1-2.7-1-4c0-0.5,0.1-1.1,0.3-1.6
			c0.1-0.3,0.2-0.6,0.4-0.8c0,0,0,0,0,0c0-0.1,0.1-0.1,0.1-0.1c0.1-0.1,0.2-0.3,0.3-0.4c0,0,0,0,0,0c1.2-1.5,3.2-2.3,5.6-2.3
			C553,674.7,555.3,675.2,557.5,676.3z"/>
		<path class="st14" d="M561.1,663.4c-0.6,2.2-1.2,4.4-1.8,6.5c-0.6,2.1-1.2,4.3-1.8,6.4c-0.3,1.2-0.7,2.3-1,3.4v0
			c-2.1,0.8-4.2,1.1-6,0.9h0c-1.8-0.2-3.4-0.9-4.4-2.2c-0.1-0.1-0.2-0.2-0.2-0.3c-0.1-0.2-0.2-0.3-0.3-0.5c-0.1-0.2-0.1-0.3-0.2-0.5
			c0,0,0,0,0-0.1c-0.3-0.8-0.4-1.7-0.3-2.6v0c0.3-3,2.6-6.4,6.2-8.8c0.5-0.3,0.9-0.6,1.4-0.8c0.1,0,0.1-0.1,0.2-0.1
			C555.8,663.3,558.8,662.9,561.1,663.4z"/>
	</g>
	<g>
		<ellipse class="st12" cx="535.2" cy="694.2" rx="7.5" ry="11.3"/>
		<path class="st12" d="M542.5,713.1c-1.5,0.5-3,1-4.6,1.4c-3.2,1-6.4,1.9-9.7,2.8c-0.1,0-0.2,0.1-0.3,0.1c0,0,0,0,0,0
			c0-0.3,0-0.6-0.1-0.9c0-0.2,0-0.4,0-0.6c0-2.5,0.5-4.8,1.4-6.7c1-2,2.3-3.5,3.9-4.2c0.5-0.3,1.1-0.4,1.7-0.5c0.1,0,0.1,0,0.2,0
			c0,0,0.1,0,0.1,0h0.1c0.1,0,0.1,0,0.2,0c0.7,0,1.3,0.2,1.9,0.5c1.1,0.5,2.2,1.4,3,2.6v0C541.4,709.1,542.1,711,542.5,713.1z"/>
		<path class="st12" d="M535.2,711c-1.2,2.3-3.5,4.5-6.6,6c-0.1,0.1-0.3,0.1-0.4,0.2c-0.1,0-0.2,0.1-0.3,0.1c-0.1,0-0.1,0.1-0.2,0.1
			c-1.4,0.4-2.8,0.7-4.3,1.1c0,0,0,0,0,0c-3.7,0.4-7-0.8-8.2-3.4c-0.1-0.3-0.3-0.6-0.3-0.9c-0.5-1.9,0.1-4,1.5-5.9
			c0.8-1.1,1.9-2.2,3.1-3.1c0.8-0.6,1.7-1.1,2.7-1.6c2.3-1.1,4.7-1.6,6.9-1.6c0.3,0,0.6,0,0.9,0.1c2.2,0.2,4,1,5.1,2.4
			c0.1,0.1,0.1,0.1,0.1,0.1c0,0,0.1,0.1,0.1,0.1c0.2,0.2,0.3,0.5,0.4,0.7c0,0,0,0.1,0,0.1C536.4,707.2,536.1,709.1,535.2,711z"/>
		
			<ellipse transform="matrix(0.5976 -0.8018 0.8018 0.5976 -350.1053 702.8234)" class="st12" cx="525.1" cy="700.2" rx="7.5" ry="11.3"/>
		<path class="st12" d="M548.4,703.9c-0.3,0.8-0.7,1.6-1.1,2.5v0c-0.9,2.1-2,4.1-3.1,6.2v0c-0.6,0.2-1.2,0.4-1.8,0.6
			c-1.5,0.5-3,1-4.6,1.4c-1.2-1.1-2.1-2.3-2.7-3.5c-0.7-1.3-1.1-2.7-1-4c0-0.5,0.1-1.1,0.3-1.6c0.1-0.3,0.2-0.6,0.4-0.8c0,0,0,0,0,0
			c0-0.1,0.1-0.1,0.1-0.2c0.1-0.1,0.2-0.3,0.3-0.4c0,0,0,0,0,0c1.2-1.5,3.2-2.3,5.6-2.3C543.2,701.7,545.8,702.4,548.4,703.9
			C548.4,703.8,548.4,703.8,548.4,703.9z"/>
		<path class="st12" d="M553,691.2c-1.3,4.2-2.8,8.4-4.6,12.7c-0.3,0.8-0.7,1.6-1.1,2.5v0c-2.4,1.1-4.9,1.6-7,1.4v0
			c-1.8-0.2-3.4-0.9-4.4-2.2c-0.1-0.1-0.2-0.2-0.2-0.3c-0.1-0.2-0.2-0.3-0.3-0.5c-0.1-0.2-0.1-0.3-0.2-0.5v0c0,0,0,0,0,0
			c-0.3-0.8-0.4-1.6-0.3-2.5c0.2-2.3,1.6-4.9,4-7c0.7-0.6,1.4-1.2,2.3-1.8c0.5-0.3,0.9-0.6,1.4-0.8c3.7-1.9,7.6-2.2,10.1-0.9
			C552.8,691.1,552.9,691.1,553,691.2z"/>
	</g>
	<g>
		<ellipse class="st13" cx="476.5" cy="703.9" rx="7.5" ry="11.3"/>
		<path class="st13" d="M483.9,725.5c-0.2,0-0.5,0.1-0.7,0.1c-0.7,0.1-1.4,0.1-2.2,0.2c-3.8,0.4-7.5,0.7-11.2,0.9
			c-0.3,0-0.6,0-0.9,0.1c0-0.4,0-0.7,0-1.1c0-2.5,0.5-4.8,1.4-6.7c0.9-2,2.3-3.5,3.9-4.2c0.5-0.3,1.1-0.4,1.7-0.5c0.1,0,0.1,0,0.2,0
			c0,0,0.1,0,0.1,0h0.1c0.1,0,0.1,0,0.2,0c0.7,0,1.3,0.2,1.9,0.5h0c1.1,0.5,2.2,1.4,3,2.6C483,719.4,483.9,722.3,483.9,725.5z"/>
		<path class="st13" d="M476.4,720.7C476.4,720.7,476.4,720.7,476.4,720.7c-1.2,2.3-3.5,4.5-6.5,5.9c-0.3,0-0.6,0-0.9,0.1
			c-0.9,0.1-1.8,0.1-2.7,0.1c-2.7,0.1-5.3,0.2-7.9,0.3c-0.9-0.6-1.6-1.3-2.1-2.3c-0.7-1.4-0.6-3-0.1-4.5c0.5-1.3,1.3-2.6,2.5-3.8
			c0.5-0.6,1.2-1.1,1.9-1.6c0.8-0.6,1.7-1.1,2.7-1.6c0.9-0.4,1.8-0.8,2.7-1c1.8-0.5,3.5-0.7,5-0.5c2.2,0.2,4,1,5.1,2.4
			c0,0,0.1,0.1,0.1,0.1c0,0,0.1,0.1,0.1,0.1c0.2,0.2,0.3,0.5,0.4,0.7c0,0,0,0.1,0,0.1C477.6,716.9,477.4,718.8,476.4,720.7z"/>
		
			<ellipse transform="matrix(0.5976 -0.8018 0.8018 0.5976 -381.5072 659.5934)" class="st13" cx="466.4" cy="709.9" rx="7.5" ry="11.3"/>
		<path class="st13" d="M496.3,723.9c-1.4,0.2-2.8,0.4-4.2,0.6c-2.7,0.4-5.4,0.7-8.1,1c-0.2,0-0.5,0.1-0.7,0.1
			c-0.7,0.1-1.4,0.1-2.2,0.2c-2.1-1.4-3.7-3.2-4.7-5c0,0,0,0,0,0c-0.7-1.4-1.1-2.7-1-4c0-0.5,0.1-1.1,0.3-1.6
			c0.1-0.3,0.2-0.6,0.4-0.8c0,0,0,0,0,0c0-0.1,0.1-0.1,0.1-0.1c0.1-0.1,0.2-0.3,0.3-0.4c0,0,0,0,0,0c1.2-1.5,3.2-2.3,5.6-2.3
			c1.3,0,2.8,0.2,4.2,0.7c0,0,0,0,0,0c0.3,0.1,0.6,0.2,0.8,0.3c0,0,0,0,0,0c0.8,0.3,1.6,0.7,2.4,1.2c0.3,0.2,0.5,0.3,0.8,0.5
			c0.3,0.2,0.5,0.3,0.7,0.5C494.8,717.1,496.8,720.9,496.3,723.9z"/>
		
			<ellipse transform="matrix(0.8392 -0.5438 0.5438 0.8392 -307.1271 378.4326)" class="st13" cx="486.5" cy="708.6" rx="11.3" ry="7.5"/>
	</g>
	<g>
		<ellipse class="st10" cx="446.6" cy="707.3" rx="7.5" ry="11.3"/>
		<path class="st10" d="M453.9,727.1c-1.8,0-3.5,0-5.2,0h0c-1.5,0-3-0.1-4.4-0.1c-1.7,0-3.4-0.1-5-0.2c0.2-1.7,0.7-3.2,1.3-4.5
			c1-2,2.3-3.5,3.9-4.2c0.5-0.3,1.1-0.4,1.7-0.5c0.1,0,0.1,0,0.2,0c0,0,0.1,0,0.1,0h0.1c0.1,0,0.1,0,0.2,0h0c0.7,0,1.3,0.2,1.9,0.5
			c1.1,0.5,2.2,1.4,3,2.6v0C452.8,722.4,453.6,724.6,453.9,727.1z"/>
		<path class="st10" d="M446.5,724.1c-0.5,1-1.3,2-2.2,2.9c-1.7,0-3.4-0.1-5-0.2c-1.4-0.1-2.8-0.1-4.1-0.2c0,0,0,0,0,0c0,0,0,0,0,0
			c-1.5-0.1-3-0.2-4.5-0.3c0,0,0,0,0,0c-0.9-0.1-1.7-0.1-2.6-0.2c-0.7-0.1-1.3-0.1-2-0.2c0-0.5,0.1-0.9,0.2-1.4
			c0.3-1.2,0.9-2.4,1.7-3.5c0.8-1,1.7-1.9,2.9-2.8c0.8-0.6,1.7-1.1,2.7-1.6c1.5-0.7,3.1-1.2,4.6-1.4c1.1-0.2,2.2-0.2,3.2-0.1
			c2.2,0.2,4,1,5.1,2.4c0,0.1,0.1,0.1,0.1,0.1c0,0,0.1,0.1,0.1,0.1c0.2,0.2,0.3,0.5,0.4,0.7c0,0,0,0.1,0,0.1
			C447.7,720.2,447.5,722.2,446.5,724.1z"/>
		
			<ellipse transform="matrix(0.5976 -0.8018 0.8018 0.5976 -396.267 636.9713)" class="st10" cx="436.5" cy="713.3" rx="7.5" ry="11.3"/>
		<path class="st10" d="M466.4,726.8c-2.7,0.1-5.3,0.2-7.9,0.3c-1.5,0-3,0.1-4.5,0.1c-1.8,0-3.5,0-5.2,0h0c-0.9-0.9-1.7-2-2.2-3
			c-0.7-1.3-1.1-2.7-1-4c0-0.5,0.1-1.1,0.3-1.6c0.1-0.3,0.2-0.6,0.4-0.8c0,0,0,0,0,0c0-0.1,0.1-0.1,0.1-0.2c0.1-0.1,0.2-0.3,0.3-0.4
			c0,0,0,0,0,0c1.2-1.5,3.2-2.3,5.6-2.3h0c2.1,0,4.4,0.5,6.7,1.7c0.3,0.1,0.6,0.3,0.9,0.5c0.5,0.3,1,0.6,1.5,1
			C464.7,720.4,466.6,723.9,466.4,726.8z"/>
		
			<ellipse transform="matrix(0.8392 -0.5438 0.5438 0.8392 -313.7817 362.7104)" class="st10" cx="456.5" cy="712" rx="11.3" ry="7.5"/>
	</g>
	<g>
		<path class="st14" d="M395.2,671.1c-0.1,1.2-0.3,2.4-0.5,3.4c0,0.1-0.1,0.2-0.1,0.3c-0.3,1-0.7,2-1.2,2.8
			c-0.9,1.6-2.1,2.7-3.5,3.4h0c0,0-0.1,0-0.1,0.1c-0.4,0.2-0.8,0.3-1.2,0.3c-0.1,0-0.3,0-0.4,0c-0.1,0-0.2,0-0.4,0
			c-0.1,0-0.2,0-0.3,0c-0.1,0-0.2,0-0.3,0c0.2-0.2,0.3-0.4,0.5-0.7c0,0,0,0,0-0.1c0-0.1,0.1-0.1,0.1-0.2c0,0,0-0.1,0.1-0.1
			c0.5-0.6,0.9-1.2,1.4-1.8c0,0,0,0,0,0c1.3-1.7,2.6-3.3,3.9-5l0-0.1L395.2,671.1z"/>
		<path class="st14" d="M395.2,691.8c0,0.6,0,1.2-0.1,1.7c-0.2,2.2-0.8,4.1-1.7,5.7v0c-1,1.7-2.2,2.9-3.7,3.5
			c-0.6,0.3-1.3,0.4-1.9,0.4c-0.7,0-1.3-0.1-1.9-0.4l-4.2-10.1l-0.1-0.2l-1-2.5c1.4-1.8,2.8-3.6,4.2-5.4v0c0.7-0.9,1.4-1.8,2.1-2.7
			c0,0,0,0,0,0c0.1-0.1,0.2-0.3,0.3-0.4c0.2-0.2,0.3-0.4,0.5-0.7c0,0,0,0,0-0.1c0-0.1,0.1-0.1,0.1-0.2c0,0,0.1,0,0.1,0
			c0.6,0,1.2,0.2,1.8,0.4c0,0,0.1,0,0.1,0.1h0c1.1,0.5,2.2,1.4,3,2.6c0.2,0.3,0.4,0.6,0.5,0.9c0.6,1,1,2.2,1.3,3.4
			C395.1,689.2,395.2,690.5,395.2,691.8z"/>
		<path class="st14" d="M387.7,687c-1.1,2-3,4-5.6,5.5h0c-0.1,0.1-0.3,0.2-0.4,0.2l-0.1-0.2l-1-2.5c1.4-1.8,2.8-3.6,4.2-5.4v0
			c0.7-0.9,1.4-1.8,2.1-2.7c0,0,0,0,0,0c0.1-0.1,0.2-0.3,0.3-0.4c0.2-0.2,0.3-0.4,0.5-0.7c0,0,0,0,0-0.1c0.1,0.2,0.3,0.4,0.4,0.7
			c0,0,0,0.1,0,0.1C388.9,683.1,388.7,685.1,387.7,687z"/>
		<path class="st14" d="M387.7,680.8c0,0.2-0.1,0.5-0.2,0.7c-0.2,0.5-0.4,1-0.7,1.4c0,0,0,0.1-0.1,0.1c-0.5,0.7-1.2,1.2-1.9,1.5
			c0.7-0.9,1.4-1.8,2.1-2.7c0,0,0,0,0,0c0.1-0.1,0.2-0.3,0.3-0.4C387.3,681.2,387.5,681,387.7,680.8z"/>
		<path class="st14" d="M407.1,691.6L407.1,691.6c0,0.1-0.1,0.2-0.1,0.3c-0.4,0.8-1.1,1.4-1.8,1.8c-0.7,0.4-1.4,0.7-2.3,0.9
			c-0.8,0.2-1.7,0.2-2.7,0.2h0c-1.6-0.1-3.3-0.5-5-1.2c-0.6-0.3-1.2-0.5-1.7-0.9c-1.7-1-3.2-2.2-4.3-3.5c-0.6-0.7-1.1-1.4-1.5-2.2
			c-0.7-1.3-1.1-2.7-1-4c0-0.4,0.1-0.8,0.2-1.2c0,0,0,0,0,0c0.1-0.1,0.2-0.3,0.3-0.4c0.2-0.2,0.3-0.4,0.5-0.7c0,0,0,0,0-0.1
			c0-0.1,0.1-0.1,0.1-0.2c0,0,0-0.1,0.1-0.1c0.5-0.6,0.9-1.2,1.4-1.8c0,0,0,0,0,0c0.6-0.3,1.2-0.6,1.9-0.7h0
			c0.7-0.2,1.4-0.3,2.1-0.3c2.3,0,5,0.7,7.5,2.1c0.5,0.3,1,0.6,1.5,1c0.3,0.2,0.6,0.4,0.8,0.7c1.3,1.1,2.3,2.3,3.1,3.5
			C407.7,687.2,408.1,689.6,407.1,691.6z"/>
		<path class="st14" d="M387.7,680C387.8,680,387.8,680,387.7,680L387.7,680"/>
		<path class="st14" d="M408,672.5c-0.1,0.6-0.2,1.2-0.4,1.9c-0.1,0.2-0.2,0.4-0.3,0.7c-0.6,1.3-1.4,2.6-2.6,3.7
			c-0.3,0.3-0.6,0.6-0.9,0.9c-0.4,0.4-0.9,0.8-1.4,1.1c-0.2,0.1-0.4,0.3-0.6,0.4c-3,1.9-6.2,2.8-8.9,2.5c-1.3-0.1-2.4-0.5-3.3-1.2
			c-0.4-0.3-0.8-0.6-1.1-1c-0.1-0.1-0.2-0.2-0.3-0.3c-0.1-0.2-0.2-0.3-0.3-0.5c0,0,0-0.1,0-0.1c0.5-0.6,0.9-1.2,1.4-1.8c0,0,0,0,0,0
			c1.3-1.7,2.6-3.3,3.9-5l0-0.1l1.9-2.5l3.7-4.7c1.4-0.3,2.8-0.4,4.1-0.2c1.9,0.3,3.4,1.1,4.3,2.5C408,669.9,408.2,671.1,408,672.5z
			"/>
	</g>
	<g>
		<path class="st13" d="M489.7,643.7c0,1.9-0.3,3.7-0.9,5.3c-0.3,0.8-0.6,1.5-1,2.2c-0.4,0.7-0.8,1.3-1.3,1.8
			c-0.7,0.7-1.4,1.2-2.2,1.6c0,0,0,0-0.1,0c-0.4,0.2-0.9,0.3-1.3,0.4c-0.1,0-0.3,0-0.4,0c-0.1,0-0.2,0-0.4,0c-0.1,0-0.2,0-0.3,0
			c-0.2,0-0.3,0-0.5-0.1c-0.5-0.1-0.9-0.2-1.3-0.4c-0.8-0.3-1.5-0.9-2.1-1.6c-0.4-0.4-0.8-0.9-1.1-1.5c-0.6-1-1.2-2.2-1.5-3.5
			c0-0.1,0-0.1-0.1-0.2c1.4-0.5,2.7-0.9,4.1-1.4c1.2-0.4,2.3-0.8,3.5-1.3c1-0.4,2-0.8,3.1-1.2c0,0,0,0,0,0c1.2-0.5,2.5-1,3.7-1.5
			c0,0,0,0.1,0,0.1C489.7,642.9,489.7,643.3,489.7,643.7z"/>
		<ellipse class="st13" cx="482.2" cy="665.4" rx="7.5" ry="11.3"/>
		
			<ellipse transform="matrix(0.9032 -0.4293 0.4293 0.9032 -237.4968 266.6559)" class="st13" cx="472.3" cy="659.8" rx="11.3" ry="7.5"/>
		<path class="st13" d="M482.2,653.5L482.2,653.5c0,0.2,0,0.4-0.1,0.5c0,0,0,0.1,0,0.1c0,0.3-0.1,0.5-0.2,0.8
			c-0.2,0.5-0.4,1-0.7,1.4c0,0,0,0.1-0.1,0.1c-1.1,1.4-2.9,2.1-4.9,2.2c-0.2,0-0.4,0-0.5,0c-1.6,0-3.4-0.5-5.1-1.3
			c-1-0.5-2-1-2.9-1.7c-0.4-0.3-0.9-0.7-1.2-1c-0.2-0.2-0.4-0.3-0.6-0.5c-0.8-0.8-1.6-1.7-2.1-2.6c2.5-0.7,5-1.5,7.6-2.4
			c1.3-0.4,2.6-0.9,3.9-1.3c1.4-0.5,2.7-0.9,4.1-1.4c0.5,0.6,1,1.2,1.3,1.9c0.5,0.9,1,1.9,1.2,2.8v0c0.1,0.3,0.2,0.7,0.2,1
			C482.2,652.5,482.2,653,482.2,653.5z"/>
		<ellipse transform="matrix(0.5 -0.866 0.866 0.5 -325.5746 755.6201)" class="st13" cx="491.6" cy="659.8" rx="7.5" ry="11.3"/>
		<path class="st13" d="M501.8,648.4c-0.1,0.3-0.2,0.6-0.4,0.8c-0.5,0.9-1,1.7-1.8,2.5c-0.8,0.9-1.7,1.8-2.8,2.5
			c-0.2,0.1-0.4,0.3-0.6,0.4c-1.4,0.9-2.8,1.6-4.2,2h0c-1.2,0.4-2.4,0.5-3.6,0.5c-0.4,0-0.7,0-1.1-0.1h0c-1.3-0.1-2.5-0.6-3.4-1.3
			c-0.4-0.3-0.7-0.6-1-0.9c-0.1-0.1-0.2-0.2-0.2-0.3c-0.1-0.2-0.2-0.3-0.3-0.5c-0.1-0.2-0.1-0.3-0.2-0.5c0,0,0,0,0-0.1
			c-0.2-0.5-0.3-1-0.3-1.6c0-0.3,0-0.7,0-1v0c0.1-0.6,0.2-1.3,0.4-1.9c0.6-1.8,1.9-3.6,3.6-5.2c0,0,0,0,0,0c1.2-0.5,2.5-1,3.7-1.5
			c0,0,0.1,0,0.1,0h0c1.7-0.7,3.4-1.4,5-2.1c0,0,0,0,0,0c0.5-0.2,0.9-0.4,1.3-0.6c0,0,0,0,0,0c0,0,0,0,0,0c0,0,0,0,0,0c0,0,0,0,0,0
			c0,0,0,0,0,0c0,0,0,0,0,0c2.4,0.1,4.4,0.9,5.5,2.6c0.1,0.2,0.3,0.5,0.4,0.7c0.1,0.3,0.3,0.7,0.3,1.1
			C502.7,645.4,502.5,646.9,501.8,648.4z"/>
	</g>
	<g>
		<ellipse class="st10" cx="486.8" cy="677.2" rx="7.5" ry="11.3"/>
		<ellipse class="st10" cx="486.8" cy="698.8" rx="7.5" ry="11.3"/>
		
			<ellipse transform="matrix(0.9032 -0.4293 0.4293 0.9032 -251.418 271.8546)" class="st10" cx="476.9" cy="693.2" rx="11.3" ry="7.5"/>
		
			<ellipse transform="matrix(0.5976 -0.8018 0.8018 0.5976 -355.9303 657.1012)" class="st10" cx="476.7" cy="683.1" rx="7.5" ry="11.3"/>
		<ellipse transform="matrix(0.5 -0.866 0.866 0.5 -352.268 776.3003)" class="st10" cx="496.2" cy="693.2" rx="7.5" ry="11.3"/>
		
			<ellipse transform="matrix(0.8392 -0.5438 0.5438 0.8392 -290.9373 379.7398)" class="st10" cx="496.8" cy="681.9" rx="11.3" ry="7.5"/>
	</g>
	<g>
		<ellipse class="st13" cx="516" cy="668.7" rx="7.5" ry="11.3"/>
		<ellipse class="st13" cx="516" cy="690.4" rx="7.5" ry="11.3"/>
		
			<ellipse transform="matrix(0.9032 -0.4293 0.4293 0.9032 -244.9565 283.5712)" class="st13" cx="506.1" cy="684.8" rx="11.3" ry="7.5"/>
		
			<ellipse transform="matrix(0.5976 -0.8018 0.8018 0.5976 -337.3926 677.1092)" class="st13" cx="505.9" cy="674.7" rx="7.5" ry="11.3"/>
		<ellipse transform="matrix(0.5 -0.866 0.866 0.5 -330.3367 797.3578)" class="st13" cx="525.4" cy="684.8" rx="7.5" ry="11.3"/>
		
			<ellipse transform="matrix(0.8392 -0.5438 0.5438 0.8392 -281.6403 394.2578)" class="st13" cx="526" cy="673.5" rx="11.3" ry="7.5"/>
	</g>
	<g>
		<ellipse class="st15" cx="530.4" cy="647.2" rx="7.5" ry="11.3"/>
		<ellipse class="st15" cx="530.4" cy="668.8" rx="7.5" ry="11.3"/>
		
			<ellipse transform="matrix(0.9032 -0.4293 0.4293 0.9032 -234.3115 287.679)" class="st15" cx="520.5" cy="663.2" rx="11.3" ry="7.5"/>
		
			<ellipse transform="matrix(0.5976 -0.8018 0.8018 0.5976 -314.3144 680.0089)" class="st15" cx="520.3" cy="653.1" rx="7.5" ry="11.3"/>
		<ellipse transform="matrix(0.5 -0.866 0.866 0.5 -304.4668 799.0817)" class="st15" cx="539.8" cy="663.2" rx="7.5" ry="11.3"/>
		
			<ellipse transform="matrix(0.8392 -0.5438 0.5438 0.8392 -267.6073 398.6401)" class="st15" cx="540.4" cy="651.9" rx="11.3" ry="7.5"/>
	</g>
	<g>
		<path class="st12" d="M471.9,651.7c0,0.1,0,0.2,0,0.3c0,1.9-0.4,3.7-1,5.3c-0.3,0.7-0.5,1.3-0.9,1.9c-0.9,1.6-2.1,2.7-3.5,3.3
			c-0.4,0.2-0.9,0.3-1.4,0.4c-0.1,0-0.3,0-0.4,0c-0.1,0-0.2,0-0.4,0c-0.1,0-0.2,0-0.3,0c-0.2,0-0.3,0-0.5-0.1
			c-0.5-0.1-0.9-0.2-1.3-0.4c-0.1-0.1-0.2-0.1-0.3-0.2c-1.1-0.6-2.1-1.6-2.9-2.8c-0.6-0.9-1.1-2-1.4-3.2c-0.3-0.9-0.5-1.8-0.6-2.8
			c0.6-0.2,1.3-0.3,1.9-0.5c0.3-0.1,0.6-0.2,1-0.3c1.4-0.4,2.8-0.8,4.1-1.2h0c2.5-0.7,5-1.5,7.6-2.4c0,0.1,0,0.2,0.1,0.3
			C471.8,650.1,471.9,650.9,471.9,651.7z"/>
		<ellipse class="st12" cx="464.4" cy="673.3" rx="7.5" ry="11.3"/>
		
			<ellipse transform="matrix(0.9032 -0.4293 0.4293 0.9032 -242.634 259.7888)" class="st12" cx="454.5" cy="667.7" rx="11.3" ry="7.5"/>
		<path class="st12" d="M464.4,661.5L464.4,661.5c0,0.2,0,0.4-0.1,0.5c0,0,0,0.1,0,0.1c0,0.3-0.1,0.5-0.2,0.8
			c-0.2,0.5-0.4,1-0.7,1.4c0,0,0,0.1-0.1,0.1c-0.2,0.2-0.3,0.4-0.5,0.6c-1.1,1-2.6,1.5-4.4,1.6c-0.1,0-0.1,0-0.2,0
			c-2.6,0-5.6-1-8.3-3c-0.3-0.2-0.6-0.5-0.9-0.7c-0.1-0.1-0.2-0.2-0.4-0.3c-1.7-1.5-3-3.3-3.7-5.1c-0.1-0.2-0.2-0.4-0.2-0.6
			c-0.1-0.1-0.1-0.3-0.1-0.4c0.1,0,0.3-0.1,0.4-0.1c3.9-0.9,8-1.9,12.1-3c0.6-0.2,1.3-0.3,1.9-0.5c0.3-0.1,0.6-0.2,1-0.3
			c1.7,1.5,3,3.3,3.7,5c0.2,0.5,0.3,0.9,0.5,1.3C464.4,659.8,464.5,660.7,464.4,661.5z"/>
		<ellipse transform="matrix(0.5 -0.866 0.866 0.5 -341.3578 744.1901)" class="st12" cx="473.8" cy="667.7" rx="7.5" ry="11.3"/>
		
			<ellipse transform="matrix(0.8392 -0.5438 0.5438 0.8392 -280.6629 363.4852)" class="st12" cx="474.4" cy="656.4" rx="11.3" ry="7.5"/>
	</g>
	<g>
		<ellipse class="st11" cx="395.4" cy="695.4" rx="7.5" ry="11.3"/>
		<path class="st11" d="M402.8,717.1c0,0.6,0,1.2-0.1,1.7c-0.1,1.4-0.4,2.7-0.9,3.9c-0.5-0.1-1-0.2-1.5-0.3
			c-2.4-0.4-4.7-0.9-6.8-1.3l-1.9-4.7l-2.4-5.7c0,0,0,0,0,0c0.1-0.1,0.1-0.2,0.2-0.4c1-2,2.3-3.5,3.9-4.2c0.5-0.3,1.1-0.4,1.7-0.5
			c0.1,0,0.1,0,0.2,0c0,0,0.1,0,0.1,0h0.1c0.1,0,0.1,0,0.2,0c0.7,0,1.3,0.2,1.9,0.5c1.1,0.5,2.2,1.4,3,2.6c1.1,1.6,1.9,3.7,2.2,6
			C402.8,715.6,402.8,716.4,402.8,717.1z"/>
		<path class="st11" d="M395.3,712.2c-0.8,1.5-2.1,3-3.7,4.3l-2.4-5.7c0,0,0,0,0,0l-0.1-0.3l-2.9-7c1.3-0.3,2.6-0.3,3.8-0.2
			c2.2,0.2,4,1,5.1,2.4c0.1,0.1,0.1,0.1,0.1,0.1c0,0,0.1,0.1,0.1,0.1c0.2,0.2,0.3,0.5,0.4,0.7c0,0,0,0.1,0,0.1
			C396.5,708.4,396.3,710.4,395.3,712.2z"/>
		<path class="st11" d="M395.4,705.3L395.4,705.3c0,0.2,0,0.4-0.1,0.5c0,0,0,0.1,0,0.1c0,0.3-0.1,0.5-0.2,0.8
			c-0.2,0.5-0.4,1-0.7,1.4c0,0,0,0.1-0.1,0.1c-1.1,1.4-2.9,2.1-4.9,2.2c-0.1,0-0.2,0-0.3,0l-2.9-7l-0.3-0.7l-4.2-10.1l-0.1-0.2
			c0.2,0,0.3,0,0.5,0h0c1.9,0.1,3.9,0.7,5.9,1.9c0.6,0.3,1.2,0.7,1.8,1.2c1.5,1.1,2.8,2.4,3.7,3.8v0c0.8,1.1,1.4,2.3,1.7,3.5
			C395.3,703.6,395.4,704.5,395.4,705.3z"/>
		<ellipse transform="matrix(0.5 -0.866 0.866 0.5 -413.7955 706.2845)" class="st11" cx="404.8" cy="711.5" rx="7.5" ry="11.3"/>
		
			<ellipse transform="matrix(0.8392 -0.5438 0.5438 0.8392 -315.5682 332.979)" class="st11" cx="405.4" cy="700.2" rx="11.3" ry="7.5"/>
	</g>
	<g>
		<path class="st10" d="M444.6,656.5c-0.1,0.2-0.2,0.4-0.3,0.5c-0.1,0.2-0.2,0.4-0.3,0.6c-0.9,1.6-2.1,2.7-3.5,3.3
			c-0.4,0.2-0.9,0.3-1.4,0.4c-0.1,0-0.3,0-0.4,0c-0.1,0-0.2,0-0.4,0c-0.1,0-0.2,0-0.3,0c-0.2,0-0.3,0-0.5-0.1
			c-0.5-0.1-0.9-0.2-1.3-0.4c-1-0.5-1.9-1.2-2.7-2.2c0.5-0.1,1.1-0.2,1.6-0.3c0,0,0,0,0,0c0.9-0.2,1.9-0.4,2.9-0.6c0,0,0.1,0,0.1,0
			c2-0.4,4-0.8,6-1.3C444.3,656.6,444.5,656.5,444.6,656.5z"/>
		<ellipse class="st10" cx="438.4" cy="671.8" rx="7.5" ry="11.3"/>
		<path class="st10" d="M439,665.2c-0.1,0.6-0.4,1.2-0.7,1.7c-1.2,2.3-3.5,4.5-6.6,6c-0.2,0.1-0.5,0.2-0.7,0.3
			c-0.7,0.3-1.4,0.5-2.1,0.7c-0.9,0.3-1.8,0.4-2.6,0.5c-0.5,0-0.9,0.1-1.4,0.1c-0.1,0-0.2,0-0.4,0c-2.7-0.1-4.9-1.1-6.1-3
			c-0.1-0.1-0.2-0.3-0.3-0.5c-0.1-0.2-0.2-0.4-0.3-0.6c-0.9-3,0.9-6.7,4.6-9.3c0.3-0.2,0.7-0.5,1-0.7c0,0,0,0,0,0
			c0.8-0.1,1.6-0.2,2.5-0.4c0,0,0,0,0,0c2.4-0.4,4.9-0.8,7.4-1.3c0.5-0.1,1.1-0.2,1.6-0.3c0,0,0,0,0,0c1.2,0.4,2.2,1.1,2.9,1.9
			c0,0.1,0.1,0.1,0.1,0.1c0,0,0.1,0.1,0.1,0.1c0.2,0.2,0.3,0.5,0.4,0.7c0,0,0,0.1,0,0.1C439.3,662.6,439.4,663.9,439,665.2z"/>
		<path class="st10" d="M438.4,660L438.4,660c0,0.2,0,0.4-0.1,0.5c0,0,0,0.1,0,0.1c0,0.3-0.1,0.5-0.2,0.8c-0.2,0.5-0.4,1-0.7,1.4
			c0,0,0,0.1-0.1,0.1c-0.1,0.1-0.1,0.2-0.2,0.2c-1.1,1.3-2.8,1.9-4.7,2c-0.6,0-1.3,0-1.9-0.1c-0.5-0.1-1-0.2-1.5-0.3
			c-1.7-0.5-3.4-1.3-5.1-2.6c-0.4-0.3-0.9-0.7-1.2-1c-0.2-0.2-0.3-0.3-0.5-0.5c0.5-0.1,1-0.1,1.5-0.2c0,0,0,0,0,0
			c0.8-0.1,1.6-0.2,2.5-0.4c0,0,0,0,0,0c2.4-0.4,4.9-0.8,7.4-1.3c0.5-0.1,1.1-0.2,1.6-0.3c0,0,0,0,0,0c0.9-0.2,1.9-0.4,2.9-0.6
			c0,0,0.1,0,0.1,0C438.4,658.6,438.5,659.3,438.4,660z"/>
		<ellipse transform="matrix(0.5 -0.866 0.866 0.5 -353.0549 720.9391)" class="st10" cx="447.8" cy="666.2" rx="7.5" ry="11.3"/>
		<path class="st10" d="M458.6,653c-0.2,1.1-0.7,2.2-1.3,3.4c-0.8,1.3-1.9,2.5-3.2,3.6c0,0,0,0,0,0c-0.3,0.3-0.7,0.5-1,0.8
			c-0.2,0.1-0.4,0.3-0.6,0.4c-1.3,0.8-2.6,1.4-3.8,1.8c-0.4,0.1-0.8,0.2-1.2,0.3h0c-1.4,0.3-2.7,0.4-3.9,0.3
			c-1.8-0.2-3.4-0.9-4.4-2.2c-0.1-0.1-0.2-0.2-0.2-0.3c-0.1-0.2-0.2-0.3-0.3-0.5c-0.1-0.2-0.1-0.3-0.2-0.5c0,0,0,0,0,0
			c-0.2-0.7-0.3-1.4-0.3-2.1c0,0,0.1,0,0.1,0c2-0.4,4-0.8,6-1.3c0.1,0,0.3-0.1,0.4-0.1c3.9-0.9,8-1.9,12.1-3
			C457.4,653.3,458,653.2,458.6,653z"/>
	</g>
	<g>
		<path class="st11" d="M550.7,619.1c0,2.9-0.7,5.5-1.9,7.5c-0.1,0.2-0.3,0.5-0.5,0.7c-0.8,1.2-1.9,2.1-3,2.6
			c-0.4,0.2-0.9,0.3-1.4,0.4h0c-0.1,0-0.3,0-0.4,0c-0.1,0-0.2,0-0.4,0c-0.1,0-0.2,0-0.3,0c-0.2,0-0.3,0-0.5-0.1
			c-0.5-0.1-0.9-0.2-1.3-0.4c-1.3-0.6-2.4-1.6-3.3-3c-1.3-2-2.1-4.8-2.1-7.8c0-0.2,0-0.3,0-0.5c0.2-0.1,0.4-0.2,0.6-0.4
			c3.7-2.3,7.2-4.7,10.5-7c0.4-0.3,0.8-0.6,1.2-0.9c0.8,1,1.5,2.4,2,3.8c0.1,0.3,0.2,0.5,0.2,0.8c0.1,0.5,0.3,1.1,0.3,1.7
			C550.7,617.5,550.7,618.3,550.7,619.1z"/>
		<ellipse class="st11" cx="543.3" cy="640.7" rx="7.5" ry="11.3"/>
		
			<ellipse transform="matrix(0.9032 -0.4293 0.4293 0.9032 -221.0042 290.4881)" class="st11" cx="533.4" cy="635.1" rx="11.3" ry="7.5"/>
		<path class="st11" d="M543.3,628.9L543.3,628.9c0,0.2,0,0.4-0.1,0.5c0,0,0,0.1,0,0.1v0c0,0.3-0.1,0.5-0.2,0.8
			c-0.2,0.5-0.4,1-0.7,1.4c0,0,0,0.1-0.1,0.1c-1.1,1.4-2.9,2.1-4.9,2.2c-2.6,0.1-5.6-0.9-8.3-2.9c-0.1-0.1-0.2-0.1-0.2-0.2
			c-0.4-0.3-0.9-0.7-1.2-1c-1.5-1.3-2.6-2.8-3.4-4.3c0.6-0.3,1.2-0.7,1.8-1c3.4-2,6.7-4,9.9-6c0.2-0.1,0.4-0.2,0.6-0.4
			c0.4,0.3,0.8,0.5,1.2,0.8c2.8,2.1,4.7,4.8,5.3,7.3C543.2,627.2,543.3,628.1,543.3,628.9z"/>
		<ellipse transform="matrix(0.5 -0.866 0.866 0.5 -273.698 796.1901)" class="st11" cx="552.7" cy="635.1" rx="7.5" ry="11.3"/>
		
			<ellipse transform="matrix(0.8392 -0.5438 0.5438 0.8392 -250.2613 401.1277)" class="st11" cx="553.3" cy="623.8" rx="11.3" ry="7.5"/>
	</g>
	<path class="st14" d="M374.9,689.5c-0.1,0.2-0.3,0.5-0.4,0.7c-2,3.6-4.1,7.2-6.1,10.9c-0.2,0.3-0.4,0.7-0.6,1c-1.1,2-2.3,4-3.4,6.1
		c-0.7,1.2-1.3,2.4-2,3.5v0c-1.4,2.5-2.8,5-4.2,7.5c-0.8,0.1-1.7,0.1-2.7,0.2h0c-0.1,0-0.2,0-0.3,0c-3.5,0.1-8.1-0.1-13.3-1.1
		c-0.5-0.1-1-0.2-1.5-0.3c-2-0.5-4.1-1.1-6.3-1.8c-1.2-2.1-2.3-4.3-3.3-6.4c-0.2-0.5-0.4-0.9-0.6-1.4c-1.6-3.7-3-7.3-4.3-10.9
		c-0.6-1.8-1.2-3.6-1.8-5.4c-0.2-0.5-0.3-1-0.5-1.4c-0.3-0.9-0.6-1.7-0.8-2.6c-0.3-1-0.6-2-0.9-3c-1.2-3.7-2.2-7.1-3.1-10.1
		c0,0,0,0,0,0c-1.1-3.7-2.1-6.9-3-9.7v0c-0.5-1.5-0.9-2.9-1.3-4.2c-0.4-1.2-0.7-2.3-1-3.3c-0.7-2.5-1.4-4.6-2-6.6
		c-1.1-3.8-2.1-6.9-3.3-10.6c-0.1-0.2-0.1-0.4-0.2-0.6c0,0,0-0.1,0-0.1c0.1,0,0.1,0.1,0.2,0.1c0,0,0,0,0,0c1.9,1.1,3.8,2.3,5.9,3.4
		c1.5,0.8,3.1,1.7,4.8,2.5h0c1,0.5,2.1,1,3.1,1.5c1.7,0.8,3.5,1.6,5.4,2.4c0.7,0.3,1.4,0.6,2.1,0.9c0,0,0,0,0,0
		c0.3,0.1,0.5,0.2,0.8,0.3c1.1,0.4,2.2,0.9,3.3,1.3c0.3,0.1,0.6,0.2,0.9,0.3h0c0.6,0.2,1.3,0.5,1.9,0.7h0c0.7,0.3,1.5,0.5,2.2,0.7
		c1.1,0.4,2.2,0.7,3.2,1c2,0.6,3.9,1.1,5.7,1.6h0c0.7,0.2,1.5,0.4,2.2,0.5c1.1,0.3,2.2,0.5,3.3,0.7c1.8,0.4,3.5,0.7,5.1,1
		c0.7,1.2,1.3,2.5,2,3.7c0.3,0.6,0.6,1.1,0.9,1.7c0.1,0.2,0.3,0.5,0.4,0.7c0,0,0,0,0,0c0.7,1.2,1.3,2.4,2,3.6
		c0.9,1.6,1.7,3.2,2.6,4.8c0.6,1.2,1.3,2.4,1.9,3.6c0.1,0.2,0.2,0.3,0.2,0.4c0,0,0,0,0,0c2.1,3.9,4.2,7.8,6.2,11.7
		C374.6,689.1,374.7,689.3,374.9,689.5z"/>
	<g>
		<path class="st10" d="M327.4,649.6c-0.1,0.2-0.2,0.4-0.3,0.7c-0.9,1.6-2.1,2.8-3.5,3.4c-0.4,0.2-0.9,0.3-1.4,0.4
			c-0.1,0-0.3,0-0.4,0c-0.1,0-0.2,0-0.4,0c-0.1,0-0.2,0-0.3,0c-0.2,0-0.3,0-0.5-0.1c-0.5-0.1-0.9-0.2-1.3-0.4
			c-1.3-0.6-2.4-1.6-3.3-3c-1.2-1.9-2-4.5-2.1-7.4c1.5,0.8,3.1,1.7,4.8,2.5h0c1,0.5,2.1,1,3.1,1.5
			C323.8,648,325.6,648.8,327.4,649.6z"/>
		<path class="st10" d="M329,664.4c0,0.5,0,0.9-0.1,1.4c0,0,0,0,0,0.1c0,0.1,0,0.2,0,0.3c-0.3,3.1-1.4,5.8-3.1,7.5
			c-1.2,1.3-2.7,2.1-4.3,2.1c-0.1,0-0.2,0-0.2,0c-0.3,0-0.5,0-0.8-0.1h0c-0.6-0.1-1.2-0.4-1.8-0.7c0,0-0.1,0-0.1-0.1
			c0,0,0.1,0,0.1,0c-1.1-3.7-2.1-6.9-3-9.7v0c-0.5-1.5-0.9-2.9-1.3-4.2c0.2-1.2,0.6-2.2,1.1-3.2c0.9-2,2.3-3.5,3.9-4.2
			c0.5-0.3,1.1-0.4,1.7-0.5c0.1,0,0.1,0,0.2,0c0,0,0.1,0,0.1,0h0.1c0.1,0,0.1,0,0.2,0c0.7,0,1.3,0.2,1.9,0.5c0.9,0.4,1.7,1,2.4,1.9
			c0.2,0.2,0.4,0.5,0.6,0.7h0c1.2,1.7,2,4.1,2.3,6.7C328.9,663.4,329,663.9,329,664.4z"/>
		<path class="st10" d="M321.4,659.5c-1.1,2.1-3.1,4.1-5.8,5.5c-0.5-1.5-0.9-2.9-1.3-4.2c-0.4-1.2-0.7-2.3-1-3.3
			c-0.7-2.5-1.4-4.6-2-6.6c1.6-0.4,3.2-0.6,4.7-0.4c2.2,0.2,4,1,5.1,2.4c0.1,0.1,0.1,0.1,0.1,0.1c0,0,0.1,0.1,0.1,0.1
			c0.2,0.2,0.3,0.5,0.4,0.7c0,0,0,0.1,0,0.1C322.6,655.7,322.4,657.6,321.4,659.5z"/>
		<path class="st10" d="M321.5,652.5L321.5,652.5c0,0.2,0,0.4-0.1,0.5c0,0,0,0.1,0,0.1c0,0.3-0.1,0.5-0.2,0.8
			c-0.2,0.5-0.4,1-0.7,1.4c0,0,0,0.1-0.1,0.1c-1.1,1.4-2.9,2.1-4.9,2.2c-0.7,0-1.4,0-2.1-0.2c-0.7-2.5-1.4-4.6-2-6.6
			c-1.1-3.8-2.1-6.9-3.3-10.6c-0.1-0.2-0.1-0.4-0.2-0.6c0.1,0,0.1,0,0.2,0c0,0,0,0,0,0c1.9,1.1,3.8,2.3,5.9,3.4
			c1.5,0.8,3.1,1.7,4.8,2.5h0c1.1,1.4,1.9,2.9,2.3,4.4C321.4,650.9,321.5,651.7,321.5,652.5z"/>
		<path class="st10" d="M341.4,661.4c0,0.2,0,0.4,0,0.7c0,0.8-0.3,1.6-0.7,2.3c-1.1,1.9-3.3,2.9-5.9,2.9c-0.8,0-1.7-0.1-2.7-0.2
			c-1.1-0.2-2.2-0.5-3.2-1c-0.1,0-0.1-0.1-0.2-0.1c-0.1-0.1-0.2-0.1-0.3-0.2c-0.4-0.2-0.8-0.4-1.2-0.6c-2.6-1.5-4.6-3.6-5.7-5.7
			c-0.7-1.3-1.1-2.7-1-4c0-0.5,0.1-1.1,0.3-1.6c0.1-0.3,0.2-0.6,0.4-0.8c0,0,0,0,0,0c0-0.1,0.1-0.1,0.1-0.2c0.1-0.1,0.2-0.3,0.3-0.4
			c0,0,0,0,0,0c1.2-1.5,3.2-2.3,5.6-2.3c0.8,0,1.6,0.1,2.4,0.2c0,0,0,0,0,0c0.3,0.1,0.5,0.2,0.8,0.3c1.1,0.4,2.2,0.9,3.3,1.3
			c0.3,0.1,0.6,0.2,0.9,0.3h0c0.5,0.3,1,0.6,1.5,1c1.1,0.8,2,1.7,2.8,2.6v0C340.4,657.7,341.3,659.7,341.4,661.4z"/>
		<path class="st10" d="M336.6,653c-0.1,0.1-0.3,0.2-0.4,0.3c-0.2,0.1-0.4,0.3-0.6,0.4c-3,1.9-6.2,2.8-8.9,2.5h0
			c-0.2,0-0.4-0.1-0.6-0.1c-1.6-0.3-2.9-1-3.8-2.1c-0.1-0.1-0.2-0.2-0.2-0.3c-0.1-0.2-0.2-0.3-0.3-0.5c-0.1-0.2-0.1-0.3-0.2-0.5
			c0,0,0,0,0,0c-0.3-0.8-0.4-1.6-0.3-2.5c0.1-0.9,0.4-1.9,0.8-2.9c1.7,0.8,3.5,1.6,5.4,2.4c0.7,0.3,1.4,0.6,2.1,0.9c0,0,0,0,0,0
			c0.3,0.1,0.5,0.2,0.8,0.3c1.1,0.4,2.2,0.9,3.3,1.3c0.3,0.1,0.6,0.2,0.9,0.3h0C335.3,652.6,335.9,652.8,336.6,653z"/>
	</g>
	<g>
		<ellipse class="st11" cx="347.7" cy="695.8" rx="7.5" ry="11.3"/>
		<path class="st11" d="M355.2,717.5c0,0.6,0,1.1-0.1,1.7c0,0.1,0,0.1,0,0.2c-3.5,0.1-8.1-0.1-13.3-1.1c-0.5-0.1-1-0.2-1.5-0.3
			c0-0.1,0-0.3,0-0.4c0-2.5,0.5-4.8,1.4-6.7c1-2,2.3-3.5,3.9-4.2c0.5-0.3,1.1-0.4,1.7-0.5c0.1,0,0.1,0,0.2,0c0,0,0.1,0,0.1,0h0.1
			c0.1,0,0.1,0,0.2,0c0.7,0,1.3,0.2,1.9,0.5c1.1,0.5,2.2,1.4,3,2.6C354.3,711.3,355.2,714.3,355.2,717.5z"/>
		<path class="st11" d="M347.7,712.6L347.7,712.6c-1.1,2.1-3.2,4.2-5.9,5.6c-0.5-0.1-1-0.2-1.5-0.3c-2-0.5-4.1-1.1-6.3-1.8
			c-1.2-2.1-2.3-4.3-3.3-6.4c-0.2-0.5-0.4-0.9-0.6-1.4c0.5-0.5,1.2-1.1,1.8-1.6c0.8-0.6,1.7-1.1,2.7-1.6c0.1,0,0.2-0.1,0.2-0.1
			c2.6-1.2,5.2-1.6,7.5-1.4c2.2,0.2,4,1,5.1,2.4c0.1,0.1,0.1,0.1,0.1,0.1c0,0,0.1,0.1,0.1,0.1c0.2,0.2,0.3,0.5,0.4,0.7
			c0,0,0,0.1,0,0.1C348.8,708.8,348.6,710.7,347.7,712.6z"/>
		
			<ellipse transform="matrix(0.5976 -0.8018 0.8018 0.5976 -426.855 553.1268)" class="st11" cx="337.6" cy="701.8" rx="7.5" ry="11.3"/>
		<path class="st11" d="M364.3,708.1c-0.7,1.2-1.3,2.4-2,3.5v0c-1.4,2.5-2.8,5-4.2,7.5c-0.8,0.1-1.7,0.1-2.7,0.2h0
			c-0.1,0-0.2-0.1-0.3-0.1c-0.6-0.2-1.1-0.5-1.7-0.9c-2.6-1.5-4.6-3.6-5.7-5.7v0c-0.7-1.3-1.1-2.7-1-4c0-0.5,0.1-1.1,0.3-1.6
			c0.1-0.3,0.2-0.6,0.4-0.8c0,0,0,0,0,0c0-0.1,0.1-0.1,0.1-0.2c0.1-0.1,0.2-0.3,0.3-0.4c0,0,0,0,0,0c1.2-1.5,3.2-2.3,5.6-2.3h0
			c0.1,0,0.2,0,0.3,0c2.3,0,4.8,0.7,7.2,2.1c0.5,0.3,1,0.6,1.5,1C363.1,707,363.8,707.5,364.3,708.1z"/>
		
			<ellipse transform="matrix(0.8392 -0.5438 0.5438 0.8392 -323.4432 307.1334)" class="st11" cx="357.7" cy="700.6" rx="11.3" ry="7.5"/>
	</g>
	<g>
		<path class="st14" d="M353.2,657.6c-0.3,1.3-0.8,2.4-1.4,3.4h0c-0.9,1.6-2.1,2.7-3.5,3.4c-0.5,0.2-0.9,0.3-1.4,0.4
			c-0.1,0-0.3,0-0.4,0c-0.1,0-0.2,0-0.4,0c-0.1,0-0.2,0-0.3,0c-0.2,0-0.3,0-0.5-0.1c-0.5-0.1-0.9-0.2-1.3-0.4c-1-0.5-2-1.3-2.8-2.3
			c-0.2-0.2-0.3-0.5-0.5-0.7c-0.9-1.5-1.6-3.3-1.9-5.4v0c-0.1-0.7-0.2-1.4-0.2-2.2c1.1,0.4,2.2,0.7,3.2,1c2,0.6,3.9,1.1,5.7,1.6h0
			c0.7,0.2,1.5,0.4,2.2,0.5C351,657.1,352.1,657.4,353.2,657.6z"/>
		<ellipse class="st14" cx="346.2" cy="675.2" rx="7.5" ry="11.3"/>
		
			<ellipse transform="matrix(0.9032 -0.4293 0.4293 0.9032 -254.8971 209.2346)" class="st14" cx="336.3" cy="669.6" rx="11.3" ry="7.5"/>
		<path class="st14" d="M346.2,663.4L346.2,663.4c0,0.2,0,0.4-0.1,0.5c0,0,0,0.1,0,0.1c0,0.3-0.1,0.5-0.2,0.8
			c-0.2,0.5-0.4,1-0.7,1.4c0,0,0,0.1-0.1,0.1c-1.1,1.4-2.9,2.1-4.9,2.2c-1.7,0.1-3.6-0.4-5.4-1.2c-1-0.5-2.1-1.1-3.1-1.8
			c-0.4-0.3-0.9-0.7-1.2-1c-0.6-0.5-1.1-1-1.5-1.6c-1.9-2.2-2.9-4.7-2.9-6.8c0-0.2,0-0.4,0-0.7c0.1-1,0.4-1.9,1-2.7
			c0.8-1.1,1.9-1.7,3.3-2c1.1,0.4,2.2,0.9,3.3,1.3c0.3,0.1,0.6,0.2,0.9,0.3h0c0.6,0.2,1.3,0.5,1.9,0.7h0c0.7,0.3,1.5,0.5,2.2,0.7
			c1.1,0.4,2.2,0.7,3.2,1c2,1.8,3.4,4,3.9,6.1v0C346.2,661.7,346.3,662.6,346.2,663.4z"/>
		<path class="st14" d="M366.1,673.1c-0.1,0.8-0.3,1.5-0.7,2.2c-1.8,3.2-6.9,3.8-11.8,1.7c0,0,0,0-0.1,0c-0.6-0.2-1.1-0.5-1.7-0.8
			c-2.6-1.5-4.6-3.6-5.7-5.7c-0.7-1.3-1.1-2.7-1-4c0-0.5,0.1-1.1,0.3-1.6c0.1-0.3,0.2-0.6,0.4-0.8c0,0,0,0,0,0
			c0-0.1,0.1-0.1,0.1-0.1c0.1-0.1,0.2-0.3,0.3-0.4c0,0,0,0,0,0c1.2-1.5,3.2-2.3,5.6-2.3h0c2.3,0,5,0.7,7.5,2.1c0.5,0.3,1,0.6,1.5,1
			c0.2,0.2,0.5,0.3,0.7,0.5c0,0,0,0,0,0c0.7,1.2,1.3,2.4,2,3.6C364.4,669.9,365.2,671.5,366.1,673.1z"/>
		<path class="st14" d="M361.2,664c-0.1,0.1-0.2,0.1-0.3,0.2c-0.2,0.1-0.4,0.3-0.6,0.4c-3,1.9-6.2,2.8-8.9,2.5h0
			c-1.8-0.2-3.4-0.9-4.4-2.2c-0.1-0.1-0.2-0.2-0.2-0.3c-0.1-0.2-0.2-0.3-0.3-0.5c-0.1-0.2-0.1-0.3-0.2-0.5c0,0,0,0,0-0.1
			c-0.3-0.8-0.4-1.7-0.3-2.6v0c0.1-1.5,0.8-3,1.8-4.5h0c0.7,0.2,1.5,0.4,2.2,0.5c1.1,0.3,2.2,0.5,3.3,0.7c1.8,0.4,3.5,0.7,5.1,1
			c0.7,1.2,1.3,2.5,2,3.7C360.6,662.8,360.9,663.4,361.2,664z"/>
	</g>
	<g>
		<ellipse class="st12" cx="328.7" cy="677.1" rx="7.5" ry="11.3"/>
		<path class="st12" d="M336.1,698.8c0,0.6,0,1.2-0.1,1.7c-0.2,1.7-0.6,3.2-1.2,4.5c-0.5,1.1-1,2-1.7,2.7c-0.7,0.8-1.6,1.5-2.5,1.9
			c-0.2-0.5-0.4-0.9-0.6-1.4c-1.6-3.7-3-7.3-4.3-10.9c-0.6-1.8-1.2-3.6-1.8-5.4c-0.2-0.5-0.3-1-0.5-1.4c0.8-1.2,1.8-2.1,3-2.6
			c0.5-0.3,1.1-0.4,1.7-0.5c0.1,0,0.1,0,0.2,0c0,0,0.1,0,0.1,0h0.1c0.1,0,0.1,0,0.2,0c0.7,0,1.3,0.2,1.9,0.5c1.1,0.5,2.2,1.4,3,2.6
			c0.5,0.7,0.9,1.4,1.2,2.3C335.7,694.6,336.1,696.6,336.1,698.8z"/>
		<path class="st12" d="M328.6,694c-0.6,1.2-1.6,2.4-2.7,3.4c-0.6-1.8-1.2-3.6-1.8-5.4c-0.2-0.5-0.3-1-0.5-1.4
			c-0.3-0.9-0.6-1.7-0.8-2.6c-0.3-1-0.6-2-0.9-3c0.5,0,1,0,1.5,0.1c2.2,0.2,4,1,5.1,2.4c0.1,0.1,0.1,0.1,0.1,0.1
			c0,0,0.1,0.1,0.1,0.1c0.2,0.2,0.3,0.5,0.4,0.7c0,0,0,0.1,0,0.1C329.8,690.1,329.6,692.1,328.6,694z"/>
		<path class="st12" d="M328.6,687L328.6,687c0,0.2,0,0.4-0.1,0.5c0,0,0,0.1,0,0.1c0,0.3-0.1,0.5-0.2,0.8c-0.2,0.5-0.4,1-0.7,1.4
			c0,0,0,0.1-0.1,0.1c-0.8,1.1-2.1,1.8-3.5,2c-0.2-0.5-0.3-1-0.5-1.4c-0.3-0.9-0.6-1.7-0.8-2.6c-0.3-1-0.6-2-0.9-3
			c-1.2-3.7-2.2-7.1-3.1-10.1c0,0-0.1,0-0.1-0.1c0,0,0.1,0,0.1,0c0.6,0.2,1.2,0.5,1.8,0.8h0c0.3,0.1,0.5,0.3,0.7,0.4
			c0.6,0.3,1.2,0.7,1.8,1.2c2.8,2.1,4.7,4.8,5.3,7.3C328.6,685.3,328.7,686.2,328.6,687z"/>
		<ellipse transform="matrix(0.5 -0.866 0.866 0.5 -431.3163 639.3563)" class="st12" cx="338" cy="693.2" rx="7.5" ry="11.3"/>
		
			<ellipse transform="matrix(0.8392 -0.5438 0.5438 0.8392 -316.3485 293.7582)" class="st12" cx="338.6" cy="681.9" rx="11.3" ry="7.5"/>
	</g>
	<g>
		<path class="st13" d="M368.3,678.9c0,2.9-0.7,5.5-1.9,7.5h0c-0.9,1.6-2.1,2.7-3.5,3.4c-0.4,0.2-0.9,0.3-1.4,0.4
			c-0.1,0-0.3,0-0.4,0c-0.1,0-0.2,0-0.4,0c-0.1,0-0.2,0-0.3,0c-0.2,0-0.3,0-0.5-0.1c-0.5-0.1-0.9-0.2-1.3-0.4
			c-1.3-0.6-2.4-1.6-3.3-3c-1.3-2-2.1-4.8-2.1-7.8c0-0.3,0-0.5,0-0.8c0,0,0,0,0,0c0-0.1,0-0.2,0-0.4c0-0.3,0-0.6,0.1-0.9
			c0-0.3,0.1-0.6,0.1-0.9c0,0,0,0,0,0v0c0.8-4.8,3.7-8.4,7.2-8.4c0.9,0,1.8,0.3,2.6,0.7c0.9,1.6,1.7,3.2,2.6,4.8
			c0.6,1.2,1.3,2.4,1.9,3.6c0.1,0.2,0.2,0.3,0.2,0.4c0,0,0,0,0,0C368.3,677.7,368.3,678.3,368.3,678.9z"/>
		<path class="st13" d="M368.3,700.6c0,0.2,0,0.3,0,0.5c-0.2,0.3-0.4,0.7-0.6,1c-1.1,2-2.3,4-3.4,6.1c-0.7,1.2-1.3,2.4-2,3.5v0
			c-0.5,0.1-1,0.2-1.5,0.2c-1.9,0-3.6-1-4.9-2.7c-1.2-1.5-2-3.5-2.4-5.9c0-0.1-0.1-0.3-0.1-0.4c0,0,0,0,0,0c0-0.3-0.1-0.6-0.1-0.8
			c0-0.5-0.1-0.9-0.1-1.4c0-2.5,0.5-4.8,1.4-6.7c0.1-0.1,0.1-0.2,0.2-0.3v0c0,0,0,0,0,0c0.9-1.8,2.2-3.1,3.7-3.8
			c0.6-0.3,1.1-0.4,1.7-0.5c0.1,0,0.1,0,0.2,0c0,0,0.1,0,0.1,0h0.1c0.1,0,0.1,0,0.2,0h0c0.7,0,1.3,0.2,1.9,0.5
			c1.1,0.5,2.2,1.4,3,2.6c0.4,0.5,0.7,1.2,1,1.8c0.4,1,0.8,2,1,3.2c0,0,0,0,0,0v0C368.2,698.4,368.3,699.5,368.3,700.6z"/>
		
			<ellipse transform="matrix(0.9032 -0.4293 0.4293 0.9032 -264.3596 217.9755)" class="st13" cx="351" cy="695" rx="11.3" ry="7.5"/>
		
			<ellipse transform="matrix(0.5976 -0.8018 0.8018 0.5976 -407.9937 556.858)" class="st13" cx="350.8" cy="684.9" rx="7.5" ry="11.3"/>
		<path class="st13" d="M374.9,689.5c-0.1,0.2-0.3,0.5-0.4,0.7c-2,3.6-4.1,7.2-6.1,10.9c-0.2,0.3-0.4,0.7-0.6,1
			c-0.3-0.1-0.6-0.3-0.9-0.5c-0.1-0.1-0.2-0.1-0.3-0.2c-2.6-1.5-4.6-3.6-5.7-5.7c-0.7-1.3-1-2.6-1-3.8c0-0.1,0-0.1,0-0.2
			c0-0.5,0.1-1.1,0.3-1.6c0.1-0.3,0.2-0.6,0.4-0.8c0,0,0,0,0,0c0-0.1,0.1-0.1,0.1-0.2c0.1-0.1,0.2-0.3,0.3-0.4c0,0,0,0,0,0
			c1.2-1.5,3.2-2.3,5.6-2.3h0c2.3,0,5,0.7,7.5,2.1c0.2,0.1,0.3,0.2,0.5,0.3C374.6,689.1,374.7,689.3,374.9,689.5z"/>
		<path class="st13" d="M374.9,689.5c-0.1,0.2-0.3,0.5-0.4,0.7c-2.9,1.7-5.9,2.5-8.5,2.2c-1.8-0.2-3.4-0.9-4.4-2.2
			c-0.1-0.1-0.2-0.2-0.3-0.3c-0.1-0.2-0.2-0.3-0.3-0.5h0c-0.1-0.2-0.1-0.3-0.2-0.5c0,0,0,0,0,0c-0.3-0.8-0.4-1.6-0.3-2.5
			c0.3-3,2.6-6.4,6.2-8.8c0.4-0.3,0.8-0.5,1.2-0.7c0.1,0.2,0.2,0.3,0.2,0.4c0,0,0,0,0,0c2.1,3.9,4.2,7.8,6.2,11.7
			C374.6,689.1,374.7,689.3,374.9,689.5z"/>
	</g>
	<g>
		<path class="st16" d="M376.9,693.6c0.3-2.1,1.6-11.1,9.6-17.7c1.9-1.6,8.2-6.3,17.1-6c5.1,0.2,8.8,2,10,2.6
			c2.9,1.5,8.9,4.6,10.1,10.9c1.3,6.6-3.2,13.7-8.6,15.6c-3.9,1.3-7.2-0.5-12-2.2C397.2,694.8,388.6,692.8,376.9,693.6
			c4.7-2.1,8.8-3.5,11.9-4.3c7.6-2.1,11.5-3.1,14.8-1.6c2.3,1.1,3.9,2.9,6.3,2.4c1.3-0.3,2.7-1.2,3-2.5c0.4-2-2.2-4.2-3.7-5.1
			c-5-2.9-11.7-0.2-17.5,2.3C387.9,686.3,382.6,689,376.9,693.6z"/>
		<path class="st16" d="M376.9,693.6c-0.8-2.8-3-9.1-8.9-14.5c-1.8-1.7-6.7-5.9-14.4-7.1c-3-0.5-9.8-1.5-15.9,2.6
			c-4.7,3.2-10.3,10.3-8,17.8c1.9,6.1,8.3,10.1,13.8,10.2c6.1,0.2,8.2-4.3,16.4-7.3C366.6,692.9,372.8,693.1,376.9,693.6
			c-2.9-2.1-7.1-4.4-12.5-5.9c-5.7-1.5-9.7-2.6-14-0.9c-2.8,1.1-4.7,3.1-6.3,2.2c-1.1-0.6-1.6-2.3-1.2-3.6c0.4-1.2,1.5-1.7,2-2
			c2-0.9,8.3-2.7,17.6,0.8C365.8,685.6,371.4,688.2,376.9,693.6z"/>
		<path class="st16" d="M372.4,693.8c-0.4-0.6,0.3-1,0.6-3.5c0.1-0.6,0.1-1,0.4-1.3c0.5-0.5,1.3-0.4,2.7-0.5c2.6-0.3,3.2-1,3.8-0.6
			c0.8,0.5,0,1.5,1,2.9c0.3,0.4,0.6,0.6,0.7,1.1c0,0.1,0.4,1.1-0.1,1.7c-0.2,0.2-0.7,0.8-4.8,0.8
			C374.2,694.4,372.8,694.4,372.4,693.8z"/>
		<path class="st16" d="M373.4,694.5c-1.7,1.4-4.2,3.8-6.5,7.1c-5.8,8.5-4.6,15.6-6.6,23.6c-1.4,5.4-4.6,12.8-13.2,21.1
			c1.6-0.3,3.7-0.6,6.1-0.6c4.2,0.1,7.6,1.3,9.5,2.1c0.3-1.4,0.9-3.6,1.8-6.4c2.4-7.1,4.5-9.5,5.3-14.6c0.6-3.7,0.1-6.4-0.1-8.1
			c-0.6-5.7,0.9-15.1,10.5-30.9C378,690.1,375.7,692.3,373.4,694.5z"/>
		<path class="st16" d="M374.7,689c3.7,2.4,8.7,6.3,11.9,12.3c3.2,5.9,2,9.1,3.2,23.3c1,11.6,1.5,17.6,4.6,24.2
			c3.2,6.9,7.9,12,11.3,15.2c-1.7-0.2-3.8-0.3-6.2-0.2c-4.1,0.3-7.2,1.4-9.3,2.3c-2.7-3.8-6.6-10-8.5-18.1
			c-3.1-13.4,1.9-20.2,0.7-34.5C381.8,707.9,380.2,699.5,374.7,689z"/>
	</g>
	<path class="st1" d="M474.5,751c-1.9-6.7,0.6-9.1,3.4-29c3.6-25.5,0.5-29.3,4.3-45.4c2.8-11.7,5.7-24,14.8-35.3
		c13.7-17.1,39.6-30,66.3-24.3c1.5,0.3,36.8,8.3,42.6,32.3c5.5,22.7-18.9,45.8-43.1,68.8c-13.8,13.1-26.8,22.4-36.5,28.5
		c10.1-3.2,18.7-5.8,25.3-7.7c10.8-3.2,22.2-6.5,37.2-10.2c2.7-0.7,9.9-2.4,19.2-4.4c9.1-1.9,5.1-0.9,15.9-3.1c9.6-2,12-2.7,16-2
		c2.6,0.5,7.5,1.3,10.9,5.4c4.4,5.3,3.1,12.1,2.9,13.4c-1.4,7.7-7.5,11.8-9.6,13.2c-6.5,4.4-13.1,4.3-15.6,4.1
		c1.8,0.1,4.5,0.4,7.7,1.1c7.8,1.7,16.8,3.7,20.8,10.9c3.3,5.9,2.8,14.6-1.7,19.9c-6.5,7.7-21.5,8.7-32.6-1.4
		c7.8,6.5,10.9,16.2,8.1,24.1c-3.1,8.8-12.3,11.7-13.5,12.1c-8.5,2.6-15.8-1.2-28.7-7.1c-0.4-0.2-5.4-2.3-12.1-5.1
		c-0.1-0.1-0.8-0.3-1-0.4c-6.7-2.8-19.9-8.5-22.5-9.7c-13.3-5.8-42-20.5-45.7-22.4c0,0-6.4-2.6-15-8.3c-6.6-4.3-9.3-7.2-9.8-8.5
		c-1.7-4.6,1.7-9.1,13.8-25.7c11.4-15.5,10.5-16.8,15.4-21.6c4.8-4.7,6-4.6,16.4-13.8c6-5.3,9.2-8.1,13.1-12.5
		c9.8-10.8,11.7-17.3,12.4-20.5c0.7-3.4,1.7-7.7-0.7-10.4c-3.9-4.4-13.6-0.9-14.2-0.7c-10.9,4.1-15.9,16.1-18.2,21.9
		c-12.4,31.5-9.1,91.6-8.5,102.1C484.9,770.5,476.9,759.4,474.5,751z"/>
	<path class="st2" d="M589.8,556.8c11.1,18.9,22.2,38.1,33.4,57.7c12.9,22.6,25.3,45.1,37.4,67.3c4.4-0.4,11.2-0.6,19.2,0.8
		c1.6,0.3,38.8,7,40.1,24.1c0.6,7.7-6.3,15.4-13.2,18.9c-10.4,5.3-20.5,0.9-21.7,0.4c2.3,1.4,9.9,6.3,12.9,15.8
		c2.8,9,1.5,22.3-8.1,28.3c-10.3,6.4-23.5,0.2-30.1-6.5c-4.2-4.3-6.1-9.2-7-12.2c0.2,3,0.3,11-4.9,18.5
		c-3.9,5.7-12.4,13.7-20.5,11.8c-10.4-2.4-13.5-19.3-14.3-23.8c-4-21.8,8.2-40.4,13.3-47.5c-49.1-89.8-69.8-125.7-74.7-131.8
		c-0.5-0.6-3-3.6-4.9-8.3c-1.3-3.2-3.8-9.4-1.8-16.3c2-7,7.9-12.9,15.3-15c8.1-2.3,16.1,0.3,20.7,4.4c2.6,2.4,5.1,6.1,5.8,7.3
		C588.2,553,589.2,555.2,589.8,556.8z"/>
</g>
<path class="st17" d="M822.7,1135.9c-0.1,0-0.2,0-0.3,0c-0.2,0-0.4,0.1-0.5,0.3c-0.3,0.3-0.4,0.4-0.8,0.8c-0.2,0.2-0.3,0.3-0.4,0.3
	c-0.4,0.4-0.8,0.6-1,0.7c-1.6,1.1-1.7,1.2-2.4,1.6c-2.8,1.7-5.4,2.3-5.9,2.4c-0.6,0.1-1,0.2-1.3,0.3c0.5-0.2,1.2-0.7,1.9-1.6
	c0.3-0.4,1-1.4,1.1-3c0-0.4,0.1-2-1.1-3.2c-1-1.1-2.4-1.3-3.2-1.3c-0.3,0-2.1-0.2-4,0.8c-2.4,1.2-3.3,3.4-3.5,4c0-2.7,0-5.4,0-8.1
	c0-0.1,0-0.2,0-0.3c0-0.1,0-0.2,0-0.3c0-0.3,0-0.5,0-0.8c0-0.5,0-0.5,0-0.5c-0.1-0.4-0.5-0.8-1.1-0.8c-0.6,0-1.1,0.6-1.1,0.8
	c0,0,0,0,0,0.3c0,0,0,0.2,0,0.3c0,3,0,5.9,0,8.9c-1.5,0.9-2.6,1.5-3.8,2.2c-0.7,0.4-1.4,0.8-2.4,1.1c-1.1,0.3-1.8,0.3-2.2,0.3
	c-0.5,0-1.2-0.1-1.9-0.5c-0.1-0.1-0.4-0.3-0.8-0.8c-0.5-0.7-0.7-1.2-1.1-2.2c-0.3-0.7-0.7-1.7-1.3-2.7c-0.3-0.4-0.7-1-1.3-1.1
	c-0.2,0-0.7-0.1-1.9,1.1c-1.1,1-1.9,2.1-3,3.5c0,0-0.3,0.3-0.8,0.8c-0.4,0.4-0.6,0.6-0.8,0.5c-0.3,0-0.5-0.4-0.8-1.9
	c-0.3-1.4-0.4-2.1-0.8-3.2c-0.1-0.4-0.3-0.9-0.8-1.3c-0.2-0.2-0.5-0.5-0.8-0.5c-1-0.3-2.1,1-3.8,3c-0.8,0.9-0.9,1.1-1.6,1.9
	c-0.4,0.4-1.3,1.3-1.6,1.6c-0.1,0-0.2,0.2-0.3,0.3c-0.1,0.1-0.1,0.1-0.2,0.2c-0.2,0.2-0.2,0.3-0.3,0.3c-0.2,0,0-0.9,0-1.9
	c0,0,0,0,0-3.5c0-0.7,0-1.1,0-1.1c0,0,0-0.1,0-0.3c0,0,0-0.3-0.3-0.5c-0.4-0.5-1.4-0.3-1.9,0c-0.1,0.1-0.2,0.1-0.3,0.3
	c-0.1,0.2,0,0.3,0,0.8c0,0,0,0,0,0.3c0,0.4,0,0.7,0,1.1c0,1,0,2,0,3c0,1.5,0,3.1,0,4.6c0,0.1,0,0.2,0,0.3c0,0.1,0,0.2,0,0.3
	s0,0.2,0,0.3c0,0.1,0.1,0.3,0.3,0.5c0,0,0.2,0.2,0.5,0.3c0.3,0.1,0.8,0,2.2-1.3c0.5-0.5,0.8-0.8,0.8-0.8c0,0,0,0,0,0
	c1.3-1,4.3-4.9,4.3-4.9c0,0,0.2-0.3,0.5-0.5c0.1-0.1,0.1-0.1,0.1-0.1s0.1-0.1,0.2-0.2c0.1-0.1,0.4-0.3,0.5-0.3
	c0.3,0,0.5,0.7,0.5,0.8c0.4,1.3,0.6,2,0.8,3c0.4,1.6,0.6,2.1,1.1,2.4c0.1,0.1,0.3,0.2,0.5,0.3c1,0.3,2-0.5,2.7-1.1
	c1.1-0.9,1.9-2.1,2.2-2.4c0.2-0.3,0.5-0.6,1.1-1.3c0.4-0.5,0.7-0.8,1.1-0.8c0.2,0,0.4,0.1,0.5,0.3c0.3,0.2,0.5,0.6,0.8,1.3
	c0.3,0.9,0.2,0.9,0.5,1.6c0.3,0.6,0.5,1,0.6,1.1c0.1,0.1,0.3,0.4,0.8,0.8c0.2,0.1,0.9,0.7,1.9,1.1c1.5,0.5,3,0.2,3.8,0
	c1.7-0.4,3-1.3,4-1.9c0.8-0.4,1.4-0.8,1.9-1.1c0.2-0.1,0.4-0.2,0.5-0.3v26.7c0,0.4,0,0.7,0,1.1c0,0,0,0.1,0,0.3c0,0,0,0.3,0.3,0.5
	c0.4,0.4,1.2,0.4,1.6,0c0.2-0.2,0.3-0.5,0.3-0.5c0.1-0.3,0-0.5,0-0.5c0,0,0,0,0-5.1v-19.1c0.6,0.2,1.4,0.4,2.4,0.5
	c1.4,0.3,2.9,0.5,4.6,0.5c0.7,0,3.1,0,5.9-1.1c2-0.8,3.6-1.8,4.6-2.4c0.6-0.4,0.7-0.5,1.6-1.1c0.9-0.6,1.1-0.8,1.4-1.1
	c0.4-0.4,0.5-0.5,0.8-0.8c0.3-0.3,0.3-0.3,0.5-0.5c0.2-0.2,0.3-0.5,0.3-0.8C823.2,1136.2,823,1135.9,822.7,1135.9z M808.9,1140.7
	c-2,1.5-4.4,1.2-4.9,1.1c-1-0.2-1.7-0.5-2.2-0.8c0.5-1,1-1.8,1.3-2.4c1-1.6,1.4-2,1.6-2.2c0.4-0.3,1.1-0.9,2.2-1.1
	c0.5-0.1,1.7-0.3,2.7,0.5c0.1,0.1,1.1,0.9,1.1,2.2C810.8,1139.4,809.7,1140.2,808.9,1140.7z"/>
</svg>
