<svg xmlns="http://www.w3.org/2000/svg" viewBox="0 0 41.25 41.25"><defs><style>.cls-1{fill:#73bde6;}</style></defs><g id="Layer_2" data-name="Layer 2"><g id="Layer_1-2" data-name="Layer 1"><path class="cls-1" d="M35.64,0H5.6A5.61,5.61,0,0,0,0,5.61v30a5.6,5.6,0,0,0,5.6,5.6h30a5.6,5.6,0,0,0,5.61-5.6v-30A5.61,5.61,0,0,0,35.64,0ZM12.45,34.26H6.52V15.16h5.93Zm-3-21.44a3.09,3.09,0,0,1-3.18-3,3.09,3.09,0,0,1,3.18-3,3.09,3.09,0,0,1,3.18,3A3.09,3.09,0,0,1,9.48,12.82ZM35.35,24.7c0,1-.05,3.39,0,9.51l-6,0c0-5.16-.06-8.63,0-9.68a11.31,11.31,0,0,0,0-1.83,5.39,5.39,0,0,0-.19-1.07,3.16,3.16,0,0,0-.91-1.51,2.9,2.9,0,0,0-1.75-.66,3.08,3.08,0,0,0-3.18,2.25A6.13,6.13,0,0,0,23.18,23a15.13,15.13,0,0,0,0,1.61c.05.8.07,3.33,0,9.66H17.26c0-3,0-5.6,0-7.61s0-4.05-.09-6.69c-.05-2-.1-3.6-.14-4.81l5.2,0c.1.92.19,1.83.28,2.75a6.92,6.92,0,0,1,3.15-2.66,7,7,0,0,1,4.08-.41A6.17,6.17,0,0,1,33,16.31a6.33,6.33,0,0,1,1,1.26,8.62,8.62,0,0,1,1.15,3.32A17.53,17.53,0,0,1,35.35,23C35.38,23.86,35.36,24.51,35.35,24.7Z"/></g></g></svg>