<svg xmlns="http://www.w3.org/2000/svg" viewBox="0 0 96.85 96.85"><defs><style>.cls-1{fill:#842182;}.cls-2{fill:#e4c7e1;}.cls-3{opacity:0.15;}.cls-4{fill:#fff;}</style></defs><g id="Layer_2" data-name="Layer 2"><g id="Layer_1-2" data-name="Layer 1"><rect class="cls-1" x="2.5" y="2.5" width="91.85" height="91.85"/><path class="cls-2" d="M96.85,96.85H0V0H96.85ZM5,91.85H91.85V5H5Z"/><g class="cls-3"><rect class="cls-4" x="5" y="5" width="40.45" height="86.85"/></g><path class="cls-2" d="M28.21,28.93a59.31,59.31,0,0,1,9.69-.75c5,0,8.64,1.16,11,3.25a10.52,10.52,0,0,1,3.42,8.18,11.48,11.48,0,0,1-3,8.35c-2.66,2.84-7,4.29-11.94,4.29a17.35,17.35,0,0,1-4.06-.35V67.56h-5Zm5,18.85a16.85,16.85,0,0,0,4.17.41c6.09,0,9.8-3,9.8-8.35,0-5.16-3.65-7.66-9.22-7.66a21.2,21.2,0,0,0-4.75.41Z"/><path class="cls-2" d="M58,48.25c0-3.31-.05-6.15-.23-8.76H62.2L62.37,45h.23c1.28-3.77,4.35-6.15,7.78-6.15a5.38,5.38,0,0,1,1.45.18v4.81a7.54,7.54,0,0,0-1.74-.17c-3.6,0-6.15,2.72-6.85,6.55A15.13,15.13,0,0,0,63,52.6v15H58Z"/></g></g></svg>