<svg xmlns="http://www.w3.org/2000/svg" viewBox="0 0 96.85 96.85"><defs><style>.cls-1{fill:#2854a1;}.cls-2{fill:#d2eaf7;}.cls-3{opacity:0.15;}.cls-4{fill:#fff;}</style></defs><g id="Layer_2" data-name="Layer 2"><g id="Layer_1-2" data-name="Layer 1"><rect class="cls-1" x="2.5" y="2.5" width="91.85" height="91.85"/><path class="cls-2" d="M96.85,96.85H0V0H96.85ZM5,91.85H91.85V5H5Z"/><g class="cls-3"><rect class="cls-4" x="5" y="5" width="40.45" height="86.85"/></g><path class="cls-2" d="M26.53,28.07a56,56,0,0,1,9.18-.71c4.73,0,8.2,1.1,10.4,3.08a10,10,0,0,1,3.24,7.75,10.9,10.9,0,0,1-2.86,7.92c-2.53,2.7-6.65,4.07-11.33,4.07a16.2,16.2,0,0,1-3.85-.33V64.7H26.53ZM31.31,46a16.38,16.38,0,0,0,4,.38c5.78,0,9.3-2.8,9.3-7.92,0-4.89-3.47-7.26-8.75-7.26a20,20,0,0,0-4.51.39Z"/><path class="cls-2" d="M53.75,59.75a12.64,12.64,0,0,0,6.38,1.93c3.52,0,5.17-1.76,5.17-4s-1.37-3.58-4.95-4.9c-4.78-1.7-7-4.34-7-7.53,0-4.29,3.46-7.81,9.18-7.81A13.27,13.27,0,0,1,69,39.13l-1.21,3.52a10.34,10.34,0,0,0-5.44-1.54c-2.86,0-4.46,1.65-4.46,3.63,0,2.2,1.6,3.19,5.06,4.51,4.62,1.76,7,4.07,7,8,0,4.67-3.63,8-10,8a15.33,15.33,0,0,1-7.48-1.81Z"/></g></g></svg>