<svg xmlns="http://www.w3.org/2000/svg" viewBox="0 0 107.33 289.8"><defs><style>.cls-1{fill:#f3f;}.cls-2{fill:#3535f9;}</style></defs><g id="Layer_2" data-name="Layer 2"><g id="Layer_1-2" data-name="Layer 1"><path class="cls-1" d="M33,68.21a14.35,14.35,0,0,0-4.34-.87,29.25,29.25,0,0,0-5.12.36c-2.26.32-2.8.58-3.64.2a4,4,0,0,1-2.07-3,4.82,4.82,0,0,1,2.31-4.74c3-1.68,7.1,1.37,8.29,2.24A14.41,14.41,0,0,1,33,68.21Z"/><path class="cls-1" d="M24.14,126.94A27.59,27.59,0,0,1,27.63,116c3.11-5.33,6.1-6,10.76-11,3.38-3.67,10.17-11.06,9.17-19.34-.79-6.51-6.06-11-9.17-13.09A31.93,31.93,0,0,0,64,70.66c7.34-4.1,14.54-12.48,15-22,.46-10.11-7.19-12.37-6.76-25.52A28.52,28.52,0,0,1,75.7,9.94c.83-1.47,3.09-5.48,6.76-7.78,6.4-4,16.25-2.27,24.87,3.78V130.57H23.56Z"/><path class="cls-2" d="M23.64,130.57a52.54,52.54,0,0,0,5.28,25.77c6,11.74,13,13.29,13.44,21.36C42.92,187.86,32.55,199,23,203.91c-6.15,3.14-10.9,3.17-16.52,8.81-1.84,1.85-5.29,5.4-6.17,11-.27,1.75-1.13,7.2,2.42,11.67a14,14,0,0,0,12.78,4.85C23.34,239,28.22,230.76,30,227.69c3.37-5.71,2.92-8.84,6.83-11.67.37-.26,4.68-3.29,9.69-2.42,6.84,1.19,11.73,9.07,13,15.86,2.1,11.28-6.79,15.23-8.58,33.47-.63,6.34-1,11.22,1.76,16.08,4.79,8.33,15.78,10.9,22.68,10.79,13.22-.22,25.74-10.55,31.94-26V130.57Z"/></g></g></svg>