<svg xmlns="http://www.w3.org/2000/svg" viewBox="0 0 249.43 551.16"><defs><style>.cls-1{fill:#1ed622;}.cls-2{fill:#fff61f;}</style></defs><g id="Layer_2" data-name="Layer 2"><g id="Layer_1-2" data-name="Layer 1"><path class="cls-1" d="M240.77,426.32c4,2.63,9,7,8.64,12.45a11,11,0,0,1-7.46,9.36c-2.42.7-5.81.59-8.1-1.35-1.61-1.36-1.6-2.72-3.15-7.67a68.33,68.33,0,0,0-4.22-10.84c-.31-.59-.68-1.24-1.13-1.95Z"/><path class="cls-2" d="M240.77,426.32H225.35a34.42,34.42,0,0,0-4.88-6.11A32.89,32.89,0,0,1,236.75,424C237.61,424.43,239.1,425.23,240.77,426.32Z"/><path class="cls-2" d="M201.41,413.31a53.1,53.1,0,0,0-22-1c-10.55,1.79-19,7.25-26,14H.3L1.5,0a170.89,170.89,0,0,0,18,22C22.14,24.73,34.65,37.66,47,45c30.14,17.89,55-.34,65,11.49,16.14,19.07-44.17,71.29-27.49,112,12.06,29.4,54.27,28.14,55.47,51.48.83,15.86-18.57,18.87-36.48,55C97.39,287.08,90.36,301.68,91,321.35c.19,6.17.82,27,15,44,9.39,11.26,18.48,13.38,51,27.49C176,401.11,191.39,408.42,201.41,413.31Z"/><path class="cls-1" d="M.3,426.32H153.43c-8.25,8-14.31,17.84-19,25.47-12,19.53-7.94,23-18,42C109.3,507.27,89.89,544,55,550.24c-24,4.32-44.91-7.57-55-14.49Z"/></g></g></svg>