<svg xmlns="http://www.w3.org/2000/svg" viewBox="0 0 126.73 280.02"><defs><style>.cls-1{fill:#1ed622;}.cls-2{fill:#f3f;}</style></defs><g id="Layer_2" data-name="Layer 2"><g id="Layer_1-2" data-name="Layer 1"><path class="cls-1" d="M122.32,63.43c2-1.34,4.59-3.55,4.39-6.33a5.53,5.53,0,0,0-3.79-4.75,4.59,4.59,0,0,0-4.11.68c-.82.69-.81,1.38-1.6,3.9a34.51,34.51,0,0,1-2.15,5.51c-.15.29-.34.63-.57,1Z"/><path class="cls-2" d="M122.32,63.43h-7.83a17.67,17.67,0,0,1-2.48,3.1,16.74,16.74,0,0,0,8.27-1.91C120.72,64.39,121.48,64,122.32,63.43Z"/><path class="cls-2" d="M102.32,70a27.08,27.08,0,0,1-11.17.51A24.9,24.9,0,0,1,78,63.43H.15Q.47,171.72.76,280A87.13,87.13,0,0,1,9.9,268.85c1.35-1.4,7.71-8,14-11.68,15.31-9.09,27.92.17,33-5.84,8.2-9.69-22.45-36.22-14-56.88,6.13-14.93,27.57-14.3,28.18-26.15.42-8.06-9.43-9.59-18.53-27.93-3.08-6.2-6.65-13.62-6.35-23.61.1-3.14.42-13.71,7.62-22.35,4.77-5.72,9.39-6.79,25.9-14C89.44,76.23,97.24,72.52,102.32,70Z"/><path class="cls-1" d="M.15,63.43H78c-4.19-4.07-7.27-9.07-9.65-12.94-6.1-9.93-4-11.68-9.14-21.33C55.53,22.3,45.67,3.66,27.93.47,15.74-1.72,5.11,4.32,0,7.83Z"/></g></g></svg>