<svg xmlns="http://www.w3.org/2000/svg" viewBox="0 0 371.05 368.53"><defs><style>.cls-1{fill:#2df9e5;}.cls-2{fill:#3535f9;}</style></defs><g id="Layer_2" data-name="Layer 2"><g id="Layer_1-2" data-name="Layer 1"><path class="cls-1" d="M359.51,147.29c-6.6,8.78-22.38,29.76-17.65,56,3.13,17.31,14.53,33.2,29.19,41.57v86.91c-7.38-7.13-19.69-19.31-45-42.09-4.91-4.41-14.09-12.43-26.77-12.78-1.94-.05-15-.2-23.12,9.13-5.05,5.78-5.58,12.4-6.69,25.55h-88c3.1-7.3,7.65-9.06,10.73-17,5.45-14.11.76-33.41-10.34-43.8-6.16-5.78-14.08-8.61-36.5-9.74a325.67,325.67,0,0,0-70.57,4.26,86,86,0,0,0,28-17.64c5.29-5,24.41-23.68,26.16-53.54.39-6.66,1.3-22.09-7.3-37.1-10-17.48-22.55-16.37-29.2-32.86-6.91-17.16.5-33.74,1.22-35.28C104,46.62,129.14,42.54,132.59,42c16.87-2.45,36.25,3.17,47.45,16.43,14.49,17.13,3.31,32.81,18.86,51.1,11.34,13.34,27.29,16.78,34.07,18.25,2.57.55,34,6.82,59-13.38C305,104,310.54,91,315.1,80.37c9-21,4.39-27.72,13.38-45.63,4.44-8.84,12.11-24.12,27.38-31A44.48,44.48,0,0,1,371.05,0V134.73A82,82,0,0,0,359.51,147.29Z"/><path class="cls-2" d="M181.48,311.54h88c-1.28,15.07,1.38,16.76-.61,24.94C265,352.24,251.47,361.11,250,362c-20.13,12.77-42.51,3-45,1.83-3.77-1.73-17.84-8.16-23.72-23.73a41.29,41.29,0,0,1-1.22-24.33A32.57,32.57,0,0,1,181.48,311.54Z"/><path class="cls-1" d="M40.25,251.08a33.86,33.86,0,0,0-10,12.82c-1.78,4.1-1.5,6-3.9,10.47-2.23,4.16-4.4,8.19-8.87,9.88C12.8,286,6.53,284.9,3,280.81-1.33,275.89.27,268.92.39,268.45,2.84,258.49,18.94,251.73,40.25,251.08Z"/></g></g></svg>