<svg xmlns="http://www.w3.org/2000/svg" viewBox="0 0 91.43 252.73"><defs><style>.cls-1{fill:#f3f;}.cls-2{fill:#2df9e5;}</style></defs><g id="Layer_2" data-name="Layer 2"><g id="Layer_1-2" data-name="Layer 1"><path class="cls-1" d="M2.36,59.79A4.82,4.82,0,0,0,.05,64.53a4,4,0,0,0,2.07,3c.84.38,1.38.12,3.64-.2a29.25,29.25,0,0,1,5.12-.36,14.59,14.59,0,0,1,4.34.86A14.46,14.46,0,0,0,10.65,62C9.46,61.15,5.35,58.11,2.36,59.79Z"/><path class="cls-2" d="M19.43,159.41c2.82,19.88-19.19,30.26-14,41,4.81,10,23.56.67,39,14,12.47,10.76,8.78,24.19,22,33,8.59,5.73,18.58,5.69,25,5l-.15-154H26.06c-1.37,1.77-2.75,3.27-3.8,4.41-4.66,5.07-7.65,5.72-10.76,11.05A27.78,27.78,0,0,0,8,124.77C6.2,139.49,17.55,146.18,19.43,159.41Z"/><path class="cls-1" d="M26.06,98.41H91.28L91.19,3.78A83.89,83.89,0,0,0,66.33,0C58,0,55.15,1.34,53.43,2.41a20.28,20.28,0,0,0-9,16c-.46,13.41,14.73,16.5,15,30,.16,8.18-5.22,16.27-11.57,20.09C40.93,72.65,32,72.23,30.91,72.16c-.78-.06-1.39-.12-1.81-.17a32.09,32.09,0,0,1-6.84-1.6c3.1,2.13,8.38,6.58,9.16,13.08C32.12,89.19,29.1,94.47,26.06,98.41Z"/></g></g></svg>