<svg xmlns="http://www.w3.org/2000/svg" viewBox="0 0 91.43 252.73"><defs><style>.cls-1{fill:#fff61f;}.cls-2{fill:#f3f;}</style></defs><g id="Layer_2" data-name="Layer 2"><g id="Layer_1-2" data-name="Layer 1"><path class="cls-1" d="M89.07,59.79a4.82,4.82,0,0,1,2.31,4.74,4,4,0,0,1-2.07,3c-.84.38-1.38.12-3.64-.2a29.25,29.25,0,0,0-5.12-.36,14.59,14.59,0,0,0-4.34.86A14.46,14.46,0,0,1,80.78,62C82,61.15,86.08,58.11,89.07,59.79Z"/><path class="cls-2" d="M72,159.41c-2.82,19.88,19.19,30.26,14,41-4.81,10-23.56.67-39,14-12.47,10.76-8.78,24.19-22,33-8.59,5.73-18.58,5.69-25,5l.15-154H65.37c1.37,1.77,2.75,3.27,3.8,4.41,4.66,5.07,7.65,5.72,10.76,11.05a27.78,27.78,0,0,1,3.49,10.9C85.23,139.49,73.88,146.18,72,159.41Z"/><path class="cls-1" d="M65.37,98.41H.15L.24,3.78A83.89,83.89,0,0,1,25.1,0C33.41,0,36.28,1.34,38,2.41a20.28,20.28,0,0,1,9,16c.46,13.41-14.73,16.5-15,30-.16,8.18,5.22,16.27,11.57,20.09,6.93,4.15,15.87,3.73,17,3.66.78-.06,1.39-.12,1.81-.17a32.09,32.09,0,0,0,6.84-1.6C66.07,72.52,60.79,77,60,83.47,59.31,89.19,62.33,94.47,65.37,98.41Z"/></g></g></svg>