<svg xmlns="http://www.w3.org/2000/svg" viewBox="0 0 142.63 152.47"><defs><style>.cls-1{fill:#3535f9;}.cls-2{fill:#1ed622;}</style></defs><g id="Layer_2" data-name="Layer 2"><g id="Layer_1-2" data-name="Layer 1"><path class="cls-1" d="M137.9,60c6.84,6,5.4,18,1.14,25-5.88,9.62-19.85,14.14-30.24,12.29-4.14-.74-7.34-2.41-12.41-1.26-1.35.31-7.87,1.79-10.78,7.61-3.19,6.37.14,13.56,3.12,17.19A19.85,19.85,0,0,0,98,126.93c4.08,1.29,5.15.13,8.56,1.47.54.21,7.27,3,8.6,9,1.27,5.75-2.89,12.3-8,14.34-8.13,3.27-19.33-4.78-24.4-12.6-3-4.67-7-14.07-8.1-16.66-2-4.69-2.94-7.54-5.86-8.87-4.58-2.1-10,1.36-10.9,1.92a16.21,16.21,0,0,0-7.27,11.43c-.38,3.28.76,4.16-.12,7a11.71,11.71,0,0,1-6.16,6.89c-5.93,2.69-14.49-.64-18-7.18a15.61,15.61,0,0,1,2.21-17.51c3.27-3.39,5.93-1.86,12.73-6.07,4.23-2.62,8.55-5.3,9.22-9.88.7-4.76-2.82-9.8-7-11.85-5-2.42-10.31-.41-14.17,1C23,91.73,22.75,94.27,18.3,94.93c-5,.75-10.48-1.6-13.89-5.36-5.57-6.12-6-16.38-.5-22.76C7.45,62.7,13.58,60,18.63,61.38c3.27.87,3.29,2.69,10.35,6.68,3.91,2.2,5.92,3.31,8.84,3.49.87.06,6,.29,9.67-3.07,5.34-5,3.4-14.12,2.88-16.2-2.11-8.6-7.55-8.84-11.47-19-1.33-3.43-3.34-8.63-2.13-14.76a21,21,0,0,1,1.32-4.24H80.84c4.86,11.32-2.44,23.91-3.93,26.49-3,5.11-4.91,5.39-6.48,10-.18.53-4,12.44,3.48,21.6,7.27,8.88,20.23,9.18,27.83,5.59,4.15-2,7.26-5.37,10.66-9.09,5.91-6.46,5.95-9.46,10-11.31C127.2,55.36,133.83,56.47,137.9,60Z"/><path class="cls-2" d="M80.62,13.76c.08.17.15.33.22.5H38.09A23.49,23.49,0,0,1,54.22.54C65.67-2.06,76.64,5.13,80.62,13.76Z"/></g></g></svg>