<svg xmlns="http://www.w3.org/2000/svg" viewBox="0 0 78.06 114.1"><defs><style>.cls-1{fill:#717070;}</style></defs><g id="Layer_2" data-name="Layer 2"><g id="Layer_1-2" data-name="Layer 1"><path class="cls-1" d="M66,0H12.09A12.12,12.12,0,0,0,0,12.09V102A12.12,12.12,0,0,0,12.09,114.1H66A12.12,12.12,0,0,0,78.06,102V12.09A12.12,12.12,0,0,0,66,0ZM39,102a7.45,7.45,0,1,1,7.45-7.45A7.46,7.46,0,0,1,39,102Zm28.3-29.41a6.8,6.8,0,0,1-6.78,6.78h-43a6.8,6.8,0,0,1-6.78-6.78V20.32a6.8,6.8,0,0,1,6.78-6.78h43a6.8,6.8,0,0,1,6.78,6.78Z"/></g></g></svg>