<svg xmlns="http://www.w3.org/2000/svg" viewBox="0 0 81.26 71.65"><defs><style>.cls-1{fill:#1d90bc;}.cls-2{fill:#379acc;}.cls-3{fill:#4ea8de;}</style></defs><g id="Layer_2" data-name="Layer 2"><g id="Layer_1-2" data-name="Layer 1"><path class="cls-1" d="M61.15,0,.24,56.93a.73.73,0,0,0,0,1l4.07,4.3a.87.87,0,0,0,1.14.1L71.94,13.25Z"/><path class="cls-2" d="M71.81,58.51,4.73,9a.74.74,0,0,0-1,.16L.21,13.92a.86.86,0,0,0,.11,1.14L60.75,71.53Z"/><path class="cls-3" d="M60.26,1.13V70.69a1,1,0,0,0,1.26.92l16.84-5.4a4.17,4.17,0,0,0,2.9-4V9.32a3.7,3.7,0,0,0-2.52-3.51L61.76.06A1.13,1.13,0,0,0,60.26,1.13Z"/></g></g></svg>