<svg xmlns="http://www.w3.org/2000/svg" viewBox="0 0 96.85 96.85"><defs><style>.cls-1{fill:#792182;}.cls-2{fill:#e9cfe5;}.cls-3{opacity:0.15;}.cls-4{fill:#fff;}</style></defs><g id="Layer_2" data-name="Layer 2"><g id="Layer_1-2" data-name="Layer 1"><rect class="cls-1" x="2.5" y="2.5" width="91.85" height="91.85"/><path class="cls-2" d="M96.85,96.85H0V0H96.85ZM5,91.85H91.85V5H5Z"/><g class="cls-3"><rect class="cls-4" x="5" y="5" width="40.45" height="86.85"/></g><path class="cls-2" d="M42.48,67.54l-4.73-8.2c-1.92-3.13-3.13-5.17-4.29-7.31h-.11c-1,2.14-2.09,4.12-4,7.37l-4.46,8.14h-5.5L30.71,48.78,19.82,30.47h5.56l4.89,8.69c1.38,2.42,2.42,4.29,3.41,6.27h.17c1-2.2,2-3.91,3.35-6.27l5.06-8.69h5.5l-11.27,18L48,67.54Z"/><path class="cls-2" d="M75.81,28.49V60.66c0,2.37.06,5.06.22,6.88H71.69l-.22-4.62h-.11a9.85,9.85,0,0,1-9.08,5.22c-6.43,0-11.38-5.44-11.38-13.53,0-8.85,5.44-14.3,11.93-14.3,4.07,0,6.82,1.93,8,4.07H71V28.49ZM71,51.75a8.25,8.25,0,0,0-.22-2,7.11,7.11,0,0,0-7-5.61c-5,0-8,4.4-8,10.28,0,5.39,2.64,9.85,7.87,9.85a7.28,7.28,0,0,0,7.09-5.78A8.18,8.18,0,0,0,71,56.37Z"/></g></g></svg>